<svg xmlns="http://www.w3.org/2000/svg" xmlns:xlink="http://www.w3.org/1999/xlink" width="400" zoomAndPan="magnify" viewBox="0 0 300 149.999998" height="200" preserveAspectRatio="xMidYMid meet" version="1.0"><defs><g/><clipPath id="04ab5ddfc5"><path d="M 38 95 L 290 95 L 290 122 L 38 122 Z M 38 95 " clip-rule="nonzero"/></clipPath><clipPath id="c799b88ef8"><path d="M 37.863281 104.707031 L 288.898438 94.371094 L 289.640625 112.355469 L 38.601562 122.691406 Z M 37.863281 104.707031 " clip-rule="nonzero"/></clipPath><clipPath id="2ff37e8f1e"><path d="M 37.863281 104.707031 L 288.898438 94.371094 L 289.640625 112.355469 L 38.601562 122.691406 Z M 37.863281 104.707031 " clip-rule="nonzero"/></clipPath></defs><g fill="#000000" fill-opacity="1"><g transform="translate(13.63038, 99.537304)"><g><path d="M 52.546875 -30.0625 C 53.722656 -30.34375 54.15625 -29.894531 53.84375 -28.71875 C 53.5625 -27.789062 53.257812 -26.863281 52.9375 -25.9375 C 51.519531 -21.96875 50.234375 -17.96875 49.078125 -13.9375 C 47.921875 -9.914062 46.828125 -5.878906 45.796875 -1.828125 C 45.566406 -0.910156 45.320312 0.0195312 45.0625 0.96875 C 44.925781 1.332031 44.679688 1.5 44.328125 1.46875 C 43.941406 1.445312 43.75 1.25 43.75 0.875 C 43.851562 -0.0625 43.976562 -1.003906 44.125 -1.953125 C 44.78125 -5.429688 45.59375 -8.890625 46.5625 -12.328125 C 47.539062 -15.773438 48.59375 -19.207031 49.71875 -22.625 C 49.894531 -23.175781 50.070312 -23.734375 50.25 -24.296875 C 50.25 -24.316406 50.238281 -24.347656 50.21875 -24.390625 C 50.1875 -24.429688 50.15625 -24.46875 50.125 -24.5 C 49.707031 -24.15625 49.359375 -23.75 49.078125 -23.28125 C 48.992188 -23.132812 48.910156 -23 48.828125 -22.875 C 47.015625 -20.300781 44.773438 -17.238281 42.109375 -13.6875 C 39.453125 -10.144531 36.601562 -6.539062 33.5625 -2.875 C 30.53125 0.789062 27.550781 4.101562 24.625 7.0625 C 21.707031 10.03125 19.09375 12.210938 16.78125 13.609375 C 16.125 14.003906 15.40625 14.242188 14.625 14.328125 C 13.070312 14.503906 12.054688 13.875 11.578125 12.4375 C 11.296875 11.5 11.179688 10.519531 11.234375 9.5 C 11.265625 8.414062 11.367188 7.335938 11.546875 6.265625 C 11.722656 5.203125 11.929688 4.132812 12.171875 3.0625 C 12.773438 0.21875 13.6875 -3.050781 14.90625 -6.75 C 16.125 -10.457031 17.445312 -14.347656 18.875 -18.421875 C 20.25 -22.285156 21.5625 -26.09375 22.8125 -29.84375 C 24.070312 -33.601562 25.09375 -37.070312 25.875 -40.25 C 26.65625 -43.4375 27.046875 -46.117188 27.046875 -48.296875 C 27.078125 -48.929688 27 -49.546875 26.8125 -50.140625 C 26.488281 -51.234375 25.734375 -51.59375 24.546875 -51.21875 C 23.691406 -50.90625 22.882812 -50.507812 22.125 -50.03125 C 21.363281 -49.550781 20.617188 -49.03125 19.890625 -48.46875 C 18.078125 -47.113281 16.046875 -45.378906 13.796875 -43.265625 C 11.554688 -41.160156 9.273438 -38.8125 6.953125 -36.21875 C 4.628906 -33.632812 2.476562 -30.957031 0.5 -28.1875 C -1.46875 -25.414062 -3.070312 -22.691406 -4.3125 -20.015625 C -5.550781 -17.347656 -6.21875 -14.863281 -6.3125 -12.5625 C -6.332031 -11.925781 -6.304688 -11.300781 -6.234375 -10.6875 C -6.015625 -8.4375 -4.925781 -6.84375 -2.96875 -5.90625 C -2.082031 -5.5 -1.164062 -5.203125 -0.21875 -5.015625 C 0.726562 -4.835938 1.691406 -4.722656 2.671875 -4.671875 C 4.472656 -4.597656 6.289062 -4.632812 8.125 -4.78125 C 9.039062 -4.863281 9.9375 -4.921875 10.8125 -4.953125 C 11.65625 -4.992188 11.988281 -4.878906 11.8125 -4.609375 C 11.71875 -4.398438 11.582031 -4.265625 11.40625 -4.203125 C 11.238281 -4.140625 11.070312 -4.109375 10.90625 -4.109375 C 10.882812 -4.109375 10.859375 -4.109375 10.828125 -4.109375 C 8.929688 -3.878906 7.046875 -3.734375 5.171875 -3.671875 C 3.296875 -3.617188 1.429688 -3.707031 -0.421875 -3.9375 C -1.390625 -4.082031 -2.320312 -4.300781 -3.21875 -4.59375 C -6.476562 -5.769531 -8.09375 -8.191406 -8.0625 -11.859375 C -8.019531 -14.304688 -7.390625 -16.914062 -6.171875 -19.6875 C -4.953125 -22.46875 -3.359375 -25.269531 -1.390625 -28.09375 C 0.566406 -30.925781 2.703125 -33.648438 5.015625 -36.265625 C 7.328125 -38.878906 9.609375 -41.253906 11.859375 -43.390625 C 14.117188 -45.523438 16.148438 -47.296875 17.953125 -48.703125 C 19.242188 -49.710938 20.585938 -50.617188 21.984375 -51.421875 C 22.953125 -51.984375 23.96875 -52.363281 25.03125 -52.5625 C 27.40625 -52.957031 28.765625 -51.972656 29.109375 -49.609375 C 29.285156 -47.765625 28.96875 -45.140625 28.15625 -41.734375 C 27.34375 -38.328125 26.253906 -34.503906 24.890625 -30.265625 C 23.523438 -26.023438 22.082031 -21.726562 20.5625 -17.375 C 19.132812 -13.175781 17.828125 -9.242188 16.640625 -5.578125 C 15.460938 -1.921875 14.601562 1.140625 14.0625 3.609375 C 13.65625 5.429688 13.398438 7.253906 13.296875 9.078125 C 13.222656 10.035156 13.300781 10.96875 13.53125 11.875 C 13.875 13.082031 14.628906 13.347656 15.796875 12.671875 C 18.078125 11.316406 20.773438 8.992188 23.890625 5.703125 C 27.015625 2.410156 30.242188 -1.320312 33.578125 -5.5 C 36.921875 -9.6875 40.066406 -13.785156 43.015625 -17.796875 C 45.972656 -21.804688 48.414062 -25.175781 50.34375 -27.90625 C 50.738281 -28.425781 51.148438 -28.945312 51.578125 -29.46875 C 51.847656 -29.75 52.171875 -29.945312 52.546875 -30.0625 Z M 52.546875 -30.0625 "/></g></g></g><g fill="#000000" fill-opacity="1"><g transform="translate(66.245277, 93.874374)"><g><path d="M 14.4375 -8.9375 C 14.757812 -9.175781 15.019531 -9.253906 15.21875 -9.171875 C 15.425781 -9.085938 15.382812 -8.785156 15.09375 -8.265625 C 14.726562 -7.640625 14.03125 -6.941406 13 -6.171875 C 11.96875 -5.410156 11.023438 -5.023438 10.171875 -5.015625 C 9.316406 -5.003906 9 -5.597656 9.21875 -6.796875 C 9.445312 -7.992188 9.570312 -8.664062 9.59375 -8.8125 C 9.613281 -8.957031 9.578125 -9.035156 9.484375 -9.046875 C 9.398438 -9.054688 9.21875 -8.9375 8.9375 -8.6875 C 8.144531 -8 7.359375 -7.28125 6.578125 -6.53125 C 6.253906 -6.21875 5.9375 -5.890625 5.625 -5.546875 C 5.425781 -5.328125 5.222656 -5.113281 5.015625 -4.90625 C 5.015625 -4.90625 5.003906 -4.894531 4.984375 -4.875 C 4.753906 -4.59375 4.460938 -4.390625 4.109375 -4.265625 C 3.953125 -4.191406 3.78125 -4.15625 3.59375 -4.15625 C 3.40625 -4.15625 3.242188 -4.207031 3.109375 -4.3125 C 2.941406 -4.4375 2.867188 -4.582031 2.890625 -4.75 C 2.910156 -4.914062 3.003906 -5.171875 3.171875 -5.515625 C 3.347656 -5.859375 3.539062 -6.234375 3.75 -6.640625 C 3.957031 -7.054688 4.066406 -7.304688 4.078125 -7.390625 C 4.097656 -7.472656 4.078125 -7.554688 4.015625 -7.640625 C 3.929688 -7.722656 3.847656 -7.738281 3.765625 -7.6875 C 3.691406 -7.644531 3.410156 -7.40625 2.921875 -6.96875 C 2.429688 -6.53125 1.757812 -5.921875 0.90625 -5.140625 C 0.519531 -4.773438 0.132812 -4.398438 -0.25 -4.015625 C -0.332031 -3.898438 -0.429688 -3.789062 -0.546875 -3.6875 C -0.828125 -3.40625 -1.148438 -3.234375 -1.515625 -3.171875 C -1.753906 -3.117188 -1.945312 -3.15625 -2.09375 -3.28125 C -2.238281 -3.40625 -2.28125 -3.59375 -2.21875 -3.84375 C -2.1875 -4.007812 -2.128906 -4.171875 -2.046875 -4.328125 C -2.015625 -4.398438 -1.988281 -4.472656 -1.96875 -4.546875 C -1.375 -6.179688 -0.785156 -7.828125 -0.203125 -9.484375 C -0.191406 -9.523438 -0.179688 -9.570312 -0.171875 -9.625 C -0.0859375 -9.800781 -0.015625 -9.972656 0.046875 -10.140625 C 0.242188 -10.410156 0.507812 -10.519531 0.84375 -10.46875 C 1.21875 -10.40625 1.382812 -10.207031 1.34375 -9.875 C 1.21875 -9.382812 1.097656 -8.890625 0.984375 -8.390625 C 0.921875 -8.160156 0.851562 -7.9375 0.78125 -7.71875 C 0.675781 -7.320312 0.65625 -7.070312 0.71875 -6.96875 C 0.78125 -6.875 1.019531 -6.972656 1.4375 -7.265625 C 1.695312 -7.492188 1.960938 -7.71875 2.234375 -7.9375 C 2.546875 -8.21875 2.851562 -8.472656 3.15625 -8.703125 C 3.613281 -9.054688 4.085938 -9.363281 4.578125 -9.625 C 4.828125 -9.769531 5.082031 -9.878906 5.34375 -9.953125 C 5.601562 -10.035156 5.851562 -10.003906 6.09375 -9.859375 C 6.289062 -9.734375 6.382812 -9.570312 6.375 -9.375 C 6.375 -9.1875 6.335938 -9.003906 6.265625 -8.828125 C 6.171875 -8.492188 6.140625 -8.285156 6.171875 -8.203125 C 6.203125 -8.117188 6.273438 -8.109375 6.390625 -8.171875 C 6.515625 -8.242188 6.726562 -8.394531 7.03125 -8.625 C 7.332031 -8.851562 7.660156 -9.101562 8.015625 -9.375 C 8.441406 -9.726562 8.894531 -10.066406 9.375 -10.390625 C 9.78125 -10.710938 10.226562 -10.929688 10.71875 -11.046875 C 11.363281 -11.171875 11.65625 -10.929688 11.59375 -10.328125 C 11.539062 -9.722656 11.382812 -9 11.125 -8.15625 C 10.863281 -7.3125 10.878906 -6.8125 11.171875 -6.65625 C 11.472656 -6.5 12.0625 -6.8125 12.9375 -7.59375 C 13.820312 -8.382812 14.320312 -8.832031 14.4375 -8.9375 Z M 14.4375 -8.9375 "/></g></g></g><g fill="#000000" fill-opacity="1"><g transform="translate(81.64831, 92.216549)"><g><path d="M 9.765625 -8.546875 C 10.003906 -8.441406 10.050781 -8.128906 9.90625 -7.609375 C 9.664062 -7.210938 9.40625 -6.835938 9.125 -6.484375 C 8.84375 -6.128906 8.53125 -5.800781 8.1875 -5.5 C 8.15625 -5.488281 8.140625 -5.476562 8.140625 -5.46875 C 7.898438 -5.269531 7.644531 -5.085938 7.375 -4.921875 C 5.132812 -3.847656 3.898438 -4.210938 3.671875 -6.015625 C 2.816406 -5.097656 2.238281 -4.53125 1.9375 -4.3125 C 1.226562 -3.78125 0.414062 -3.488281 -0.5 -3.4375 C -1.15625 -3.40625 -1.617188 -3.554688 -1.890625 -3.890625 C -2.171875 -4.222656 -2.203125 -4.71875 -1.984375 -5.375 C -1.671875 -6.40625 -1.160156 -7.347656 -0.453125 -8.203125 C 0.367188 -9.160156 1.320312 -9.953125 2.40625 -10.578125 C 2.96875 -10.941406 3.582031 -11.128906 4.25 -11.140625 C 4.925781 -11.171875 5.367188 -10.84375 5.578125 -10.15625 C 5.648438 -9.945312 5.613281 -9.75 5.46875 -9.5625 C 5.28125 -9.34375 5.039062 -9.273438 4.75 -9.359375 C 4.726562 -9.359375 4.695312 -9.359375 4.65625 -9.359375 C 4.625 -9.359375 4.59375 -9.367188 4.5625 -9.390625 C 4.238281 -9.753906 3.9375 -9.890625 3.65625 -9.796875 C 3.382812 -9.703125 3.101562 -9.539062 2.8125 -9.3125 C 1.40625 -8.257812 0.421875 -6.921875 -0.140625 -5.296875 C -0.171875 -5.210938 -0.1875 -5.128906 -0.1875 -5.046875 C -0.1875 -4.960938 -0.15625 -4.898438 -0.09375 -4.859375 C 0.0820312 -4.828125 0.273438 -4.863281 0.484375 -4.96875 C 0.691406 -5.070312 0.890625 -5.21875 1.078125 -5.40625 C 1.273438 -5.59375 1.441406 -5.742188 1.578125 -5.859375 C 1.597656 -5.890625 1.609375 -5.90625 1.609375 -5.90625 C 2.253906 -6.582031 2.878906 -7.265625 3.484375 -7.953125 C 3.753906 -8.304688 4.113281 -8.523438 4.5625 -8.609375 C 5.207031 -8.679688 5.503906 -8.421875 5.453125 -7.828125 C 5.421875 -7.609375 5.378906 -7.394531 5.328125 -7.1875 C 5.179688 -6.226562 5.234375 -5.679688 5.484375 -5.546875 C 5.734375 -5.410156 6.085938 -5.445312 6.546875 -5.65625 C 7.015625 -5.875 7.460938 -6.234375 7.890625 -6.734375 C 8.316406 -7.242188 8.675781 -7.695312 8.96875 -8.09375 C 9.257812 -8.5 9.523438 -8.648438 9.765625 -8.546875 Z M 9.765625 -8.546875 "/></g></g></g><g fill="#000000" fill-opacity="1"><g transform="translate(91.300689, 91.177666)"><g><path d="M 6.25 -8.140625 C 4.78125 -7.410156 3.726562 -6.828125 3.09375 -6.390625 C 2.613281 -6.097656 2.347656 -5.863281 2.296875 -5.6875 C 2.242188 -5.519531 2.332031 -5.234375 2.5625 -4.828125 C 2.5625 -4.804688 2.582031 -4.773438 2.625 -4.734375 C 2.882812 -4.242188 3.066406 -3.726562 3.171875 -3.1875 C 3.359375 -2.082031 2.488281 -1.195312 0.5625 -0.53125 C -1.351562 0.125 -2.660156 0.28125 -3.359375 -0.0625 C -4.066406 -0.414062 -4.328125 -0.921875 -4.140625 -1.578125 C -3.960938 -2.242188 -3.367188 -2.96875 -2.359375 -3.75 C -1.359375 -4.53125 -0.6875 -5.082031 -0.34375 -5.40625 C -0.0078125 -5.738281 0.0625 -6.082031 -0.125 -6.4375 C -0.1875 -6.550781 -0.253906 -6.671875 -0.328125 -6.796875 C -0.492188 -7.066406 -0.660156 -7.359375 -0.828125 -7.671875 C -1.140625 -8.222656 -1.3125 -8.78125 -1.34375 -9.34375 C -1.375 -9.914062 -1.210938 -10.414062 -0.859375 -10.84375 C -0.515625 -11.269531 0.0507812 -11.539062 0.84375 -11.65625 C 1.300781 -11.726562 1.71875 -11.710938 2.09375 -11.609375 C 2.476562 -11.515625 2.789062 -11.285156 3.03125 -10.921875 C 3.238281 -10.671875 3.21875 -10.425781 2.96875 -10.1875 C 2.789062 -10.019531 2.585938 -9.972656 2.359375 -10.046875 C 2.222656 -10.097656 2.085938 -10.171875 1.953125 -10.265625 C 1.941406 -10.296875 1.9375 -10.3125 1.9375 -10.3125 C 1.875 -10.34375 1.816406 -10.378906 1.765625 -10.421875 C 1.691406 -10.492188 1.625 -10.550781 1.5625 -10.59375 C 1.28125 -10.757812 1.015625 -10.789062 0.765625 -10.6875 C 0.523438 -10.582031 0.359375 -10.363281 0.265625 -10.03125 C 0.210938 -9.757812 0.195312 -9.5 0.21875 -9.25 C 0.28125 -8.925781 0.382812 -8.625 0.53125 -8.34375 C 0.632812 -8.164062 0.726562 -8 0.8125 -7.84375 C 1.03125 -7.4375 1.203125 -7.160156 1.328125 -7.015625 C 1.453125 -6.867188 1.585938 -6.816406 1.734375 -6.859375 C 1.878906 -6.898438 3.203125 -7.535156 5.703125 -8.765625 C 6.242188 -9.015625 6.425781 -8.804688 6.25 -8.140625 Z M 0.546875 -1.890625 C 1.191406 -2.203125 1.425781 -2.691406 1.25 -3.359375 C 1.25 -3.410156 1.234375 -3.46875 1.203125 -3.53125 C 1.128906 -3.882812 1.023438 -4.15625 0.890625 -4.34375 C 0.753906 -4.53125 0.492188 -4.492188 0.109375 -4.234375 C -0.847656 -3.554688 -1.707031 -2.789062 -2.46875 -1.9375 C -2.519531 -1.851562 -2.570312 -1.78125 -2.625 -1.71875 C -2.625 -1.71875 -2.628906 -1.703125 -2.640625 -1.671875 C -2.691406 -1.585938 -2.691406 -1.492188 -2.640625 -1.390625 C -2.585938 -1.296875 -2.492188 -1.257812 -2.359375 -1.28125 C -1.347656 -1.238281 -0.378906 -1.441406 0.546875 -1.890625 Z M 0.546875 -1.890625 "/></g></g></g><g fill="#000000" fill-opacity="1"><g transform="translate(97.750169, 90.48351)"><g><path d="M 11.09375 -8.046875 C 10.9375 -7.890625 10.769531 -7.738281 10.59375 -7.59375 C 10.007812 -7.125 9.476562 -6.75 9 -6.46875 C 8.53125 -6.195312 7.960938 -5.910156 7.296875 -5.609375 C 6.328125 -5.191406 5.675781 -5.1875 5.34375 -5.59375 C 5.007812 -6.007812 4.894531 -6.609375 5 -7.390625 C 5.164062 -8.535156 5.238281 -9.363281 5.21875 -9.875 C 5.207031 -10.394531 5.019531 -10.550781 4.65625 -10.34375 C 4.289062 -10.144531 3.65625 -9.546875 2.75 -8.546875 C 1.457031 -7.179688 0.394531 -5.664062 -0.4375 -4 C -0.53125 -3.769531 -0.660156 -3.578125 -0.828125 -3.421875 C -1.003906 -3.265625 -1.226562 -3.171875 -1.5 -3.140625 C -1.75 -3.109375 -1.941406 -3.15625 -2.078125 -3.28125 C -2.210938 -3.40625 -2.242188 -3.59375 -2.171875 -3.84375 C -1.734375 -5.164062 -1.28125 -6.476562 -0.8125 -7.78125 C -0.0195312 -10.050781 0.765625 -12.304688 1.546875 -14.546875 C 2.109375 -16.234375 2.671875 -17.910156 3.234375 -19.578125 C 3.578125 -20.566406 3.921875 -21.554688 4.265625 -22.546875 C 4.285156 -22.640625 4.316406 -22.726562 4.359375 -22.8125 C 4.378906 -22.9375 4.410156 -23.050781 4.453125 -23.15625 C 4.492188 -23.269531 4.539062 -23.394531 4.59375 -23.53125 C 4.632812 -23.644531 4.734375 -23.738281 4.890625 -23.8125 C 5.046875 -23.894531 5.203125 -23.957031 5.359375 -24 C 5.515625 -24.039062 5.644531 -24.046875 5.75 -24.015625 C 5.882812 -23.929688 5.960938 -23.84375 5.984375 -23.75 C 6.015625 -23.664062 6.007812 -23.566406 5.96875 -23.453125 C 5.945312 -23.429688 5.9375 -23.398438 5.9375 -23.359375 C 5.800781 -22.753906 5.660156 -22.171875 5.515625 -21.609375 C 4.609375 -18.515625 3.578125 -15.453125 2.421875 -12.421875 C 2.335938 -12.210938 2.238281 -11.960938 2.125 -11.671875 C 1.945312 -11.253906 1.785156 -10.847656 1.640625 -10.453125 C 1.492188 -10.054688 1.460938 -9.796875 1.546875 -9.671875 C 1.628906 -9.554688 1.90625 -9.6875 2.375 -10.0625 C 2.519531 -10.1875 2.65625 -10.3125 2.78125 -10.4375 C 3.144531 -10.75 3.515625 -11.050781 3.890625 -11.34375 C 4.210938 -11.601562 4.585938 -11.769531 5.015625 -11.84375 C 6.023438 -12.019531 6.648438 -11.617188 6.890625 -10.640625 C 6.984375 -10.253906 7.007812 -9.863281 6.96875 -9.46875 C 6.9375 -9.070312 6.882812 -8.671875 6.8125 -8.265625 C 6.800781 -8.160156 6.796875 -8.050781 6.796875 -7.9375 C 6.691406 -7.269531 6.773438 -6.898438 7.046875 -6.828125 C 7.328125 -6.765625 7.691406 -6.859375 8.140625 -7.109375 C 8.597656 -7.367188 9.0625 -7.664062 9.53125 -8 C 9.863281 -8.207031 10.148438 -8.390625 10.390625 -8.546875 C 10.628906 -8.710938 10.816406 -8.789062 10.953125 -8.78125 C 11.191406 -8.757812 11.304688 -8.671875 11.296875 -8.515625 C 11.296875 -8.367188 11.226562 -8.210938 11.09375 -8.046875 Z M 11.09375 -8.046875 "/></g></g></g><g fill="#000000" fill-opacity="1"><g transform="translate(108.858411, 89.287932)"><g><path d="M 9.765625 -8.546875 C 10.003906 -8.441406 10.050781 -8.128906 9.90625 -7.609375 C 9.664062 -7.210938 9.40625 -6.835938 9.125 -6.484375 C 8.84375 -6.128906 8.53125 -5.800781 8.1875 -5.5 C 8.15625 -5.488281 8.140625 -5.476562 8.140625 -5.46875 C 7.898438 -5.269531 7.644531 -5.085938 7.375 -4.921875 C 5.132812 -3.847656 3.898438 -4.210938 3.671875 -6.015625 C 2.816406 -5.097656 2.238281 -4.53125 1.9375 -4.3125 C 1.226562 -3.78125 0.414062 -3.488281 -0.5 -3.4375 C -1.15625 -3.40625 -1.617188 -3.554688 -1.890625 -3.890625 C -2.171875 -4.222656 -2.203125 -4.71875 -1.984375 -5.375 C -1.671875 -6.40625 -1.160156 -7.347656 -0.453125 -8.203125 C 0.367188 -9.160156 1.320312 -9.953125 2.40625 -10.578125 C 2.96875 -10.941406 3.582031 -11.128906 4.25 -11.140625 C 4.925781 -11.171875 5.367188 -10.84375 5.578125 -10.15625 C 5.648438 -9.945312 5.613281 -9.75 5.46875 -9.5625 C 5.28125 -9.34375 5.039062 -9.273438 4.75 -9.359375 C 4.726562 -9.359375 4.695312 -9.359375 4.65625 -9.359375 C 4.625 -9.359375 4.59375 -9.367188 4.5625 -9.390625 C 4.238281 -9.753906 3.9375 -9.890625 3.65625 -9.796875 C 3.382812 -9.703125 3.101562 -9.539062 2.8125 -9.3125 C 1.40625 -8.257812 0.421875 -6.921875 -0.140625 -5.296875 C -0.171875 -5.210938 -0.1875 -5.128906 -0.1875 -5.046875 C -0.1875 -4.960938 -0.15625 -4.898438 -0.09375 -4.859375 C 0.0820312 -4.828125 0.273438 -4.863281 0.484375 -4.96875 C 0.691406 -5.070312 0.890625 -5.21875 1.078125 -5.40625 C 1.273438 -5.59375 1.441406 -5.742188 1.578125 -5.859375 C 1.597656 -5.890625 1.609375 -5.90625 1.609375 -5.90625 C 2.253906 -6.582031 2.878906 -7.265625 3.484375 -7.953125 C 3.753906 -8.304688 4.113281 -8.523438 4.5625 -8.609375 C 5.207031 -8.679688 5.503906 -8.421875 5.453125 -7.828125 C 5.421875 -7.609375 5.378906 -7.394531 5.328125 -7.1875 C 5.179688 -6.226562 5.234375 -5.679688 5.484375 -5.546875 C 5.734375 -5.410156 6.085938 -5.445312 6.546875 -5.65625 C 7.015625 -5.875 7.460938 -6.234375 7.890625 -6.734375 C 8.316406 -7.242188 8.675781 -7.695312 8.96875 -8.09375 C 9.257812 -8.5 9.523438 -8.648438 9.765625 -8.546875 Z M 9.765625 -8.546875 "/></g></g></g><g fill="#000000" fill-opacity="1"><g transform="translate(118.510789, 88.249048)"><g><path d="M 10.765625 -8.515625 C 10.941406 -8.328125 10.785156 -7.945312 10.296875 -7.375 C 9.804688 -6.8125 9.269531 -6.316406 8.6875 -5.890625 C 8.113281 -5.472656 7.441406 -5.050781 6.671875 -4.625 C 6.171875 -4.332031 5.613281 -4.191406 5 -4.203125 C 4.382812 -4.222656 4.039062 -4.554688 3.96875 -5.203125 C 3.90625 -5.859375 3.988281 -6.519531 4.21875 -7.1875 C 4.445312 -7.875 4.472656 -8.21875 4.296875 -8.21875 C 4.128906 -8.226562 3.796875 -8.03125 3.296875 -7.625 C 2.003906 -6.570312 0.828125 -5.390625 -0.234375 -4.078125 C -0.515625 -3.660156 -0.90625 -3.40625 -1.40625 -3.3125 C -1.644531 -3.28125 -1.84375 -3.335938 -2 -3.484375 C -2.15625 -3.628906 -2.191406 -3.800781 -2.109375 -4 C -1.421875 -5.675781 -0.722656 -7.332031 -0.015625 -8.96875 C 0.148438 -9.3125 0.414062 -9.535156 0.78125 -9.640625 C 0.945312 -9.691406 1.101562 -9.660156 1.25 -9.546875 C 1.40625 -9.441406 1.492188 -9.304688 1.515625 -9.140625 C 1.523438 -8.984375 1.484375 -8.789062 1.390625 -8.5625 C 1.359375 -8.425781 1.320312 -8.296875 1.28125 -8.171875 C 1.25 -8.054688 1.242188 -7.960938 1.265625 -7.890625 C 1.296875 -7.816406 1.363281 -7.796875 1.46875 -7.828125 C 1.601562 -7.921875 1.738281 -8.019531 1.875 -8.125 C 2.226562 -8.382812 2.566406 -8.628906 2.890625 -8.859375 C 3.160156 -9.066406 3.453125 -9.253906 3.765625 -9.421875 C 4.085938 -9.597656 4.425781 -9.734375 4.78125 -9.828125 C 5.363281 -9.921875 5.789062 -9.828125 6.0625 -9.546875 C 6.332031 -9.273438 6.40625 -8.863281 6.28125 -8.3125 C 6.132812 -7.800781 5.984375 -7.300781 5.828125 -6.8125 C 5.617188 -6.332031 5.613281 -5.984375 5.8125 -5.765625 C 6.007812 -5.554688 6.785156 -5.910156 8.140625 -6.828125 L 9.171875 -7.59375 C 10.128906 -8.363281 10.660156 -8.671875 10.765625 -8.515625 Z M 10.765625 -8.515625 "/></g></g></g><g fill="#000000" fill-opacity="1"><g transform="translate(129.182272, 87.100479)"><g><path d="M 10.5 -8.640625 C 10.582031 -8.546875 10.609375 -8.441406 10.578125 -8.328125 C 10.554688 -8.210938 10.492188 -8.109375 10.390625 -8.015625 C 9.785156 -7.347656 9.09375 -6.785156 8.3125 -6.328125 C 6.957031 -5.515625 5.507812 -4.941406 3.96875 -4.609375 C 2.769531 -4.367188 1.59375 -4.429688 0.4375 -4.796875 C 0.0078125 -4.941406 -0.28125 -4.8125 -0.4375 -4.40625 C -0.65625 -3.851562 -0.882812 -3.289062 -1.125 -2.71875 C -1.25 -2.40625 -1.378906 -2.078125 -1.515625 -1.734375 C -1.535156 -1.691406 -1.546875 -1.648438 -1.546875 -1.609375 C -1.609375 -1.484375 -1.664062 -1.367188 -1.71875 -1.265625 C -1.769531 -1.171875 -1.875 -1.097656 -2.03125 -1.046875 C -2.09375 -1.015625 -2.164062 -0.992188 -2.25 -0.984375 C -2.34375 -0.972656 -2.429688 -0.988281 -2.515625 -1.03125 C -2.566406 -1.0625 -2.617188 -1.113281 -2.671875 -1.1875 C -2.734375 -1.257812 -2.769531 -1.34375 -2.78125 -1.4375 C -2.738281 -1.726562 -2.671875 -2.015625 -2.578125 -2.296875 C -2.367188 -2.953125 -2.164062 -3.59375 -1.96875 -4.21875 C -1.476562 -5.820312 -0.945312 -7.414062 -0.375 -9 C 1.195312 -13.332031 2.660156 -17.703125 4.015625 -22.109375 C 4.117188 -22.523438 4.273438 -22.910156 4.484375 -23.265625 C 4.648438 -23.523438 4.914062 -23.617188 5.28125 -23.546875 C 5.644531 -23.441406 5.78125 -23.203125 5.6875 -22.828125 C 5.519531 -22.078125 5.34375 -21.328125 5.15625 -20.578125 C 4.15625 -17.109375 3.03125 -13.679688 1.78125 -10.296875 C 1.507812 -9.578125 1.429688 -9.128906 1.546875 -8.953125 C 1.671875 -8.785156 1.90625 -8.796875 2.25 -8.984375 C 2.59375 -9.179688 2.984375 -9.425781 3.421875 -9.71875 C 3.742188 -9.945312 4.070312 -10.15625 4.40625 -10.34375 C 4.457031 -10.394531 4.515625 -10.4375 4.578125 -10.46875 C 4.960938 -10.738281 5.382812 -10.910156 5.84375 -10.984375 C 6.03125 -11.003906 6.175781 -10.9375 6.28125 -10.78125 C 6.34375 -10.675781 6.359375 -10.582031 6.328125 -10.5 C 6.296875 -10.414062 6.242188 -10.351562 6.171875 -10.3125 C 5.503906 -9.8125 4.816406 -9.320312 4.109375 -8.84375 C 3.753906 -8.644531 3.394531 -8.429688 3.03125 -8.203125 C 2.675781 -7.984375 2.320312 -7.753906 1.96875 -7.515625 C 1.738281 -7.335938 1.523438 -7.144531 1.328125 -6.9375 C 0.890625 -6.375 0.992188 -5.953125 1.640625 -5.671875 C 2.148438 -5.503906 2.65625 -5.441406 3.15625 -5.484375 C 3.65625 -5.535156 4.148438 -5.648438 4.640625 -5.828125 C 6.128906 -6.335938 7.503906 -7.050781 8.765625 -7.96875 C 8.867188 -8.039062 8.972656 -8.109375 9.078125 -8.171875 C 9.304688 -8.347656 9.554688 -8.519531 9.828125 -8.6875 C 9.941406 -8.738281 10.0625 -8.765625 10.1875 -8.765625 C 10.3125 -8.773438 10.414062 -8.734375 10.5 -8.640625 Z M 10.5 -8.640625 "/></g></g></g><g fill="#000000" fill-opacity="1"><g transform="translate(139.43155, 85.997351)"><g><path d="M 9.765625 -8.546875 C 10.003906 -8.441406 10.050781 -8.128906 9.90625 -7.609375 C 9.664062 -7.210938 9.40625 -6.835938 9.125 -6.484375 C 8.84375 -6.128906 8.53125 -5.800781 8.1875 -5.5 C 8.15625 -5.488281 8.140625 -5.476562 8.140625 -5.46875 C 7.898438 -5.269531 7.644531 -5.085938 7.375 -4.921875 C 5.132812 -3.847656 3.898438 -4.210938 3.671875 -6.015625 C 2.816406 -5.097656 2.238281 -4.53125 1.9375 -4.3125 C 1.226562 -3.78125 0.414062 -3.488281 -0.5 -3.4375 C -1.15625 -3.40625 -1.617188 -3.554688 -1.890625 -3.890625 C -2.171875 -4.222656 -2.203125 -4.71875 -1.984375 -5.375 C -1.671875 -6.40625 -1.160156 -7.347656 -0.453125 -8.203125 C 0.367188 -9.160156 1.320312 -9.953125 2.40625 -10.578125 C 2.96875 -10.941406 3.582031 -11.128906 4.25 -11.140625 C 4.925781 -11.171875 5.367188 -10.84375 5.578125 -10.15625 C 5.648438 -9.945312 5.613281 -9.75 5.46875 -9.5625 C 5.28125 -9.34375 5.039062 -9.273438 4.75 -9.359375 C 4.726562 -9.359375 4.695312 -9.359375 4.65625 -9.359375 C 4.625 -9.359375 4.59375 -9.367188 4.5625 -9.390625 C 4.238281 -9.753906 3.9375 -9.890625 3.65625 -9.796875 C 3.382812 -9.703125 3.101562 -9.539062 2.8125 -9.3125 C 1.40625 -8.257812 0.421875 -6.921875 -0.140625 -5.296875 C -0.171875 -5.210938 -0.1875 -5.128906 -0.1875 -5.046875 C -0.1875 -4.960938 -0.15625 -4.898438 -0.09375 -4.859375 C 0.0820312 -4.828125 0.273438 -4.863281 0.484375 -4.96875 C 0.691406 -5.070312 0.890625 -5.21875 1.078125 -5.40625 C 1.273438 -5.59375 1.441406 -5.742188 1.578125 -5.859375 C 1.597656 -5.890625 1.609375 -5.90625 1.609375 -5.90625 C 2.253906 -6.582031 2.878906 -7.265625 3.484375 -7.953125 C 3.753906 -8.304688 4.113281 -8.523438 4.5625 -8.609375 C 5.207031 -8.679688 5.503906 -8.421875 5.453125 -7.828125 C 5.421875 -7.609375 5.378906 -7.394531 5.328125 -7.1875 C 5.179688 -6.226562 5.234375 -5.679688 5.484375 -5.546875 C 5.734375 -5.410156 6.085938 -5.445312 6.546875 -5.65625 C 7.015625 -5.875 7.460938 -6.234375 7.890625 -6.734375 C 8.316406 -7.242188 8.675781 -7.695312 8.96875 -8.09375 C 9.257812 -8.5 9.523438 -8.648438 9.765625 -8.546875 Z M 9.765625 -8.546875 "/></g></g></g><g fill="#000000" fill-opacity="1"><g transform="translate(149.083928, 84.958468)"><g><path d="M 6.015625 -9.6875 C 6.003906 -9.007812 5.738281 -8.539062 5.21875 -8.28125 C 4.695312 -8.019531 4.488281 -8.265625 4.59375 -9.015625 C 4.707031 -9.773438 4.359375 -9.925781 3.546875 -9.46875 C 2.734375 -9.019531 2.082031 -8.488281 1.59375 -7.875 C 0.832031 -6.914062 0.171875 -5.890625 -0.390625 -4.796875 C -0.441406 -4.703125 -0.484375 -4.625 -0.515625 -4.5625 C -0.691406 -4.257812 -0.859375 -3.976562 -1.015625 -3.71875 C -1.128906 -3.519531 -1.265625 -3.390625 -1.421875 -3.328125 C -1.585938 -3.273438 -1.757812 -3.25 -1.9375 -3.25 C -2.101562 -3.25 -2.234375 -3.300781 -2.328125 -3.40625 C -2.429688 -3.507812 -2.460938 -3.632812 -2.421875 -3.78125 C -2.328125 -4.039062 -2.222656 -4.316406 -2.109375 -4.609375 C -1.421875 -6.328125 -0.710938 -8.050781 0.015625 -9.78125 C 0.0351562 -9.789062 0.046875 -9.804688 0.046875 -9.828125 C 0.148438 -10.109375 0.269531 -10.363281 0.40625 -10.59375 C 0.582031 -10.832031 0.800781 -10.941406 1.0625 -10.921875 C 1.320312 -10.910156 1.503906 -10.78125 1.609375 -10.53125 C 1.765625 -10.195312 1.882812 -10.015625 1.96875 -9.984375 C 2.050781 -9.953125 2.222656 -10 2.484375 -10.125 C 3.035156 -10.40625 3.582031 -10.617188 4.125 -10.765625 C 4.675781 -10.921875 5.132812 -10.945312 5.5 -10.84375 C 5.863281 -10.75 6.035156 -10.363281 6.015625 -9.6875 Z M 6.015625 -9.6875 "/></g></g></g><g fill="#000000" fill-opacity="1"><g transform="translate(156.363244, 84.174997)"><g/></g></g><g fill="#000000" fill-opacity="1"><g transform="translate(167.36957, 82.990388)"><g><path d="M 70.703125 -50.125 C 70.992188 -49.945312 71.253906 -49.734375 71.484375 -49.484375 C 71.710938 -49.234375 71.878906 -48.929688 71.984375 -48.578125 C 72.085938 -48.160156 71.96875 -47.832031 71.625 -47.59375 C 71.425781 -47.457031 71.21875 -47.414062 71 -47.46875 C 70.789062 -47.53125 70.632812 -47.671875 70.53125 -47.890625 C 70.21875 -48.515625 69.804688 -48.984375 69.296875 -49.296875 C 68.796875 -49.617188 68.25 -49.890625 67.65625 -50.109375 C 66.375 -50.628906 65.054688 -51.019531 63.703125 -51.28125 C 62.359375 -51.550781 61.007812 -51.757812 59.65625 -51.90625 C 57.394531 -52.144531 54.425781 -52.132812 50.75 -51.875 C 47.082031 -51.625 43.007812 -51.128906 38.53125 -50.390625 C 34.0625 -49.660156 29.507812 -48.6875 24.875 -47.46875 C 20.25 -46.257812 15.847656 -44.796875 11.671875 -43.078125 C 7.503906 -41.367188 3.890625 -39.40625 0.828125 -37.1875 C -2.222656 -34.976562 -4.410156 -32.53125 -5.734375 -29.84375 C -6.847656 -27.5 -6.875 -25.148438 -5.8125 -22.796875 C -5.039062 -21.179688 -4.039062 -19.75 -2.8125 -18.5 C -0.96875 -16.625 1.03125 -14.941406 3.1875 -13.453125 C 5.007812 -12.117188 6.847656 -10.785156 8.703125 -9.453125 C 10.503906 -8.171875 12.3125 -6.875 14.125 -5.5625 C 16.144531 -4.0625 18.132812 -2.546875 20.09375 -1.015625 C 20.28125 -0.867188 20.460938 -0.726562 20.640625 -0.59375 C 21.703125 0.195312 22.65625 1.097656 23.5 2.109375 C 24.375 3.273438 24.617188 4.222656 24.234375 4.953125 C 23.859375 5.691406 23.035156 6.25 21.765625 6.625 C 20.503906 7.007812 19.015625 7.25 17.296875 7.34375 C 15.578125 7.4375 13.832031 7.40625 12.0625 7.25 C 10.289062 7.101562 8.707031 6.867188 7.3125 6.546875 C 5.914062 6.234375 4.914062 5.859375 4.3125 5.421875 C 3.082031 4.503906 2.894531 3.421875 3.75 2.171875 C 4.644531 0.890625 5.816406 -0.0976562 7.265625 -0.796875 C 9.335938 -1.867188 11.523438 -2.171875 13.828125 -1.703125 C 14.265625 -1.597656 14.6875 -1.441406 15.09375 -1.234375 C 15.132812 -1.210938 15.171875 -1.1875 15.203125 -1.15625 C 15.316406 -1.113281 15.398438 -1.035156 15.453125 -0.921875 C 15.503906 -0.804688 15.5 -0.679688 15.4375 -0.546875 C 15.28125 -0.316406 15.078125 -0.226562 14.828125 -0.28125 C 14.578125 -0.34375 14.335938 -0.421875 14.109375 -0.515625 C 12.492188 -1.128906 10.894531 -1.125 9.3125 -0.5 C 7.738281 0.125 6.46875 1.15625 5.5 2.59375 C 5.070312 3.28125 5.101562 3.84375 5.59375 4.28125 C 6.082031 4.71875 6.796875 5.054688 7.734375 5.296875 C 8.671875 5.535156 9.601562 5.695312 10.53125 5.78125 C 11.457031 5.863281 12.148438 5.921875 12.609375 5.953125 C 12.703125 5.941406 12.765625 5.941406 12.796875 5.953125 C 12.890625 5.941406 12.992188 5.941406 13.109375 5.953125 C 13.691406 6.015625 14.488281 6.0625 15.5 6.09375 C 16.519531 6.125 17.5625 6.109375 18.625 6.046875 C 19.6875 5.992188 20.582031 5.828125 21.3125 5.546875 C 22.050781 5.273438 22.441406 4.859375 22.484375 4.296875 C 22.523438 3.734375 22.015625 2.957031 20.953125 1.96875 C 19.828125 0.925781 18.65625 -0.0703125 17.4375 -1.03125 C 14.363281 -3.4375 11.226562 -5.738281 8.03125 -7.9375 C 6.875 -8.78125 5.722656 -9.613281 4.578125 -10.4375 C 2.660156 -11.820312 0.769531 -13.25 -1.09375 -14.71875 C -2.820312 -16.0625 -4.378906 -17.582031 -5.765625 -19.28125 C -6.765625 -20.5 -7.519531 -21.847656 -8.03125 -23.328125 C -8.8125 -25.773438 -8.597656 -28.140625 -7.390625 -30.421875 C -6.066406 -32.941406 -4.007812 -35.273438 -1.21875 -37.421875 C 1.570312 -39.578125 4.867188 -41.515625 8.671875 -43.234375 C 12.484375 -44.953125 16.570312 -46.453125 20.9375 -47.734375 C 25.3125 -49.015625 29.753906 -50.066406 34.265625 -50.890625 C 38.773438 -51.722656 43.117188 -52.304688 47.296875 -52.640625 C 51.484375 -52.984375 55.300781 -53.070312 58.75 -52.90625 C 62.195312 -52.75 65.050781 -52.328125 67.3125 -51.640625 C 68.507812 -51.316406 69.640625 -50.8125 70.703125 -50.125 Z M 70.703125 -50.125 "/></g></g></g><g fill="#000000" fill-opacity="1"><g transform="translate(188.833344, 80.680247)"><g/></g></g><g fill="#000000" fill-opacity="1"><g transform="translate(199.83967, 79.495638)"><g/></g></g><g fill="#000000" fill-opacity="1"><g transform="translate(210.854598, 78.310104)"><g><path d="M 54.203125 -44.171875 C 55.429688 -41.609375 55.519531 -38.9375 54.46875 -36.15625 C 54.351562 -35.882812 54.21875 -35.632812 54.0625 -35.40625 C 53.914062 -35.1875 53.679688 -35.023438 53.359375 -34.921875 C 53.148438 -34.859375 52.957031 -34.890625 52.78125 -35.015625 C 52.601562 -35.140625 52.523438 -35.296875 52.546875 -35.484375 C 52.628906 -35.867188 52.71875 -36.238281 52.8125 -36.59375 C 52.863281 -36.78125 52.921875 -36.957031 52.984375 -37.125 C 53.453125 -39.03125 53.378906 -40.851562 52.765625 -42.59375 C 52.066406 -44.601562 50.691406 -45.820312 48.640625 -46.25 C 47.441406 -46.476562 46.253906 -46.539062 45.078125 -46.4375 C 43.898438 -46.34375 42.71875 -46.125 41.53125 -45.78125 C 37.90625 -44.695312 34.40625 -43.234375 31.03125 -41.390625 C 25.84375 -38.597656 20.972656 -35.296875 16.421875 -31.484375 C 12.492188 -28.203125 9.046875 -24.46875 6.078125 -20.28125 C 5.054688 -18.832031 4.148438 -17.3125 3.359375 -15.71875 C 2.566406 -14.132812 1.96875 -12.46875 1.5625 -10.71875 C 1.195312 -8.976562 1.113281 -7.253906 1.3125 -5.546875 C 1.570312 -3.710938 2.203125 -2.191406 3.203125 -0.984375 C 4.210938 0.222656 5.484375 1.046875 7.015625 1.484375 C 8.554688 1.929688 10.222656 1.90625 12.015625 1.40625 C 14.316406 0.75 16.445312 -0.332031 18.40625 -1.84375 C 19.5625 -2.707031 20.628906 -3.65625 21.609375 -4.6875 C 22.597656 -5.71875 23.539062 -6.800781 24.4375 -7.9375 C 26.570312 -10.71875 28.4375 -13.671875 30.03125 -16.796875 C 30.957031 -18.640625 31.675781 -20.566406 32.1875 -22.578125 C 32.21875 -22.648438 32.238281 -22.726562 32.25 -22.8125 C 32.382812 -23.28125 32.53125 -23.734375 32.6875 -24.171875 C 32.96875 -24.816406 33.472656 -25.132812 34.203125 -25.125 C 34.660156 -25.125 34.9375 -24.894531 35.03125 -24.4375 C 35.101562 -23.757812 35.046875 -23.070312 34.859375 -22.375 C 33.734375 -17.570312 32.46875 -12.796875 31.0625 -8.046875 C 31.03125 -7.941406 30.992188 -7.828125 30.953125 -7.703125 C 30.867188 -7.492188 30.800781 -7.28125 30.75 -7.0625 C 30.726562 -7 30.710938 -6.929688 30.703125 -6.859375 C 30.617188 -6.597656 30.582031 -6.320312 30.59375 -6.03125 C 30.601562 -5.925781 30.648438 -5.847656 30.734375 -5.796875 C 30.816406 -5.753906 30.910156 -5.71875 31.015625 -5.6875 C 31.148438 -5.65625 31.257812 -5.609375 31.34375 -5.546875 C 31.375 -5.546875 31.40625 -5.53125 31.4375 -5.5 C 31.5 -5.445312 31.550781 -5.390625 31.59375 -5.328125 C 31.644531 -5.273438 31.640625 -5.191406 31.578125 -5.078125 C 31.523438 -4.960938 31.4375 -4.863281 31.3125 -4.78125 C 31.1875 -4.695312 31.054688 -4.648438 30.921875 -4.640625 C 30.503906 -4.640625 30.1875 -4.515625 29.96875 -4.265625 C 29.757812 -4.023438 29.597656 -3.71875 29.484375 -3.34375 C 29.035156 -2.070312 28.582031 -0.804688 28.125 0.453125 C 27.15625 3.109375 26.023438 5.71875 24.734375 8.28125 C 23.941406 9.875 23.019531 11.394531 21.96875 12.84375 C 20.882812 14.394531 19.539062 15.648438 17.9375 16.609375 C 17.0625 17.148438 16.144531 17.488281 15.1875 17.625 C 14.09375 17.832031 13.164062 17.671875 12.40625 17.140625 C 11.65625 16.609375 11.171875 15.789062 10.953125 14.6875 C 10.785156 13.757812 10.8125 12.804688 11.03125 11.828125 C 11.5 9.941406 12.304688 8.210938 13.453125 6.640625 C 16.359375 2.492188 20.007812 -0.75 24.40625 -3.09375 C 25.144531 -3.476562 25.878906 -3.832031 26.609375 -4.15625 C 26.703125 -4.207031 26.800781 -4.242188 26.90625 -4.265625 C 27.457031 -4.492188 27.835938 -4.894531 28.046875 -5.46875 C 28.210938 -6.050781 28.390625 -6.628906 28.578125 -7.203125 C 29.140625 -8.765625 29.585938 -10.347656 29.921875 -11.953125 C 29.929688 -12.015625 29.925781 -12.054688 29.90625 -12.078125 C 29.863281 -12.097656 29.84375 -12.117188 29.84375 -12.140625 C 29.613281 -12.078125 29.4375 -11.960938 29.3125 -11.796875 C 29.195312 -11.628906 29.078125 -11.453125 28.953125 -11.265625 C 28.910156 -11.160156 28.851562 -11.050781 28.78125 -10.9375 C 27.351562 -8.78125 25.78125 -6.738281 24.0625 -4.8125 C 21.976562 -2.46875 19.585938 -0.566406 16.890625 0.890625 C 15.359375 1.691406 13.789062 2.28125 12.1875 2.65625 C 10.582031 3.039062 8.945312 3.164062 7.28125 3.03125 C 5.375 2.84375 3.703125 2.101562 2.265625 0.8125 C 0.835938 -0.46875 -0.125 -2.171875 -0.625 -4.296875 C -0.914062 -5.628906 -1.007812 -6.960938 -0.90625 -8.296875 C -0.800781 -9.628906 -0.535156 -10.96875 -0.109375 -12.3125 C 0.367188 -13.820312 0.972656 -15.265625 1.703125 -16.640625 C 2.429688 -18.015625 3.253906 -19.359375 4.171875 -20.671875 C 7.410156 -25.242188 11.21875 -29.289062 15.59375 -32.8125 C 18.707031 -35.351562 21.953125 -37.664062 25.328125 -39.75 C 28.703125 -41.832031 32.222656 -43.640625 35.890625 -45.171875 C 37.484375 -45.867188 39.117188 -46.441406 40.796875 -46.890625 C 42.484375 -47.335938 44.1875 -47.617188 45.90625 -47.734375 C 47.707031 -47.867188 49.429688 -47.640625 51.078125 -47.046875 C 52.515625 -46.492188 53.554688 -45.535156 54.203125 -44.171875 Z M 26.90625 -2.421875 C 26.9375 -2.578125 26.90625 -2.703125 26.8125 -2.796875 C 26.71875 -2.890625 26.59375 -2.898438 26.4375 -2.828125 C 26.101562 -2.691406 25.785156 -2.539062 25.484375 -2.375 C 21.734375 -0.226562 18.53125 2.578125 15.875 6.046875 C 14.914062 7.304688 14.125 8.65625 13.5 10.09375 C 13.03125 11.113281 12.800781 12.285156 12.8125 13.609375 C 12.8125 13.628906 12.816406 13.671875 12.828125 13.734375 C 12.828125 13.910156 12.851562 14.132812 12.90625 14.40625 C 13.113281 15.382812 13.519531 16.003906 14.125 16.265625 C 14.726562 16.535156 15.484375 16.429688 16.390625 15.953125 C 17.671875 15.179688 18.765625 14.175781 19.671875 12.9375 C 20.816406 11.445312 21.789062 9.867188 22.59375 8.203125 C 23.425781 6.585938 24.175781 4.9375 24.84375 3.25 C 25.519531 1.570312 26.148438 -0.113281 26.734375 -1.8125 C 26.796875 -2.019531 26.851562 -2.210938 26.90625 -2.390625 C 26.90625 -2.410156 26.90625 -2.421875 26.90625 -2.421875 Z M 26.90625 -2.421875 "/></g></g></g><g fill="#000000" fill-opacity="1"><g transform="translate(248.2994, 74.279928)"><g><path d="M 1.9375 -3.703125 L 1.890625 -3.703125 C 0.484375 -3.566406 -0.472656 -3.773438 -0.984375 -4.328125 C -1.492188 -4.890625 -1.5625 -5.703125 -1.1875 -6.765625 C -0.863281 -7.578125 -0.421875 -8.300781 0.140625 -8.9375 C 0.328125 -9.164062 0.523438 -9.34375 0.734375 -9.46875 C 0.953125 -9.601562 1.203125 -9.6875 1.484375 -9.71875 C 1.648438 -9.769531 1.84375 -9.769531 2.0625 -9.71875 C 2.132812 -9.707031 2.207031 -9.691406 2.28125 -9.671875 C 2.445312 -9.710938 2.601562 -9.773438 2.75 -9.859375 C 2.789062 -9.890625 2.835938 -9.921875 2.890625 -9.953125 C 3.191406 -10.109375 3.523438 -10.195312 3.890625 -10.21875 C 4.035156 -10.238281 4.1875 -10.253906 4.34375 -10.265625 C 4.925781 -10.242188 5.378906 -10.050781 5.703125 -9.6875 C 6.035156 -9.332031 6.191406 -8.867188 6.171875 -8.296875 C 6.160156 -7.953125 6.09375 -7.625 5.96875 -7.3125 C 5.0625 -5.1875 3.75 -3.988281 2.03125 -3.71875 Z M 3.671875 -9.171875 C 2.910156 -9.117188 2.253906 -8.820312 1.703125 -8.28125 C 1.160156 -7.75 0.773438 -7.160156 0.546875 -6.515625 C 0.328125 -5.878906 0.300781 -5.367188 0.46875 -4.984375 C 0.644531 -4.597656 1.066406 -4.53125 1.734375 -4.78125 C 2.472656 -5.09375 3.097656 -5.597656 3.609375 -6.296875 C 4.128906 -7.003906 4.421875 -7.65625 4.484375 -8.25 C 4.554688 -8.84375 4.285156 -9.148438 3.671875 -9.171875 Z M 3.671875 -9.171875 "/></g></g></g><g fill="#000000" fill-opacity="1"><g transform="translate(256.030039, 73.447881)"><g><path d="M 0.078125 -2.609375 C -0.847656 -2.515625 -1.363281 -2.953125 -1.46875 -3.921875 C -1.59375 -5.085938 -1.046875 -7.238281 0.171875 -10.375 C 0.203125 -10.5 0.296875 -10.570312 0.453125 -10.59375 C 1.066406 -10.65625 1.398438 -10.441406 1.453125 -9.953125 C 1.472656 -9.796875 1.445312 -9.582031 1.375 -9.3125 C 1.332031 -9.25 0.960938 -7.914062 0.265625 -5.3125 C 0.148438 -4.875 0.101562 -4.5625 0.125 -4.375 C 0.144531 -4.164062 0.25 -4.070312 0.4375 -4.09375 C 1.144531 -4.164062 2.816406 -6.125 5.453125 -9.96875 C 5.785156 -10.476562 6.140625 -10.753906 6.515625 -10.796875 C 7.078125 -10.859375 7.378906 -10.691406 7.421875 -10.296875 C 7.441406 -10.140625 7.335938 -9.53125 7.109375 -8.46875 C 6.785156 -7.03125 6.632812 -6.207031 6.65625 -6 C 6.6875 -5.675781 6.8125 -5.523438 7.03125 -5.546875 C 7.5625 -5.597656 9.019531 -6.710938 11.40625 -8.890625 C 11.53125 -9.046875 11.644531 -9.128906 11.75 -9.140625 C 11.988281 -9.160156 12.132812 -8.960938 12.1875 -8.546875 C 12.195312 -8.441406 12.171875 -8.351562 12.109375 -8.28125 C 10.878906 -6.957031 9.816406 -5.941406 8.921875 -5.234375 C 8.097656 -4.578125 7.347656 -4.210938 6.671875 -4.140625 L 6.46875 -4.125 C 5.445312 -4.226562 4.863281 -4.953125 4.71875 -6.296875 C 3.75 -5.242188 2.941406 -4.390625 2.296875 -3.734375 C 1.648438 -3.078125 0.910156 -2.703125 0.078125 -2.609375 Z M 0.078125 -2.609375 "/></g></g></g><g fill="#000000" fill-opacity="1"><g transform="translate(267.997234, 72.159854)"><g><path d="M 12.109375 -9.046875 C 12.316406 -9.015625 12.429688 -8.953125 12.453125 -8.859375 C 12.472656 -8.765625 12.484375 -8.71875 12.484375 -8.71875 C 12.296875 -8.289062 12.066406 -7.894531 11.796875 -7.53125 C 11.191406 -6.675781 10.457031 -5.96875 9.59375 -5.40625 C 9.1875 -5.125 8.695312 -4.941406 8.125 -4.859375 C 6.832031 -4.691406 6.164062 -5.257812 6.125 -6.5625 C 6.144531 -6.832031 6.175781 -7.109375 6.21875 -7.390625 C 6.257812 -7.503906 6.285156 -7.628906 6.296875 -7.765625 C 6.367188 -8.242188 6.375 -8.503906 6.3125 -8.546875 C 6.257812 -8.597656 6.125 -8.445312 5.90625 -8.09375 C 5.851562 -8.03125 5.796875 -7.960938 5.734375 -7.890625 C 5.398438 -7.390625 5.050781 -6.894531 4.6875 -6.40625 C 4.03125 -5.46875 3.253906 -4.65625 2.359375 -3.96875 C 1.816406 -3.5625 1.226562 -3.316406 0.59375 -3.234375 C -0.445312 -3.078125 -1.082031 -3.488281 -1.3125 -4.46875 C -1.414062 -4.882812 -1.445312 -5.296875 -1.40625 -5.703125 C -1.144531 -7.398438 -0.421875 -8.75 0.765625 -9.75 C 1.953125 -10.75 3.382812 -11.210938 5.0625 -11.140625 C 5.53125 -11.046875 5.851562 -11.207031 6.03125 -11.625 C 6.113281 -11.789062 6.1875 -11.953125 6.25 -12.109375 C 6.613281 -12.921875 6.96875 -13.734375 7.3125 -14.546875 C 7.957031 -16.109375 8.613281 -17.679688 9.28125 -19.265625 C 9.800781 -20.515625 10.328125 -21.769531 10.859375 -23.03125 C 11.015625 -23.425781 11.195312 -23.804688 11.40625 -24.171875 C 11.488281 -24.347656 11.609375 -24.457031 11.765625 -24.5 C 11.921875 -24.550781 12.085938 -24.585938 12.265625 -24.609375 C 12.304688 -24.609375 12.34375 -24.609375 12.375 -24.609375 C 12.570312 -24.628906 12.734375 -24.597656 12.859375 -24.515625 C 12.984375 -24.441406 13.023438 -24.320312 12.984375 -24.15625 C 12.898438 -23.726562 12.789062 -23.320312 12.65625 -22.9375 C 11.96875 -21.050781 11.320312 -19.148438 10.71875 -17.234375 C 10.125 -15.316406 9.546875 -13.394531 8.984375 -11.46875 C 8.785156 -10.800781 8.597656 -10.128906 8.421875 -9.453125 C 8.171875 -8.671875 7.984375 -7.878906 7.859375 -7.078125 C 7.816406 -6.890625 7.804688 -6.707031 7.828125 -6.53125 C 7.847656 -6.363281 7.945312 -6.226562 8.125 -6.125 C 8.238281 -6.0625 8.351562 -6.054688 8.46875 -6.109375 C 8.582031 -6.171875 8.707031 -6.238281 8.84375 -6.3125 C 8.851562 -6.34375 8.867188 -6.367188 8.890625 -6.390625 C 9.753906 -7.035156 10.535156 -7.769531 11.234375 -8.59375 C 11.335938 -8.726562 11.457031 -8.847656 11.59375 -8.953125 C 11.726562 -9.054688 11.898438 -9.085938 12.109375 -9.046875 Z M 4.8125 -9.21875 C 4.90625 -9.414062 4.921875 -9.59375 4.859375 -9.75 C 4.796875 -9.90625 4.671875 -10.003906 4.484375 -10.046875 C 4.109375 -10.203125 3.71875 -10.1875 3.3125 -10 C 2.351562 -9.601562 1.582031 -8.945312 1 -8.03125 C 0.414062 -7.113281 0.148438 -6.132812 0.203125 -5.09375 C 0.234375 -5.050781 0.25 -5.019531 0.25 -5 C 0.257812 -4.90625 0.269531 -4.816406 0.28125 -4.734375 C 0.414062 -4.285156 0.710938 -4.226562 1.171875 -4.5625 C 1.628906 -4.894531 2.125 -5.414062 2.65625 -6.125 C 3.195312 -6.84375 3.675781 -7.515625 4.09375 -8.140625 C 4.519531 -8.773438 4.757812 -9.132812 4.8125 -9.21875 Z M 4.8125 -9.21875 "/></g></g></g><g fill="#000000" fill-opacity="1"><g transform="translate(280.168251, 70.84989)"><g><path d="M 9.765625 -8.546875 C 10.003906 -8.441406 10.050781 -8.128906 9.90625 -7.609375 C 9.664062 -7.210938 9.40625 -6.835938 9.125 -6.484375 C 8.84375 -6.128906 8.53125 -5.800781 8.1875 -5.5 C 8.15625 -5.488281 8.140625 -5.476562 8.140625 -5.46875 C 7.898438 -5.269531 7.644531 -5.085938 7.375 -4.921875 C 5.132812 -3.847656 3.898438 -4.210938 3.671875 -6.015625 C 2.816406 -5.097656 2.238281 -4.53125 1.9375 -4.3125 C 1.226562 -3.78125 0.414062 -3.488281 -0.5 -3.4375 C -1.15625 -3.40625 -1.617188 -3.554688 -1.890625 -3.890625 C -2.171875 -4.222656 -2.203125 -4.71875 -1.984375 -5.375 C -1.671875 -6.40625 -1.160156 -7.347656 -0.453125 -8.203125 C 0.367188 -9.160156 1.320312 -9.953125 2.40625 -10.578125 C 2.96875 -10.941406 3.582031 -11.128906 4.25 -11.140625 C 4.925781 -11.171875 5.367188 -10.84375 5.578125 -10.15625 C 5.648438 -9.945312 5.613281 -9.75 5.46875 -9.5625 C 5.28125 -9.34375 5.039062 -9.273438 4.75 -9.359375 C 4.726562 -9.359375 4.695312 -9.359375 4.65625 -9.359375 C 4.625 -9.359375 4.59375 -9.367188 4.5625 -9.390625 C 4.238281 -9.753906 3.9375 -9.890625 3.65625 -9.796875 C 3.382812 -9.703125 3.101562 -9.539062 2.8125 -9.3125 C 1.40625 -8.257812 0.421875 -6.921875 -0.140625 -5.296875 C -0.171875 -5.210938 -0.1875 -5.128906 -0.1875 -5.046875 C -0.1875 -4.960938 -0.15625 -4.898438 -0.09375 -4.859375 C 0.0820312 -4.828125 0.273438 -4.863281 0.484375 -4.96875 C 0.691406 -5.070312 0.890625 -5.21875 1.078125 -5.40625 C 1.273438 -5.59375 1.441406 -5.742188 1.578125 -5.859375 C 1.597656 -5.890625 1.609375 -5.90625 1.609375 -5.90625 C 2.253906 -6.582031 2.878906 -7.265625 3.484375 -7.953125 C 3.753906 -8.304688 4.113281 -8.523438 4.5625 -8.609375 C 5.207031 -8.679688 5.503906 -8.421875 5.453125 -7.828125 C 5.421875 -7.609375 5.378906 -7.394531 5.328125 -7.1875 C 5.179688 -6.226562 5.234375 -5.679688 5.484375 -5.546875 C 5.734375 -5.410156 6.085938 -5.445312 6.546875 -5.65625 C 7.015625 -5.875 7.460938 -6.234375 7.890625 -6.734375 C 8.316406 -7.242188 8.675781 -7.695312 8.96875 -8.09375 C 9.257812 -8.5 9.523438 -8.648438 9.765625 -8.546875 Z M 9.765625 -8.546875 "/></g></g></g><g clip-path="url(#04ab5ddfc5)"><g clip-path="url(#c799b88ef8)"><g clip-path="url(#2ff37e8f1e)"><path fill="#000000" d="M 277.792969 101.351562 C 267.277344 102.371094 256.800781 103.675781 246.269531 104.542969 C 237.121094 105.300781 227.988281 106.199219 218.839844 106.957031 C 207.996094 107.855469 197.164062 108.824219 186.316406 109.601562 C 176.050781 110.335938 165.792969 111.148438 155.554688 112.175781 C 144.15625 113.3125 132.742188 114.21875 121.367188 115.601562 C 113.351562 116.574219 105.292969 117.179688 97.261719 118.035156 C 85.488281 119.289062 73.695312 120.25 61.863281 120.769531 C 60.867188 120.8125 59.15625 122.105469 58.949219 120.296875 C 58.730469 118.402344 60.773438 119.089844 61.820312 119.019531 C 65.855469 118.734375 69.902344 118.640625 73.945312 118.476562 C 80.621094 117.925781 87.296875 117.457031 93.957031 116.808594 C 102.871094 115.933594 111.773438 114.953125 120.683594 114.054688 C 126.601562 113.460938 132.523438 112.90625 138.449219 112.386719 C 150.96875 111.292969 163.484375 110.234375 176.003906 109.167969 C 180.183594 108.808594 184.367188 108.621094 188.542969 108.230469 C 198.421875 107.316406 208.335938 106.78125 218.230469 106 C 228.042969 105.226562 237.855469 104.394531 247.652344 103.480469 C 257.441406 102.570312 267.234375 101.664062 276.992188 100.488281 C 280.546875 100.054688 284.339844 100.246094 287.53125 98.066406 C 288.023438 97.734375 288.78125 97.574219 289.039062 98.261719 C 289.367188 99.140625 288.4375 99.335938 287.882812 99.53125 C 284.617188 100.671875 281.179688 101.035156 277.785156 101.359375 Z M 39.457031 112.957031 C 38.804688 113.050781 38.257812 113.273438 38.292969 113.988281 C 38.324219 114.796875 39.011719 114.785156 39.605469 114.75 C 40.414062 114.699219 41.226562 114.636719 42.019531 114.515625 C 48.023438 113.59375 54.003906 112.480469 60.03125 111.765625 C 67.828125 110.835938 75.652344 110.066406 83.488281 109.488281 C 100.058594 108.261719 116.640625 107.132812 133.226562 106.109375 C 143.652344 105.46875 154.0625 104.699219 164.476562 103.988281 C 175.921875 103.203125 187.359375 102.328125 198.8125 101.714844 C 212.105469 100.992188 225.371094 99.699219 237.742188 99.609375 C 249.582031 98.363281 260.574219 98.558594 271.417969 96.910156 C 272.039062 96.816406 272.957031 96.992188 272.851562 96.019531 C 272.734375 95.023438 271.914062 95.417969 271.28125 95.519531 C 267.539062 96.132812 263.820312 96.992188 260.050781 97.28125 C 253.96875 97.746094 247.867188 98.074219 241.773438 98.398438 C 223.851562 99.359375 205.929688 100.25 188.019531 101.527344 C 176.359375 102.359375 164.683594 103.046875 153.023438 103.839844 C 140.179688 104.714844 127.335938 105.472656 114.492188 106.296875 C 102.96875 107.03125 91.449219 107.78125 79.933594 108.570312 C 69.085938 109.320312 58.292969 110.507812 47.5 111.78125 C 44.8125 112.101562 42.136719 112.566406 39.457031 112.953125 Z M 39.457031 112.957031 " fill-opacity="1" fill-rule="nonzero"/></g></g></g></svg>