<svg xmlns="http://www.w3.org/2000/svg" xmlns:xlink="http://www.w3.org/1999/xlink" width="2000" zoomAndPan="magnify" viewBox="0 0 1500 1499.999933" height="2000" preserveAspectRatio="xMidYMid meet" version="1.0"><defs><g/><clipPath id="ae142ae8d6"><path d="M 495 474 L 1006 474 L 1006 1125 L 495 1125 Z M 495 474 " clip-rule="nonzero"/></clipPath><clipPath id="c4f87d49bb"><path d="M 929.644531 474.050781 L 1005.121094 1069.285156 L 570.597656 1124.382812 L 495.125 529.148438 Z M 929.644531 474.050781 " clip-rule="nonzero"/></clipPath><clipPath id="db8dda62f2"><path d="M 23 38 L 498 38 L 498 614 L 23 614 Z M 23 38 " clip-rule="nonzero"/></clipPath><clipPath id="9b54160d04"><path d="M 434.644531 0.0507812 L 510.121094 595.285156 L 75.597656 650.382812 L 0.125 55.148438 Z M 434.644531 0.0507812 " clip-rule="nonzero"/></clipPath><clipPath id="70de18066b"><path d="M -0.121094 55.179688 L 75.355469 650.414062 L 509.875 595.316406 L 434.402344 0.0820312 Z M -0.121094 55.179688 " clip-rule="nonzero"/></clipPath><clipPath id="589ecbe6b9"><path d="M -0.121094 55.179688 L 75.355469 650.414062 L 509.875 595.316406 L 434.402344 0.0820312 Z M -0.121094 55.179688 " clip-rule="nonzero"/></clipPath><clipPath id="9fedfeeedc"><rect x="0" width="511" y="0" height="651"/></clipPath><clipPath id="452b02b2d7"><rect x="0" width="980" y="0" height="328"/></clipPath></defs><g clip-path="url(#ae142ae8d6)"><g clip-path="url(#c4f87d49bb)"><g transform="matrix(1, 0, 0, 1, 495, 474)"><g clip-path="url(#9fedfeeedc)"><g clip-path="url(#db8dda62f2)"><g clip-path="url(#9b54160d04)"><g clip-path="url(#70de18066b)"><g clip-path="url(#589ecbe6b9)"><path fill="#000000" d="M 241.28125 416.742188 C 254.324219 413.828125 276.414062 403.59375 285.164062 393.316406 C 299.972656 375.945312 289.507812 345.597656 273.230469 332.53125 C 264.550781 325.570312 258.230469 322.722656 247.1875 326.089844 C 229.726562 331.429688 201.585938 371.164062 194.542969 388.050781 C 192.589844 392.738281 191.210938 397.585938 190.933594 402.664062 C 152.496094 400.527344 117.046875 380.964844 90.441406 353.925781 C 52.171875 315.019531 28.820312 259.386719 39.328125 204.1875 C 45.335938 172.699219 86.882812 102.0625 106.828125 75.132812 C 114.625 64.582031 124.851562 55.800781 131.953125 44.738281 C 133.316406 42.648438 135.664062 41.507812 134.542969 38.449219 C 131.480469 41.621094 125.417969 43.910156 122.726562 46.695312 C 121.167969 48.285156 121.171875 51.410156 120.675781 51.839844 C 120.269531 52.179688 117.886719 50.75 115.925781 51.863281 C 106.480469 57.265625 82.929688 90.558594 76.125 101.269531 C 63.085938 121.832031 44.511719 153.367188 35.402344 175.507812 C -8.492188 282.476562 78.910156 409.542969 189.710938 421.78125 C 191.136719 446.289062 202.503906 468.25 220.109375 484.953125 C 278.101562 540.082031 367.875 539.257812 440.640625 519.210938 C 425.386719 536.585938 405.574219 549.867188 388.816406 565.9375 C 382.125 572.355469 358.671875 594.605469 357.835938 602.511719 C 357.367188 606.878906 364.160156 616.996094 369.453125 611.542969 C 403.9375 574.238281 444.003906 537.457031 485.308594 507.765625 C 490.046875 504.355469 498.597656 503.902344 497.234375 496.039062 C 494.800781 482.007812 481.984375 483 471.183594 478.75 C 440.425781 466.605469 403.929688 452.007812 379.03125 429.949219 C 373.617188 425.148438 363.933594 410.039062 356.589844 412.179688 C 350.605469 421.917969 351.664062 423.203125 358.265625 431.402344 C 382.296875 461.316406 421.15625 471.542969 453.203125 488.28125 C 454.410156 488.914062 457.824219 488.507812 455.839844 491.699219 C 454.449219 493.976562 432.890625 501.964844 428.714844 503.203125 C 384.210938 516.359375 318.609375 519.632812 275.078125 501.75 C 240.046875 487.335938 207.6875 461.5 201.804688 421.746094 L 241.175781 416.753906 Z M 206.265625 402.453125 C 207.382812 387.894531 220.953125 370.914062 230.636719 360.125 C 244.671875 344.53125 258.871094 330.652344 275.015625 353.660156 C 283.472656 365.691406 280.648438 376.949219 269.214844 385.515625 C 265.113281 388.585938 238.941406 398.3125 233.878906 398.953125 L 206.238281 402.457031 Z M 251.496094 396.695312 L 248.164062 397.117188 L 247.953125 395.460938 L 251.285156 395.039062 Z M 251.496094 396.695312 " fill-opacity="1" fill-rule="nonzero"/></g></g></g></g></g></g></g></g><g transform="matrix(1, 0, 0, 1, 206, 175)"><g clip-path="url(#452b02b2d7)"><g fill="#ffffff" fill-opacity="1"><g transform="translate(5.664283, 252.318798)"><g><path d="M 76.476562 9.933594 C 50.203125 9.933594 29.96875 1.363281 15.777344 -15.769531 C 4.269531 -29.683594 -1.484375 -46.722656 -1.484375 -66.886719 L -1.484375 -67.800781 C -1.484375 -88.117188 4.269531 -105.230469 15.773438 -119.144531 C 29.8125 -136.128906 50.046875 -144.621094 76.476562 -144.621094 C 96.0625 -144.621094 112.371094 -140.117188 125.402344 -131.117188 C 138.945312 -121.761719 147.0625 -109.199219 149.75 -93.4375 L 151.453125 -83.4375 L 101.683594 -83.4375 L 100.839844 -91.054688 C 100.386719 -95.117188 98.425781 -98.210938 94.957031 -100.328125 C 90.46875 -103.070312 84.308594 -104.4375 76.476562 -104.4375 C 67.320312 -104.4375 60.140625 -101.230469 54.925781 -94.816406 C 49.28125 -87.867188 46.457031 -78.558594 46.457031 -66.886719 C 46.457031 -55.429688 49.285156 -46.351562 54.9375 -39.652344 C 60.230469 -33.382812 67.410156 -30.25 76.476562 -30.25 C 84.308594 -30.25 90.46875 -31.621094 94.957031 -34.359375 C 98.425781 -36.476562 100.386719 -39.570312 100.839844 -43.632812 L 101.683594 -51.25 L 151.472656 -51.25 L 149.746094 -41.234375 C 147.054688 -25.636719 138.90625 -13.121094 125.296875 -3.691406 C 112.1875 5.390625 95.914062 9.933594 76.476562 9.933594 Z M 76.476562 -7.191406 C 92.34375 -7.191406 105.367188 -10.71875 115.542969 -17.765625 C 125.21875 -24.46875 130.996094 -33.261719 132.871094 -44.144531 L 141.308594 -42.6875 L 141.308594 -34.128906 L 109.347656 -34.128906 L 109.347656 -42.6875 L 117.859375 -41.742188 C 116.789062 -32.113281 112.128906 -24.777344 103.878906 -19.742188 C 96.648438 -15.332031 87.515625 -13.125 76.476562 -13.125 C 62.105469 -13.125 50.5625 -18.285156 41.851562 -28.605469 C 33.507812 -38.496094 29.332031 -51.253906 29.332031 -66.886719 C 29.332031 -82.609375 33.433594 -95.519531 41.636719 -105.617188 C 50.273438 -116.246094 61.886719 -121.5625 76.476562 -121.5625 C 87.515625 -121.5625 96.648438 -119.355469 103.878906 -114.945312 C 112.128906 -109.910156 116.789062 -102.574219 117.859375 -92.945312 L 109.347656 -92 L 109.347656 -100.5625 L 141.308594 -100.5625 L 141.308594 -92 L 132.867188 -90.558594 C 130.988281 -101.582031 125.253906 -110.40625 115.667969 -117.027344 C 105.566406 -124.007812 92.5 -127.496094 76.476562 -127.496094 C 55.421875 -127.496094 39.585938 -121.074219 28.96875 -108.230469 C 20.082031 -97.484375 15.640625 -84.007812 15.640625 -67.800781 L 15.640625 -66.886719 C 15.640625 -50.832031 20.082031 -37.433594 28.964844 -26.691406 C 39.734375 -13.691406 55.570312 -7.191406 76.476562 -7.191406 Z M 76.476562 -7.191406 "/></g></g></g><g fill="#ffffff" fill-opacity="1"><g transform="translate(154.035987, 252.318798)"><g><path d="M 42.460938 9.933594 C 28.933594 9.933594 18.648438 5.179688 11.609375 -4.320312 C 5.164062 -13.023438 1.9375 -25.511719 1.9375 -41.777344 L 1.9375 -142.109375 L 49.882812 -142.109375 L 49.882812 -34.699219 C 49.882812 -32.746094 50.203125 -31.441406 50.839844 -30.777344 C 51.597656 -29.996094 53.15625 -29.503906 55.511719 -29.304688 L 63.351562 -28.640625 L 63.351562 7.65625 L 56.253906 8.890625 C 52.269531 9.585938 47.671875 9.933594 42.460938 9.933594 Z M 42.460938 -7.191406 C 46.6875 -7.191406 50.304688 -7.453125 53.320312 -7.980469 L 54.789062 0.457031 L 46.226562 0.457031 L 46.226562 -20.773438 L 54.789062 -20.773438 L 54.066406 -12.242188 C 47.441406 -12.804688 42.265625 -15.015625 38.53125 -18.875 C 34.683594 -22.855469 32.757812 -28.128906 32.757812 -34.699219 L 32.757812 -133.546875 L 41.320312 -133.546875 L 41.320312 -124.984375 L 10.5 -124.984375 L 10.5 -133.546875 L 19.0625 -133.546875 L 19.0625 -41.777344 C 19.0625 -29.277344 21.164062 -20.191406 25.371094 -14.511719 C 28.984375 -9.632812 34.683594 -7.191406 42.460938 -7.191406 Z M 42.460938 -7.191406 "/></g></g></g><g fill="#ffffff" fill-opacity="1"><g transform="translate(214.29772, 252.318798)"><g><path d="M 3.535156 -104.097656 L 3.535156 -142.109375 L 50.792969 -142.109375 L 50.792969 -95.535156 L 3.535156 -95.535156 Z M 20.660156 -104.097656 L 12.097656 -104.097656 L 12.097656 -112.660156 L 42.234375 -112.660156 L 42.234375 -104.097656 L 33.671875 -104.097656 L 33.671875 -133.546875 L 42.234375 -133.546875 L 42.234375 -124.984375 L 12.097656 -124.984375 L 12.097656 -133.546875 L 20.660156 -133.546875 Z M 3.082031 0 L 3.082031 -105.582031 L 51.023438 -105.582031 L 51.023438 8.5625 L 3.082031 8.5625 Z M 20.203125 0 L 11.640625 0 L 11.640625 -8.5625 L 42.460938 -8.5625 L 42.460938 0 L 33.898438 0 L 33.898438 -97.019531 L 42.460938 -97.019531 L 42.460938 -88.457031 L 11.640625 -88.457031 L 11.640625 -97.019531 L 20.203125 -97.019531 Z M 20.203125 0 "/></g></g></g><g fill="#ffffff" fill-opacity="1"><g transform="translate(268.396314, 252.318798)"><g><path d="M 64.605469 9.933594 C 43.433594 9.933594 27.152344 4.457031 15.753906 -6.496094 C 4.261719 -17.539062 -1.484375 -31.660156 -1.484375 -48.851562 C -1.484375 -66.03125 4.253906 -80.183594 15.730469 -91.300781 C 27.128906 -102.34375 43.421875 -107.867188 64.605469 -107.867188 C 83.070312 -107.867188 97.132812 -104.300781 106.785156 -97.175781 C 116.789062 -89.789062 122.96875 -79.023438 125.328125 -64.871094 L 126.988281 -54.902344 L 79.15625 -54.902344 L 77.695312 -61.648438 C 77.210938 -63.890625 76.179688 -65.515625 74.609375 -66.519531 C 72.4375 -67.90625 69.101562 -68.597656 64.605469 -68.597656 C 58.402344 -68.597656 53.863281 -67.066406 50.988281 -64 C 47.96875 -60.777344 46.457031 -55.726562 46.457031 -48.851562 C 46.457031 -42.003906 47.953125 -37.011719 50.945312 -33.871094 C 53.824219 -30.847656 58.375 -29.335938 64.605469 -29.335938 C 69.101562 -29.335938 72.4375 -30.027344 74.609375 -31.414062 C 76.179688 -32.417969 77.210938 -34.042969 77.695312 -36.285156 L 79.15625 -43.03125 L 126.988281 -43.03125 L 125.328125 -33.0625 C 122.972656 -18.925781 116.839844 -8.167969 106.929688 -0.78125 C 97.347656 6.359375 83.238281 9.933594 64.605469 9.933594 Z M 64.605469 -7.191406 C 79.453125 -7.191406 90.148438 -9.632812 96.699219 -14.511719 C 102.921875 -19.152344 106.835938 -26.273438 108.4375 -35.878906 L 116.882812 -34.472656 L 116.882812 -25.910156 L 86.0625 -25.910156 L 86.0625 -34.472656 L 94.429688 -32.65625 C 92.9375 -25.769531 89.402344 -20.542969 83.820312 -16.980469 C 78.839844 -13.800781 72.433594 -12.210938 64.605469 -12.210938 C 53.484375 -12.210938 44.796875 -15.496094 38.542969 -22.058594 C 32.402344 -28.507812 29.332031 -37.4375 29.332031 -48.851562 C 29.332031 -60.242188 32.386719 -69.195312 38.496094 -75.710938 C 44.753906 -82.386719 53.457031 -85.722656 64.605469 -85.722656 C 72.433594 -85.722656 78.839844 -84.132812 83.820312 -80.953125 C 89.402344 -77.390625 92.9375 -72.164062 94.429688 -65.277344 L 86.0625 -63.464844 L 86.0625 -72.023438 L 116.882812 -72.023438 L 116.882812 -63.464844 L 108.4375 -62.054688 C 106.835938 -71.644531 102.898438 -78.761719 96.613281 -83.398438 C 89.984375 -88.292969 79.3125 -90.742188 64.605469 -90.742188 C 48.042969 -90.742188 35.722656 -86.828125 27.644531 -79 C 19.640625 -71.246094 15.640625 -61.199219 15.640625 -48.851562 C 15.640625 -36.523438 19.632812 -26.519531 27.621094 -18.84375 C 35.703125 -11.074219 48.03125 -7.191406 64.605469 -7.191406 Z M 64.605469 -7.191406 "/></g></g></g><g fill="#ffffff" fill-opacity="1"><g transform="translate(390.289358, 252.318798)"><g><path d="M 3.082031 0 L 3.082031 -142.109375 L 51.480469 -142.109375 L 51.480469 -64.375 L 42.917969 -64.375 L 42.917969 -72.9375 L 46.113281 -72.9375 L 46.113281 -64.375 L 39.929688 -70.300781 L 73.734375 -105.582031 L 137.054688 -105.582031 L 79.945312 -45.46875 L 73.734375 -51.363281 L 80.292969 -56.871094 L 135.253906 8.5625 L 75.203125 8.5625 L 36.335938 -38.125 L 42.917969 -43.601562 L 51.480469 -43.601562 L 51.480469 8.5625 L 3.082031 8.5625 Z M 20.203125 0 L 11.640625 0 L 11.640625 -8.5625 L 42.917969 -8.5625 L 42.917969 0 L 34.355469 0 L 34.355469 -67.269531 L 85.796875 -5.476562 L 79.214844 0 L 79.214844 -8.5625 L 116.882812 -8.5625 L 116.882812 0 L 110.324219 5.507812 L 62.257812 -51.714844 L 110.902344 -102.917969 L 117.109375 -97.019531 L 117.109375 -88.457031 L 77.386719 -88.457031 L 77.386719 -97.019531 L 83.570312 -91.097656 L 49.769531 -55.8125 L 34.355469 -55.8125 L 34.355469 -133.546875 L 42.917969 -133.546875 L 42.917969 -124.984375 L 11.640625 -124.984375 L 11.640625 -133.546875 L 20.203125 -133.546875 Z M 20.203125 0 "/></g></g></g><g fill="#ffffff" fill-opacity="1"><g transform="translate(509.899771, 252.318798)"><g/></g></g><g fill="#ffffff" fill-opacity="1"><g transform="translate(553.041664, 252.318798)"><g><path d="M 0.816406 -0.5625 L 2.871094 -31.835938 C 3.171875 -37.734375 3.628906 -45.269531 4.242188 -54.445312 L 9.265625 -142.109375 L 75.433594 -142.109375 L 105.179688 -48.476562 L 97.019531 -45.886719 L 88.859375 -48.476562 L 118.609375 -142.109375 L 184.714844 -142.109375 L 185.234375 -134.101562 C 186.457031 -115.339844 187.371094 -99.851562 187.984375 -87.632812 C 189.195312 -65.636719 190.335938 -47.050781 191.398438 -31.871094 L 191.976562 -20.40625 C 192.203125 -15.988281 192.464844 -11.796875 192.761719 -7.835938 C 193.085938 -3.589844 193.246094 -0.976562 193.246094 0 L 193.246094 8.5625 L 145.34375 8.5625 L 138.46875 -106.324219 L 147.015625 -106.835938 L 155.171875 -104.238281 L 119.261719 8.5625 L 74.78125 8.5625 L 38.867188 -104.238281 L 47.027344 -106.835938 L 55.574219 -106.324219 L 48.699219 8.5625 L 0.214844 8.5625 Z M 17.902344 0.5625 L 9.359375 0 L 9.359375 -8.5625 L 40.632812 -8.5625 L 40.632812 0 L 32.089844 -0.511719 L 38.480469 -107.347656 L 55.183594 -109.433594 L 89.199219 -2.597656 L 81.042969 0 L 81.042969 -8.5625 L 113 -8.5625 L 113 0 L 104.84375 -2.597656 L 138.855469 -109.433594 L 155.5625 -107.347656 L 161.953125 -0.511719 L 153.40625 0 L 153.40625 -8.5625 L 184.683594 -8.5625 L 184.683594 0 L 176.121094 0 C 176.121094 -0.546875 175.976562 -2.726562 175.6875 -6.546875 C 175.378906 -10.648438 175.109375 -14.980469 174.875 -19.542969 L 174.316406 -30.675781 C 173.246094 -45.9375 172.101562 -64.636719 170.878906 -86.777344 C 170.273438 -98.910156 169.363281 -114.3125 168.148438 -132.992188 L 176.691406 -133.546875 L 176.691406 -124.984375 L 124.871094 -124.984375 L 124.871094 -133.546875 L 133.03125 -130.953125 L 97.019531 -17.609375 L 61.011719 -130.953125 L 69.171875 -133.546875 L 69.171875 -124.984375 L 17.351562 -124.984375 L 17.351562 -133.546875 L 25.898438 -133.058594 L 21.328125 -53.304688 C 20.722656 -44.21875 20.265625 -36.6875 19.957031 -30.714844 Z M 17.902344 0.5625 "/></g></g></g><g fill="#ffffff" fill-opacity="1"><g transform="translate(747.06619, 252.318798)"><g><path d="M 62.777344 9.933594 C 41.820312 9.933594 25.859375 4.363281 14.898438 -6.777344 C 3.976562 -17.882812 -1.484375 -31.90625 -1.484375 -48.851562 C -1.484375 -66.078125 3.84375 -80.199219 14.507812 -91.21875 C 25.242188 -102.316406 41.105469 -107.867188 62.09375 -107.867188 C 82.984375 -107.867188 98.652344 -102.28125 109.097656 -91.113281 C 119.386719 -80.105469 124.53125 -66.019531 124.53125 -48.851562 L 124.53125 -29.105469 L 37.894531 -29.105469 L 37.894531 -37.667969 L 46.371094 -38.878906 C 46.902344 -35.164062 48.023438 -32.792969 49.738281 -31.757812 C 52.414062 -30.144531 56.683594 -29.335938 62.550781 -29.335938 C 67.917969 -29.335938 71.195312 -30.59375 72.390625 -33.113281 L 74.710938 -38.011719 L 120.832031 -38.011719 L 119.675781 -28.421875 C 118.289062 -16.925781 111.898438 -7.523438 100.503906 -0.214844 C 89.964844 6.550781 77.386719 9.933594 62.777344 9.933594 Z M 62.777344 -7.191406 C 74.039062 -7.191406 83.53125 -9.671875 91.253906 -14.625 C 98.125 -19.03125 101.929688 -24.316406 102.675781 -30.476562 L 111.175781 -29.449219 L 111.175781 -20.886719 L 80.128906 -20.886719 L 80.128906 -29.449219 L 87.867188 -25.785156 C 85.644531 -21.097656 82.179688 -17.589844 77.46875 -15.265625 C 73.34375 -13.230469 68.371094 -12.210938 62.550781 -12.210938 C 53.503906 -12.210938 46.28125 -13.839844 40.890625 -17.097656 C 34.539062 -20.929688 30.714844 -27.382812 29.417969 -36.457031 L 28.023438 -46.230469 L 115.96875 -46.230469 L 115.96875 -37.667969 L 107.40625 -37.667969 L 107.40625 -48.851562 C 107.40625 -61.515625 103.800781 -71.703125 96.589844 -79.417969 C 89.527344 -86.96875 78.03125 -90.742188 62.09375 -90.742188 C 45.945312 -90.742188 34.1875 -86.929688 26.8125 -79.3125 C 19.363281 -71.609375 15.640625 -61.457031 15.640625 -48.851562 C 15.640625 -36.578125 19.460938 -26.558594 27.105469 -18.789062 C 34.710938 -11.058594 46.601562 -7.191406 62.777344 -7.191406 Z M 38.125 -67.917969 L 85.605469 -67.917969 L 85.605469 -59.355469 L 77.414062 -56.859375 C 75.878906 -61.90625 74.136719 -65.082031 72.183594 -66.382812 C 69.96875 -67.859375 66.527344 -68.597656 61.863281 -68.597656 C 57.203125 -68.597656 53.761719 -67.859375 51.546875 -66.382812 C 49.59375 -65.082031 47.851562 -61.90625 46.316406 -56.859375 L 38.125 -59.355469 Z M 38.125 -50.792969 L 26.566406 -50.792969 L 29.933594 -61.847656 C 32.65625 -70.800781 36.695312 -77.0625 42.050781 -80.632812 C 47.140625 -84.023438 53.746094 -85.722656 61.863281 -85.722656 C 69.984375 -85.722656 76.589844 -84.023438 81.679688 -80.632812 C 87.035156 -77.0625 91.074219 -70.800781 93.796875 -61.847656 L 97.164062 -50.792969 Z M 38.125 -50.792969 "/></g></g></g><g fill="#ffffff" fill-opacity="1"><g transform="translate(868.959235, 252.318798)"><g/></g></g><g fill="#ffffff" fill-opacity="1"><g transform="translate(912.101127, 252.318798)"><g><path d="M 5.820312 -42.3125 L 4.070312 -142.109375 L 54.390625 -142.109375 L 52.222656 -33.898438 L 5.96875 -33.898438 Z M 22.941406 -42.609375 L 14.382812 -42.460938 L 14.382812 -51.023438 L 43.832031 -51.023438 L 43.832031 -42.460938 L 35.269531 -42.632812 L 37.097656 -133.71875 L 45.65625 -133.546875 L 45.65625 -124.984375 L 12.785156 -124.984375 L 12.785156 -133.546875 L 21.34375 -133.695312 Z M 5.136719 0 L 5.136719 -33.902344 L 53.078125 -33.902344 L 53.078125 8.5625 L 5.136719 8.5625 Z M 22.257812 0 L 13.695312 0 L 13.695312 -8.5625 L 44.515625 -8.5625 L 44.515625 0 L 35.953125 0 L 35.953125 -25.339844 L 44.515625 -25.339844 L 44.515625 -16.777344 L 13.695312 -16.777344 L 13.695312 -25.339844 L 22.257812 -25.339844 Z M 22.257812 0 "/></g></g></g><g fill="#000000" fill-opacity="1"><g transform="translate(5.664283, 252.318798)"><g><path d="M 76.46875 1.375 C 52.882812 1.375 34.851562 -6.160156 22.375 -21.234375 C 12.175781 -33.554688 7.078125 -48.773438 7.078125 -66.890625 L 7.078125 -67.796875 C 7.078125 -86.054688 12.175781 -101.351562 22.375 -113.6875 C 34.695312 -128.601562 52.726562 -136.0625 76.46875 -136.0625 C 94.28125 -136.0625 108.96875 -132.066406 120.53125 -124.078125 C 132.09375 -116.085938 139.019531 -105.394531 141.3125 -92 L 109.34375 -92 C 108.582031 -98.84375 105.269531 -104.050781 99.40625 -107.625 C 93.550781 -111.207031 85.90625 -113 76.46875 -113 C 64.601562 -113 55.207031 -108.738281 48.28125 -100.21875 C 41.351562 -91.695312 37.890625 -80.585938 37.890625 -66.890625 C 37.890625 -53.335938 41.390625 -42.414062 48.390625 -34.125 C 55.390625 -25.832031 64.75 -21.6875 76.46875 -21.6875 C 85.90625 -21.6875 93.550781 -23.472656 99.40625 -27.046875 C 105.269531 -30.628906 108.582031 -35.84375 109.34375 -42.6875 L 141.3125 -42.6875 C 139.019531 -29.445312 132.050781 -18.789062 120.40625 -10.71875 C 108.769531 -2.65625 94.125 1.375 76.46875 1.375 Z M 76.46875 1.375 "/></g></g></g><g fill="#000000" fill-opacity="1"><g transform="translate(154.035987, 252.318798)"><g><path d="M 42.453125 1.375 C 21.148438 1.375 10.5 -13.007812 10.5 -41.78125 L 10.5 -133.546875 L 41.3125 -133.546875 L 41.3125 -34.703125 C 41.3125 -26.179688 45.800781 -21.539062 54.78125 -20.78125 L 54.78125 0.453125 C 51.28125 1.066406 47.171875 1.375 42.453125 1.375 Z M 42.453125 1.375 "/></g></g></g><g fill="#000000" fill-opacity="1"><g transform="translate(214.29772, 252.318798)"><g><path d="M 12.09375 -104.09375 L 12.09375 -133.546875 L 42.234375 -133.546875 L 42.234375 -104.09375 Z M 11.640625 0 L 11.640625 -97.015625 L 42.453125 -97.015625 L 42.453125 0 Z M 11.640625 0 "/></g></g></g><g fill="#000000" fill-opacity="1"><g transform="translate(268.396314, 252.318798)"><g><path d="M 64.609375 1.375 C 45.734375 1.375 31.425781 -3.300781 21.6875 -12.65625 C 11.945312 -22.019531 7.078125 -34.082031 7.078125 -48.84375 C 7.078125 -63.613281 11.945312 -75.710938 21.6875 -85.140625 C 31.425781 -94.578125 45.734375 -99.296875 64.609375 -99.296875 C 81.191406 -99.296875 93.550781 -96.289062 101.6875 -90.28125 C 109.832031 -84.269531 114.894531 -75.332031 116.875 -63.46875 L 86.0625 -63.46875 C 84.082031 -72.59375 76.929688 -77.15625 64.609375 -77.15625 C 55.929688 -77.15625 49.304688 -74.71875 44.734375 -69.84375 C 40.171875 -64.976562 37.890625 -57.976562 37.890625 -48.84375 C 37.890625 -39.71875 40.171875 -32.757812 44.734375 -27.96875 C 49.304688 -23.175781 55.929688 -20.78125 64.609375 -20.78125 C 76.929688 -20.78125 84.082031 -25.34375 86.0625 -34.46875 L 116.875 -34.46875 C 114.894531 -22.601562 109.875 -13.660156 101.8125 -7.640625 C 93.75 -1.628906 81.347656 1.375 64.609375 1.375 Z M 64.609375 1.375 "/></g></g></g><g fill="#000000" fill-opacity="1"><g transform="translate(390.289358, 252.318798)"><g><path d="M 11.640625 0 L 11.640625 -133.546875 L 42.921875 -133.546875 L 42.921875 -64.375 L 46.109375 -64.375 L 77.390625 -97.015625 L 117.109375 -97.015625 L 73.734375 -51.359375 L 116.875 0 L 79.21875 0 L 42.921875 -43.609375 L 42.921875 0 Z M 11.640625 0 "/></g></g></g><g fill="#000000" fill-opacity="1"><g transform="translate(509.899771, 252.318798)"><g/></g></g><g fill="#000000" fill-opacity="1"><g transform="translate(553.041664, 252.318798)"><g><path d="M 9.359375 0 L 11.421875 -31.28125 C 11.722656 -37.207031 12.175781 -44.738281 12.78125 -53.875 C 12.78125 -54.03125 14.300781 -80.585938 17.34375 -133.546875 L 69.171875 -133.546875 L 97.015625 -45.890625 L 124.875 -133.546875 L 176.6875 -133.546875 C 177.90625 -114.828125 178.816406 -99.378906 179.421875 -87.203125 C 180.640625 -65.140625 181.785156 -46.5 182.859375 -31.28125 C 183.003906 -28.226562 183.191406 -24.457031 183.421875 -19.96875 C 183.648438 -15.476562 183.914062 -11.21875 184.21875 -7.1875 C 184.519531 -3.15625 184.671875 -0.757812 184.671875 0 L 153.40625 0 L 147.015625 -106.828125 L 113 0 L 81.046875 0 L 47.03125 -106.828125 L 40.640625 0 Z M 9.359375 0 "/></g></g></g><g fill="#000000" fill-opacity="1"><g transform="translate(747.06619, 252.318798)"><g><path d="M 62.78125 1.375 C 44.207031 1.375 30.28125 -3.34375 21 -12.78125 C 11.71875 -22.21875 7.078125 -34.242188 7.078125 -48.859375 C 7.078125 -63.765625 11.601562 -75.894531 20.65625 -85.25 C 29.71875 -94.613281 43.53125 -99.296875 62.09375 -99.296875 C 80.507812 -99.296875 94.09375 -94.613281 102.84375 -85.25 C 111.59375 -75.894531 115.96875 -63.765625 115.96875 -48.859375 L 115.96875 -37.671875 L 37.890625 -37.671875 C 38.804688 -31.273438 41.28125 -26.859375 45.3125 -24.421875 C 49.34375 -21.992188 55.085938 -20.78125 62.546875 -20.78125 C 71.523438 -20.78125 77.382812 -23.671875 80.125 -29.453125 L 111.171875 -29.453125 C 110.109375 -20.617188 105.007812 -13.269531 95.875 -7.40625 C 86.75 -1.550781 75.71875 1.375 62.78125 1.375 Z M 38.125 -59.359375 L 85.609375 -59.359375 C 83.472656 -66.359375 80.578125 -71.070312 76.921875 -73.5 C 73.273438 -75.9375 68.253906 -77.15625 61.859375 -77.15625 C 55.472656 -77.15625 50.453125 -75.9375 46.796875 -73.5 C 43.140625 -71.070312 40.25 -66.359375 38.125 -59.359375 Z M 38.125 -59.359375 "/></g></g></g><g fill="#000000" fill-opacity="1"><g transform="translate(868.959235, 252.318798)"><g/></g></g><g fill="#000000" fill-opacity="1"><g transform="translate(912.101127, 252.318798)"><g><path d="M 14.375 -42.453125 L 12.78125 -133.546875 L 45.65625 -133.546875 L 43.828125 -42.453125 Z M 13.703125 0 L 13.703125 -25.34375 L 44.515625 -25.34375 L 44.515625 0 Z M 13.703125 0 "/></g></g></g></g></g></svg>