<svg xmlns="http://www.w3.org/2000/svg" xmlns:xlink="http://www.w3.org/1999/xlink" width="2000" zoomAndPan="magnify" viewBox="0 0 1500 1499.999933" height="2000" preserveAspectRatio="xMidYMid meet" version="1.0"><defs><g/><clipPath id="329925fd48"><path d="M 838.257812 467.40625 L 992.972656 467.40625 L 992.972656 622.121094 L 838.257812 622.121094 Z M 838.257812 467.40625 " clip-rule="nonzero"/></clipPath><clipPath id="96912311ee"><path d="M 915.613281 467.40625 C 872.890625 467.40625 838.257812 502.039062 838.257812 544.761719 C 838.257812 587.488281 872.890625 622.121094 915.613281 622.121094 C 958.335938 622.121094 992.972656 587.488281 992.972656 544.761719 C 992.972656 502.039062 958.335938 467.40625 915.613281 467.40625 Z M 915.613281 467.40625 " clip-rule="nonzero"/></clipPath><clipPath id="09bafd086b"><path d="M 0.257812 0.40625 L 154.972656 0.40625 L 154.972656 155.121094 L 0.257812 155.121094 Z M 0.257812 0.40625 " clip-rule="nonzero"/></clipPath><clipPath id="85dd43e3f1"><path d="M 77.613281 0.40625 C 34.890625 0.40625 0.257812 35.039062 0.257812 77.761719 C 0.257812 120.488281 34.890625 155.121094 77.613281 155.121094 C 120.335938 155.121094 154.972656 120.488281 154.972656 77.761719 C 154.972656 35.039062 120.335938 0.40625 77.613281 0.40625 Z M 77.613281 0.40625 " clip-rule="nonzero"/></clipPath><clipPath id="f4c9dee6e4"><rect x="0" width="155" y="0" height="156"/></clipPath><clipPath id="aa2b46cd39"><path d="M 429 332 L 1180.199219 332 L 1180.199219 1407 L 429 1407 Z M 429 332 " clip-rule="nonzero"/></clipPath><clipPath id="838d82a9be"><rect x="0" width="752" y="0" height="1075"/></clipPath><clipPath id="b67be17b80"><path d="M 400.121094 449.550781 L 1110.921875 449.550781 L 1110.921875 1407 L 400.121094 1407 Z M 400.121094 449.550781 " clip-rule="nonzero"/></clipPath><clipPath id="0fe68302fa"><path d="M 0.636719 0.550781 L 710.921875 0.550781 L 710.921875 958 L 0.636719 958 Z M 0.636719 0.550781 " clip-rule="nonzero"/></clipPath><clipPath id="42fa8b9576"><rect x="0" width="711" y="0" height="958"/></clipPath><clipPath id="c89aad8c31"><path d="M 0.601562 0.121094 L 821 0.121094 L 821 1239 L 0.601562 1239 Z M 0.601562 0.121094 " clip-rule="nonzero"/></clipPath><clipPath id="46ac724b1a"><rect x="0" width="821" y="0" height="1239"/></clipPath><clipPath id="4097a18e68"><rect x="0" width="1181" y="0" height="1407"/></clipPath></defs><rect x="-150" width="1800" fill="#ffffff" y="-149.999993" height="1799.99992" fill-opacity="1"/><rect x="-150" width="1800" fill="#000000" y="-149.999993" height="1799.99992" fill-opacity="1"/><g transform="matrix(1, 0, 0, 1, 129, 93)"><g clip-path="url(#4097a18e68)"><g clip-path="url(#329925fd48)"><g clip-path="url(#96912311ee)"><g transform="matrix(1, 0, 0, 1, 838, 467)"><g clip-path="url(#f4c9dee6e4)"><g clip-path="url(#09bafd086b)"><g clip-path="url(#85dd43e3f1)"><path fill="#ffffff" d="M 0.257812 0.40625 L 154.972656 0.40625 L 154.972656 155.121094 L 0.257812 155.121094 Z M 0.257812 0.40625 " fill-opacity="1" fill-rule="nonzero"/></g></g></g></g></g></g><g clip-path="url(#aa2b46cd39)"><g transform="matrix(1, 0, 0, 1, 429, 332)"><g clip-path="url(#838d82a9be)"><g fill="#ffffff" fill-opacity="1"><g transform="translate(2.611708, 929.158846)"><g><path d="M 705.625 -238.5 C 708.09375 -205.550781 701.296875 -174.453125 685.234375 -145.203125 C 669.171875 -115.953125 645.894531 -90.617188 615.40625 -69.203125 C 584.925781 -47.785156 549.707031 -30.894531 509.75 -18.53125 C 469.789062 -6.175781 427.570312 0 383.09375 0 C 325.414062 0 272.066406 -9.472656 223.046875 -28.421875 C 174.035156 -47.367188 134.90625 -72.90625 105.65625 -105.03125 C 76.40625 -137.164062 61.78125 -173.414062 61.78125 -213.78125 C 61.78125 -250.03125 74.753906 -281.128906 100.703125 -307.078125 C 126.660156 -333.035156 157.765625 -346.015625 194.015625 -346.015625 C 230.265625 -346.015625 261.363281 -333.035156 287.3125 -307.078125 C 313.257812 -281.128906 326.234375 -250.03125 326.234375 -213.78125 C 326.234375 -190.71875 322.113281 -171.769531 313.875 -156.9375 C 305.644531 -142.113281 296.378906 -129.757812 286.078125 -119.875 C 275.773438 -109.988281 267.125 -100.515625 260.125 -91.453125 C 253.125 -82.390625 250.859375 -72.085938 253.328125 -60.546875 C 256.628906 -44.898438 268.988281 -32.132812 290.40625 -22.25 C 311.820312 -12.363281 342.71875 -7.421875 383.09375 -7.421875 C 404.507812 -7.421875 424.691406 -12.566406 443.640625 -22.859375 C 462.585938 -33.160156 478.035156 -47.164062 489.984375 -64.875 C 501.929688 -82.59375 507.90625 -102.570312 507.90625 -124.8125 C 507.90625 -156.113281 497.191406 -185.769531 475.765625 -213.78125 C 454.347656 -241.789062 426.75 -269.179688 392.96875 -295.953125 C 359.195312 -322.734375 323.15625 -349.71875 284.84375 -376.90625 C 246.53125 -404.09375 210.484375 -432.515625 176.703125 -462.171875 C 142.929688 -491.828125 115.332031 -523.132812 93.90625 -556.09375 C 72.488281 -589.050781 61.78125 -624.890625 61.78125 -663.609375 C 61.78125 -700.679688 71.664062 -731.984375 91.4375 -757.515625 C 111.21875 -783.054688 136.96875 -803.859375 168.6875 -819.921875 C 200.40625 -835.992188 234.59375 -847.53125 271.25 -854.53125 C 307.90625 -861.53125 342.710938 -865.03125 375.671875 -865.03125 C 415.210938 -865.03125 449.8125 -862.144531 479.46875 -856.375 C 509.132812 -850.613281 541.265625 -847.734375 575.859375 -847.734375 C 589.867188 -847.734375 602.429688 -848.96875 613.546875 -851.4375 C 624.671875 -853.914062 634.351562 -858.445312 642.59375 -865.03125 L 650.015625 -865.03125 L 650.015625 -631.46875 C 650.015625 -631.46875 649.1875 -631.46875 647.53125 -631.46875 C 645.882812 -631.46875 644.238281 -631.46875 642.59375 -631.46875 C 636.007812 -666.070312 622.003906 -700.675781 600.578125 -735.28125 C 579.160156 -769.882812 551.972656 -798.71875 519.015625 -821.78125 C 486.066406 -844.851562 448.171875 -856.390625 405.328125 -856.390625 C 374.023438 -856.390625 346.015625 -848.351562 321.296875 -832.28125 C 296.578125 -816.21875 282.984375 -789.648438 280.515625 -752.578125 C 278.046875 -720.453125 286.078125 -690.796875 304.609375 -663.609375 C 323.148438 -636.421875 348.070312 -610.257812 379.375 -585.125 C 410.6875 -560 444.257812 -534.875 480.09375 -509.75 C 515.925781 -484.625 550.320312 -458.46875 583.28125 -431.28125 C 616.238281 -404.09375 644.039062 -374.84375 666.6875 -343.53125 C 689.34375 -312.226562 702.320312 -277.21875 705.625 -238.5 Z M 705.625 -238.5 "/></g></g></g></g></g></g><g clip-path="url(#b67be17b80)"><g transform="matrix(1, 0, 0, 1, 400, 449)"><g clip-path="url(#42fa8b9576)"><g clip-path="url(#0fe68302fa)"><path fill="#000000" d="M 77.054688 632.40625 C 76.25 633.210938 74.851562 632.210938 75.453125 631.214844 C 78.050781 627.019531 80.242188 622.230469 81.445312 617.433594 C 82.644531 612.441406 82.238281 607.449219 82.839844 602.457031 C 83.042969 601.0625 84.835938 600.664062 85.234375 602.058594 L 85.234375 602.261719 C 85.640625 602.261719 86.039062 602.261719 86.234375 602.457031 C 100.808594 610.84375 103.007812 642.59375 85.234375 648.582031 C 83.441406 649.183594 81.84375 646.984375 82.839844 645.386719 C 84.234375 642.789062 86.039062 641.789062 88.230469 639.597656 C 92.027344 635.800781 93.027344 631.214844 93.027344 626.019531 C 93.027344 618.234375 91.425781 611.644531 86.039062 606.257812 C 87.230469 615.4375 82.441406 625.816406 77.054688 632.40625 Z M 196.851562 244.257812 C 198.25 243.660156 199.847656 245.257812 198.453125 246.449219 C 196.453125 248.253906 194.054688 249.648438 191.859375 251.441406 C 189.863281 253.246094 187.867188 255.242188 186.066406 257.238281 C 185.066406 258.234375 183.671875 256.832031 184.476562 255.640625 C 188.0625 251.644531 192.054688 246.652344 196.851562 244.257812 Z M 178.679688 296.570312 C 179.28125 295.175781 181.074219 295.765625 180.878906 297.171875 C 179.882812 304.558594 173.492188 308.949219 168.898438 314.140625 C 161.3125 322.722656 157.113281 332.511719 154.121094 343.6875 C 153.527344 346.089844 150.125 345.089844 150.53125 342.6875 C 151.929688 334.109375 155.523438 325.71875 160.515625 318.730469 C 166.097656 310.945312 175.289062 305.75 178.679688 296.570312 Z M 446.234375 860.628906 C 445.4375 856.238281 443.636719 849.644531 445.632812 845.449219 C 446.039062 844.855469 447.035156 845.050781 447.230469 845.652344 C 447.832031 847.648438 447.433594 849.847656 447.433594 852.039062 C 447.433594 854.839844 447.628906 857.429688 448.230469 860.027344 C 448.433594 861.421875 446.628906 862.023438 446.234375 860.628906 Z M 443.636719 656.570312 C 449.03125 668.746094 452.222656 681.324219 452.621094 694.703125 C 453.027344 710.277344 445.4375 726.648438 451.621094 741.625 C 452.222656 742.824219 450.226562 743.824219 449.429688 742.824219 C 441.445312 735.039062 444.835938 724.253906 446.628906 714.472656 C 450.226562 695.109375 448.035156 675.9375 441.242188 657.570312 C 440.640625 656.171875 443.042969 654.972656 443.636719 656.570312 Z M 339.410156 706.285156 C 339.613281 705.488281 340.808594 705.285156 341.214844 706.089844 C 343.40625 710.480469 342.210938 717.265625 341.804688 722.0625 C 341.609375 723.457031 339.613281 723.457031 339.613281 722.0625 C 339.613281 719.261719 339.613281 716.46875 339.410156 713.671875 C 339.410156 711.277344 338.8125 708.679688 339.410156 706.285156 Z M 30.527344 641.789062 C 36.722656 648.777344 40.511719 652.375 49.894531 652.179688 C 49.101562 649.582031 50.894531 646.1875 51.890625 643.988281 C 53.492188 640.394531 55.886719 637.398438 58.878906 634.605469 C 59.683594 634.007812 60.875 634.800781 60.277344 635.605469 C 58.085938 638.398438 56.28125 641.59375 54.886719 644.988281 C 54.089844 646.984375 54.089844 649.777344 53.09375 651.773438 C 54.285156 651.773438 55.285156 651.773438 56.484375 652.179688 C 57.882812 652.773438 59.683594 654.769531 61.078125 655.175781 C 61.679688 655.371094 62.679688 655.371094 63.472656 655.371094 C 64.269531 653.175781 65.074219 651.375 64.675781 648.980469 C 64.472656 647.382812 66.671875 646.585938 67.070312 648.378906 C 67.46875 650.378906 67.671875 652.773438 67.070312 654.972656 C 72.460938 653.972656 78.449219 652.578125 78.246094 659.964844 C 78.246094 661.757812 75.65625 661.757812 75.453125 659.964844 C 75.054688 656.570312 64.269531 661.757812 62.078125 661.359375 C 59.277344 660.960938 59.683594 659.964844 57.28125 658.964844 C 52.695312 656.765625 50.894531 657.761719 46.300781 657.761719 C 37.914062 657.761719 28.132812 651.976562 27.535156 642.992188 C 27.332031 641.59375 29.53125 640.597656 30.527344 641.789062 Z M 81.84375 661.757812 C 84.042969 661.757812 86.234375 662.558594 88.636719 662.164062 C 89.828125 661.960938 91.03125 661.5625 92.027344 661.164062 C 93.820312 660.164062 92.222656 659.363281 90.828125 658.761719 C 88.230469 657.570312 85.039062 656.367188 85.640625 652.976562 C 85.835938 651.578125 88.035156 651.578125 88.433594 652.976562 C 89.03125 655.570312 92.824219 655.570312 94.820312 657.171875 C 96.417969 658.566406 97.417969 660.960938 96.019531 662.957031 C 93.222656 666.953125 84.042969 667.746094 80.445312 664.558594 C 79.449219 663.558594 80.445312 661.757812 81.84375 661.757812 Z M 50.097656 601.855469 C 50.097656 601.660156 49.894531 601.460938 49.699219 601.0625 C 45.902344 596.46875 39.117188 591.476562 32.324219 589.480469 C 43.304688 580.097656 53.09375 573.3125 67.671875 570.714844 C 67.863281 570.714844 68.261719 570.511719 68.464844 570.511719 C 82.441406 574.308594 96.214844 579.097656 109.796875 584.691406 C 104.40625 585.882812 99.015625 587.683594 94.023438 589.480469 C 88.636719 591.28125 83.042969 592.871094 79.050781 597.066406 C 69.066406 592.871094 57.882812 594.472656 50.097656 601.855469 Z M 266.734375 604.257812 C 264.140625 601.460938 265.339844 598.667969 266.339844 595.671875 C 267.132812 593.277344 264.339844 591.078125 262.140625 592.078125 C 260.542969 590.875 258.546875 590.078125 256.355469 589.285156 C 255.355469 588.878906 253.757812 588.480469 253.15625 587.683594 C 253.359375 587.683594 253.359375 587.484375 253.554688 587.484375 C 253.953125 587.878906 254.554688 587.878906 254.949219 587.484375 C 257.152344 586.085938 259.542969 585.882812 261.9375 585.882812 C 263.539062 585.882812 265.136719 586.085938 266.339844 585.289062 C 266.53125 585.484375 266.734375 585.484375 266.929688 585.6875 C 271.921875 588.878906 276.117188 594.277344 281.507812 596.273438 C 282.507812 596.671875 283.707031 596.070312 284.308594 595.070312 C 285.105469 595.867188 285.703125 596.671875 286.5 597.269531 C 287.101562 597.863281 287.894531 598.066406 288.496094 598.269531 C 289.890625 601.0625 294.488281 600.265625 294.882812 596.867188 C 297.683594 593.871094 299.679688 590.078125 301.871094 586.6875 C 302.871094 585.089844 303.871094 583.292969 305.070312 581.695312 C 304.671875 582.890625 305.273438 584.488281 307.066406 584.691406 C 309.859375 584.886719 312.855469 588.082031 314.65625 590.078125 C 315.453125 591.078125 317.253906 593.074219 316.847656 594.472656 C 316.449219 595.867188 315.257812 595.671875 314.257812 596.070312 C 313.453125 596.46875 312.855469 596.867188 312.457031 597.667969 C 311.058594 598.066406 310.0625 599.859375 310.859375 601.460938 C 312.058594 603.855469 313.453125 606.054688 313.65625 608.84375 C 313.851562 610.25 313.65625 614.039062 311.457031 614.039062 C 310.0625 614.039062 307.667969 611.441406 306.070312 611.042969 C 303.871094 610.445312 302.472656 611.042969 300.679688 612.441406 C 300.679688 612.441406 300.679688 612.441406 300.476562 612.644531 C 300.28125 612.644531 300.078125 612.644531 299.679688 612.644531 C 297.285156 613.246094 295.085938 614.242188 292.691406 615.242188 C 288.894531 616.832031 286.898438 615.832031 284.308594 613.246094 C 282.507812 611.246094 280.710938 609.445312 278.511719 608.648438 C 278.316406 607.449219 277.320312 606.652344 275.914062 606.652344 C 272.921875 606.652344 269.332031 607.050781 266.734375 604.257812 Z M 297.082031 524.191406 C 297.082031 523.988281 297.082031 523.988281 297.082031 524.191406 Z M 293.886719 525.390625 Z M 291.09375 527.183594 C 290.09375 529.382812 289.300781 531.574219 288.699219 533.777344 C 288.699219 530.578125 288.894531 527.386719 289.496094 524.191406 C 289.496094 525.1875 290.09375 526.390625 291.09375 527.183594 Z M 284.105469 825.085938 C 295.484375 817.097656 306.464844 807.511719 310.664062 794.136719 C 311.058594 811.914062 313.261719 831.074219 302.277344 846.050781 C 301.476562 847.050781 303.277344 848.445312 304.070312 847.445312 C 315.257812 834.46875 315.453125 816.304688 315.257812 799.332031 C 316.050781 800.523438 316.847656 801.929688 317.652344 803.324219 C 320.839844 809.710938 321.441406 817.097656 324.4375 823.488281 C 324.4375 823.6875 324.242188 823.890625 324.242188 824.085938 C 323.640625 839.867188 313.261719 850.847656 307.667969 864.824219 C 303.675781 875.003906 300.679688 885.789062 299.476562 896.566406 C 289.300781 884.585938 284.503906 870.609375 283.503906 854.636719 C 283.105469 846.050781 285.898438 834.070312 284.105469 825.085938 Z M 433.855469 749.210938 C 432.257812 751.015625 431.257812 753.207031 431.460938 755.601562 C 431.65625 756.597656 432.0625 757.597656 432.855469 758.003906 C 432.257812 758.398438 431.859375 759 432.257812 760 C 432.460938 760.398438 432.460938 760.792969 432.652344 761.191406 C 431.0625 758.796875 429.066406 756.597656 427.265625 754.804688 C 425.074219 752.410156 422.875 750.015625 420.675781 748.019531 C 425.074219 749.414062 429.863281 750.210938 433.855469 749.210938 Z M 471.996094 769.980469 C 471.792969 769.980469 471.589844 769.980469 471.589844 769.980469 C 473.390625 769.179688 475.183594 768.382812 476.785156 767.183594 C 477.78125 768.78125 479.179688 769.382812 480.980469 769.382812 C 481.976562 769.980469 482.976562 770.574219 483.972656 770.980469 C 479.777344 770.574219 475.988281 770.175781 471.996094 769.980469 Z M 478.382812 759.398438 C 477.382812 759.796875 476.386719 760 475.582031 760.195312 C 480.175781 756.597656 484.167969 752.410156 487.164062 748.019531 C 484.566406 752.011719 481.570312 755.804688 478.382812 759.398438 Z M 491.359375 741.226562 C 490.960938 741.828125 490.558594 742.621094 490.160156 743.222656 C 490.363281 743.027344 490.363281 742.824219 490.558594 742.425781 C 490.761719 741.828125 490.960938 741.429688 490.761719 740.828125 C 490.960938 741.03125 491.15625 741.226562 491.359375 741.226562 Z M 18.347656 644.589844 C 20.945312 645.785156 23.144531 645.191406 25.335938 643.59375 C 27.332031 641.992188 28.53125 639.792969 31.527344 639.792969 C 33.921875 639.792969 35.917969 641.390625 38.3125 641.789062 C 39.910156 642.195312 41.511719 639.996094 40.113281 638.796875 C 39.910156 638.601562 39.71875 638.601562 39.515625 638.398438 C 38.3125 627.019531 41.714844 618.828125 48.5 609.648438 C 56.089844 599.664062 65.074219 598.269531 76.054688 600.265625 C 70.257812 604.851562 65.472656 610.25 61.875 616.636719 C 61.273438 617.832031 62.875 618.828125 63.675781 617.636719 C 67.863281 611.441406 73.058594 606.257812 79.050781 601.855469 C 79.449219 601.660156 79.648438 601.265625 79.648438 601.0625 C 81.242188 601.265625 82.238281 599.664062 81.648438 598.464844 C 91.628906 591.28125 105.402344 590.679688 116.785156 587.683594 C 128.570312 592.871094 140.34375 598.863281 151.726562 605.65625 C 146.9375 610.648438 142.738281 616.636719 139.144531 623.421875 C 138.550781 624.421875 140.144531 625.222656 140.742188 624.226562 C 144.542969 617.238281 148.933594 611.441406 153.925781 606.847656 C 153.925781 606.847656 153.925781 606.847656 154.121094 606.847656 C 156.523438 608.253906 158.519531 605.65625 157.714844 603.660156 C 162.511719 599.859375 167.902344 597.066406 173.289062 594.867188 C 174.890625 596.46875 178.078125 595.070312 178.484375 593.074219 C 199.246094 586.6875 223.605469 588.082031 245.964844 588.082031 C 246.167969 589.480469 246.769531 591.078125 247.566406 592.078125 C 247.769531 592.28125 248.164062 592.675781 248.367188 592.871094 C 241.175781 594.472656 234.585938 598.269531 229.195312 603.058594 C 228.199219 604.054688 229.59375 605.453125 230.796875 604.65625 C 237.582031 599.460938 244.773438 597.066406 252.757812 595.671875 C 253.15625 595.867188 253.554688 595.867188 253.757812 596.070312 C 255.152344 596.671875 256.753906 596.867188 258.148438 597.667969 C 257.945312 598.066406 257.945312 598.667969 257.945312 599.066406 C 240.179688 603.660156 224.410156 620.628906 216.617188 636.402344 C 216.015625 637.398438 217.613281 638.398438 218.214844 637.398438 C 223.207031 629.015625 229.59375 621.230469 237.183594 615.039062 C 243.773438 609.648438 250.957031 606.652344 258.351562 603.261719 C 258.75 604.851562 259.351562 606.257812 260.144531 607.449219 C 251.160156 611.839844 245.769531 623.820312 242.175781 632.011719 C 241.777344 633.007812 243.171875 634.007812 243.773438 633.007812 C 246.566406 627.414062 249.367188 621.425781 253.554688 616.832031 C 256.152344 613.835938 259.148438 612.042969 262.539062 610.445312 C 263.539062 611.246094 264.535156 611.839844 265.738281 612.246094 C 257.152344 620.824219 251.957031 631.214844 250.160156 643.390625 C 247.371094 662.164062 250.957031 687.316406 229.195312 695.902344 C 228.199219 696.300781 228.597656 697.898438 229.59375 697.5 C 240.972656 693.703125 246.769531 683.921875 249.5625 672.542969 C 254.949219 650.183594 251.761719 630.011719 269.730469 613.042969 C 271.523438 613.246094 273.125 613.246094 274.917969 612.839844 C 275.914062 614.640625 277.320312 616.433594 278.910156 618.03125 C 271.328125 663.957031 272.726562 725.058594 214.621094 734.042969 C 213.019531 734.238281 212.226562 735.4375 212.023438 736.835938 C 211.625 736.039062 210.828125 735.234375 209.628906 735.4375 C 209.230469 735.4375 209.027344 735.4375 208.628906 735.4375 C 208.832031 735.234375 209.027344 734.839844 209.230469 734.441406 C 211.625 726.054688 207.4375 719.066406 201.242188 713.476562 C 197.046875 709.675781 191.859375 706.683594 188.0625 702.289062 C 180.675781 693.507812 182.671875 685.917969 181.480469 675.9375 C 180.675781 667.949219 177.082031 663.355469 170.5 659.363281 C 171.089844 658.363281 171.691406 657.367188 172.292969 656.367188 C 173.492188 654.574219 174.890625 652.773438 176.488281 651.179688 C 177.488281 650.183594 175.886719 648.582031 174.890625 649.582031 C 173.085938 651.179688 171.496094 652.773438 170.09375 654.574219 C 169.296875 655.570312 168.5 656.570312 168.097656 657.761719 C 167.300781 657.367188 166.699219 656.96875 165.90625 656.570312 C 168.097656 652.179688 170.296875 647.984375 173.6875 643.988281 C 177.683594 639.597656 182.074219 635.800781 186.667969 632.011719 C 187.664062 631.214844 186.269531 629.414062 185.269531 630.214844 C 176.886719 636.207031 166.097656 644.386719 162.707031 654.769531 C 152.121094 648.582031 144.542969 642.59375 142.140625 628.015625 C 141.945312 626.816406 140.144531 627.222656 140.144531 628.21875 C 140.546875 636.605469 143.339844 644.386719 149.128906 650.582031 C 152.722656 654.371094 157.316406 656.96875 161.707031 659.363281 C 161.910156 660.164062 162.707031 660.5625 163.511719 660.359375 C 168.300781 663.160156 172.496094 666.554688 174.492188 672.144531 C 178.28125 682.722656 175.085938 693.304688 181.878906 703.09375 C 189.464844 714.269531 205.035156 718.265625 205.238281 733.839844 C 205.238281 734.441406 205.441406 735.039062 205.835938 735.4375 C 193.257812 734.636719 182.875 727.648438 172.691406 720.261719 C 163.308594 713.476562 152.722656 705.683594 145.539062 696.503906 C 137.554688 686.316406 142.140625 677.136719 140.546875 665.953125 C 139.949219 662.359375 138.949219 660.757812 137.953125 657.570312 C 135.558594 653.769531 133.753906 649.378906 133.15625 644.785156 C 133.957031 639.792969 135.558594 635.003906 137.75 630.613281 C 138.550781 629.015625 136.351562 627.8125 135.355469 629.21875 C 128.570312 639 126.570312 645.988281 131.359375 657.171875 C 137.953125 671.742188 129.761719 686.917969 140.34375 700.292969 C 149.128906 711.480469 162.105469 720.660156 173.6875 728.644531 C 185.066406 736.632812 196.648438 743.425781 210.828125 741.226562 C 212.023438 741.03125 212.625 740.226562 212.824219 739.433594 C 213.425781 740.625 214.425781 741.625 216.015625 741.429688 C 239.976562 739.828125 260.347656 724.457031 269.730469 702.492188 C 269.730469 702.289062 269.925781 702.097656 269.925781 701.691406 C 270.527344 712.078125 272.726562 723.0625 276.914062 733.042969 C 221.609375 757.597656 210.625 826.082031 232.191406 877.398438 C 232.589844 878.199219 233.191406 878.800781 233.984375 878.996094 C 233.984375 879.199219 233.792969 879.394531 233.792969 879.597656 C 232.988281 883.191406 238.578125 884.789062 239.382812 881.195312 C 242.574219 867.617188 245.964844 855.839844 256.355469 845.652344 C 263.742188 838.460938 272.921875 833.070312 281.507812 827.285156 C 275.914062 853.84375 279.316406 882.988281 298.683594 903.351562 C 301.078125 905.753906 304.671875 902.160156 302.472656 899.5625 C 304.671875 882.191406 310.0625 868.214844 319.445312 853.242188 C 324.039062 845.855469 328.632812 838.664062 329.234375 830.476562 C 332.226562 834.070312 336.019531 836.871094 339.613281 839.664062 C 342.007812 841.457031 345.207031 837.269531 342.804688 835.464844 C 337.21875 830.679688 332.421875 826.480469 329.429688 819.898438 C 340.011719 817.496094 349.792969 813.105469 358.777344 806.71875 C 359.980469 805.921875 358.980469 803.925781 357.585938 804.722656 C 348.203125 809.914062 338.414062 813.910156 328.03125 816.101562 C 326.832031 812.308594 326.035156 808.511719 324.4375 804.925781 C 322.640625 800.929688 320.046875 798.128906 318.046875 794.339844 C 317.253906 793.140625 316.847656 791.945312 316.253906 790.746094 C 319.046875 789.949219 321.839844 788.746094 324.640625 787.953125 C 329.234375 786.546875 333.820312 785.550781 338.414062 784.550781 C 339.808594 784.152344 339.410156 781.960938 338.015625 781.960938 C 330.824219 782.15625 322.246094 783.15625 315.453125 786.351562 C 315.257812 786.152344 315.257812 785.957031 315.054688 785.753906 C 314.054688 780.363281 314.851562 774.972656 315.652344 768.78125 C 316.050781 766.386719 312.660156 765.386719 312.058594 767.78125 C 310.664062 773.375 309.265625 779.164062 309.859375 784.957031 C 309.859375 785.957031 310.0625 786.75 310.265625 787.75 C 301.675781 811.914062 278.117188 821.09375 259.351562 835.871094 C 246.964844 845.652344 239.976562 857.03125 235.984375 871.40625 C 217.421875 820.898438 230.59375 764.390625 278.910156 736.632812 C 283.902344 746.816406 291.296875 755.601562 301.078125 760.792969 C 297.285156 775.972656 288.496094 784.550781 275.121094 792.742188 C 265.339844 798.730469 258.148438 806.320312 252.160156 816.101562 C 251.363281 817.496094 253.359375 818.699219 254.15625 817.300781 C 259.351562 809.316406 266.339844 802.925781 274.519531 798.128906 C 279.511719 795.339844 284.707031 793.339844 289.097656 789.746094 C 297.683594 782.960938 303.472656 773.570312 305.671875 762.992188 C 308.066406 763.789062 310.460938 764.585938 313.058594 764.992188 C 314.257812 765.1875 314.65625 763.585938 313.65625 763.1875 C 310.859375 761.996094 308.269531 760.792969 305.867188 759.398438 C 305.46875 758.59375 304.671875 758.003906 303.871094 757.800781 C 303.871094 757.597656 303.871094 757.597656 303.871094 757.402344 C 301.28125 743.222656 300.28125 729.050781 302.074219 714.871094 C 302.277344 713.671875 300.28125 713.476562 300.078125 714.667969 C 298.082031 728.449219 297.683594 741.828125 299.875 755.601562 C 280.710938 740.226562 278.714844 714.871094 275.519531 689.710938 C 275.519531 688.914062 275.121094 688.3125 274.722656 687.917969 C 280.90625 667.152344 283.105469 643.195312 283.503906 622.230469 C 284.308594 622.628906 284.902344 623.023438 285.703125 623.421875 C 289.300781 624.820312 293.089844 623.820312 296.6875 622.230469 C 316.050781 631.808594 332.421875 662.164062 334.621094 682.527344 C 334.816406 683.523438 336.417969 683.523438 336.222656 682.527344 C 335.019531 667.746094 328.429688 655.371094 321.042969 642.992188 C 315.652344 633.804688 309.664062 625.222656 300.476562 620.234375 C 300.476562 620.234375 300.476562 620.234375 300.679688 620.234375 C 315.054688 625.222656 326.035156 634.800781 337.015625 645.191406 C 347.796875 655.371094 365.765625 669.742188 367.167969 685.125 C 367.167969 686.121094 368.761719 686.121094 368.761719 685.125 C 367.761719 669.742188 352.59375 656.570312 342.609375 645.988281 C 334.621094 637.398438 325.433594 628.015625 315.054688 621.824219 C 317.050781 621.027344 318.84375 619.234375 319.84375 617.238281 C 320.046875 616.636719 320.25 616.035156 320.441406 615.4375 C 320.839844 616.035156 321.441406 616.636719 322.246094 616.636719 C 344.003906 620.03125 363.574219 624.023438 384.539062 631.011719 C 400.113281 636.207031 414.285156 637.601562 429.660156 631.011719 C 436.851562 627.8125 443.839844 623.625 449.828125 618.632812 C 491.15625 648.777344 468.796875 708.484375 457.019531 748.613281 C 456.613281 748.613281 456.417969 748.417969 456.019531 748.417969 C 453.222656 744.617188 448.230469 743.621094 443.636719 744.617188 C 442.441406 744.820312 441.046875 745.421875 439.640625 746.023438 C 435.851562 736.234375 436.851562 723.0625 436.453125 713.078125 C 436.453125 711.671875 434.058594 711.671875 434.058594 713.078125 C 434.253906 722.0625 433.457031 731.046875 434.058594 739.828125 C 434.253906 742.824219 434.652344 745.820312 436.054688 748.214844 C 435.648438 748.613281 435.25 748.816406 434.851562 749.210938 C 435.054688 748.417969 434.851562 747.613281 434.253906 747.214844 C 429.660156 743.824219 422.671875 743.621094 417.28125 742.027344 C 410.496094 740.03125 405.105469 737.039062 399.515625 732.839844 C 401.308594 726.851562 402.304688 720.464844 402.90625 713.476562 C 402.90625 712.875 401.910156 712.671875 401.707031 713.273438 C 399.117188 724.652344 396.121094 734.636719 390.132812 742.824219 C 392.128906 735.632812 389.132812 725.457031 387.136719 719.464844 C 386.730469 718.070312 384.734375 718.660156 385.140625 720.066406 C 386.730469 727.054688 390.527344 739.625 385.539062 746.023438 C 384.9375 746.613281 385.140625 747.417969 385.730469 748.019531 C 382.144531 751.605469 377.746094 754.601562 372.160156 757.003906 C 354.785156 764.789062 336.417969 765.988281 317.847656 763.789062 C 316.652344 763.585938 316.449219 765.582031 317.652344 765.785156 C 338.21875 770.574219 360.773438 767.78125 379.546875 757.597656 C 389.132812 752.410156 394.921875 745.21875 398.3125 736.632812 C 400.707031 739.433594 403.507812 741.625 406.699219 743.425781 C 406.699219 744.027344 406.898438 744.617188 407.695312 745.023438 C 417.28125 750.8125 424.871094 761.191406 429.464844 771.378906 C 427.070312 770.175781 424.667969 768.984375 422.273438 766.988281 C 420.277344 765.386719 418.675781 763.789062 416.679688 762.191406 C 412.289062 758.796875 407.695312 757.003906 402.109375 758.003906 C 401.113281 758.199219 401.511719 759.796875 402.507812 759.59375 C 413.289062 758.003906 418.085938 770.378906 426.46875 773.976562 C 417.679688 776.167969 397.316406 765.988281 390.328125 765.386719 C 380.742188 764.390625 371.753906 765.582031 362.574219 768.382812 C 361.578125 768.78125 361.976562 770.378906 362.972656 769.980469 C 382.941406 764.992188 397.316406 769.578125 415.683594 776.96875 C 420.875 778.96875 425.074219 779.761719 429.066406 776.96875 C 429.066406 777.164062 428.863281 777.367188 428.863281 777.5625 C 428.660156 778.164062 428.863281 778.765625 429.066406 779.363281 C 426.867188 781.363281 425.46875 783.957031 425.46875 786.953125 C 420.277344 791.742188 407.898438 787.75 401.511719 789.542969 C 395.917969 791.140625 391.128906 794.738281 387.535156 799.128906 C 386.730469 800.128906 388.132812 801.523438 388.929688 800.523438 C 393.523438 795.339844 399.515625 791.945312 406.699219 791.742188 C 411.6875 791.539062 416.679688 793.535156 421.476562 792.742188 C 423.269531 792.539062 425.074219 791.742188 426.46875 790.949219 C 427.070312 792.539062 428.066406 793.941406 429.261719 794.738281 C 418.28125 801.929688 410.097656 810.710938 401.511719 820.898438 C 396.121094 827.285156 390.527344 833.875 383.144531 837.867188 C 373.753906 843.054688 365.765625 841.660156 355.984375 839.265625 C 353.988281 838.867188 352.988281 841.058594 354.191406 842.453125 C 363.371094 853.640625 381.144531 847.851562 391.128906 840.660156 C 402.304688 832.472656 410.292969 821.296875 419.675781 811.109375 C 403.90625 835.871094 383.339844 866.820312 405.105469 892.574219 C 406.898438 894.773438 408.898438 896.363281 411.097656 898.363281 C 418.28125 904.554688 420.082031 905.550781 424.871094 914.933594 C 427.863281 920.527344 430.65625 925.519531 435.453125 929.714844 C 436.453125 930.511719 437.449219 931.304688 438.449219 932.109375 C 438.449219 932.304688 438.449219 932.507812 438.449219 932.507812 C 438.644531 933.902344 439.84375 934.105469 440.84375 933.707031 C 449.828125 939.097656 460.414062 940.890625 470.589844 938.101562 C 472.390625 937.5 471.589844 935.105469 469.796875 935.300781 C 459.414062 936.703125 449.625 934.503906 441.640625 929.308594 C 439.84375 917.136719 439.640625 905.15625 442.042969 892.972656 C 442.238281 891.777344 440.445312 891.179688 440.046875 892.371094 C 437.449219 903.554688 436.648438 914.742188 437.644531 926.121094 C 433.855469 922.523438 430.65625 918.132812 428.261719 912.9375 C 423.871094 902.761719 418.480469 899.765625 410.894531 891.972656 C 384.335938 865.222656 415.886719 828.082031 430.460938 803.519531 C 431.0625 802.523438 430.859375 801.523438 430.257812 800.726562 C 431.257812 799.933594 432.460938 799.128906 433.652344 798.332031 C 435.453125 799.332031 437.449219 799.527344 439.640625 799.527344 C 440.640625 799.527344 442.441406 799.128906 443.238281 799.527344 C 444.234375 800.128906 444.234375 802.328125 444.835938 803.324219 C 445.234375 803.925781 445.632812 804.519531 446.039062 805.117188 C 442.042969 815.101562 441.445312 826.082031 442.238281 836.667969 C 442.238281 837.867188 444.234375 837.867188 444.234375 836.667969 C 443.839844 826.480469 446.039062 816.902344 448.433594 807.117188 C 450.625 808.316406 453.027344 808.511719 455.421875 808.113281 C 455.820312 816.101562 454.421875 823.890625 455.421875 831.878906 C 456.613281 841.261719 458.609375 850.644531 460.210938 860.027344 C 460.414062 861.027344 462.011719 860.628906 461.808594 859.628906 C 460.414062 849.046875 458.210938 837.667969 457.816406 826.886719 C 457.613281 820.09375 459.015625 813.503906 458.414062 806.921875 C 459.015625 806.515625 459.414062 806.320312 459.8125 805.921875 C 460.605469 806.921875 461.605469 807.714844 463.007812 807.917969 C 461.808594 817.300781 465.007812 826.886719 469 835.871094 C 478.78125 857.835938 489.964844 879.992188 480.980469 904.351562 C 480.574219 905.351562 482.171875 905.753906 482.375 904.757812 C 488.5625 888.980469 486.765625 872.609375 481.378906 856.632812 C 475.582031 839.664062 465.199219 824.6875 467.402344 807.316406 C 468.796875 806.71875 469.996094 805.71875 470.996094 804.722656 C 474.582031 801.328125 476.785156 792.945312 470.394531 791.140625 C 468.195312 790.542969 466.402344 792.539062 466.800781 794.738281 C 467.003906 795.339844 467.199219 795.734375 467.199219 796.132812 C 467.003906 796.335938 467.003906 796.335938 466.800781 796.53125 C 465.800781 798.332031 465.007812 799.933594 464.40625 801.726562 C 463.804688 802.125 463.203125 802.328125 463.007812 802.125 C 463.601562 800.929688 464.007812 799.527344 464.007812 798.128906 C 464.007812 795.734375 460.808594 794.339844 459.210938 796.132812 C 458.414062 797.132812 457.417969 798.527344 456.613281 799.730469 C 455.617188 798.933594 454.023438 799.527344 454.421875 801.125 C 454.421875 801.328125 454.421875 801.328125 454.421875 801.523438 C 453.617188 801.726562 453.027344 801.726562 452.027344 801.125 C 450.03125 799.933594 450.03125 797.132812 448.230469 795.535156 C 446.628906 794.136719 444.632812 793.535156 442.441406 793.535156 C 440.640625 793.535156 436.648438 794.738281 435.648438 792.945312 C 435.054688 791.945312 434.253906 791.742188 433.457031 791.539062 C 432.855469 790.746094 432.0625 789.949219 431.460938 788.746094 C 430.460938 786.351562 431.0625 783.757812 433.058594 782.15625 C 433.253906 781.960938 433.253906 781.757812 433.457031 781.558594 C 436.648438 779.964844 438.449219 775.371094 439.050781 772.175781 C 439.640625 767.984375 438.449219 763.992188 435.851562 760.589844 L 435.648438 760.398438 C 435.851562 760.398438 436.054688 760.195312 436.054688 760.195312 C 438.847656 758.398438 440.046875 755.203125 443.042969 753.207031 C 444.835938 752.011719 448.230469 750.414062 450.828125 750.609375 C 451.03125 753.601562 454.820312 754.601562 457.613281 754.601562 C 459.609375 754.601562 461.207031 754.203125 462.410156 756.402344 C 463.203125 757.800781 463.40625 759.398438 464.007812 760.792969 C 458.609375 762.792969 453.027344 763.585938 447.433594 765.386719 C 445.039062 766.183594 444.835938 768.578125 445.835938 770.175781 C 442.238281 770.980469 441.640625 775.769531 445.4375 777.164062 C 446.4375 777.5625 447.628906 777.765625 448.628906 778.164062 C 452.621094 781.960938 459.015625 783.359375 464.007812 785.550781 C 469.195312 787.75 474.390625 790.347656 479.574219 792.742188 C 479.179688 793.339844 478.984375 794.136719 479.574219 794.738281 C 480.777344 796.132812 481.976562 797.734375 483.171875 799.332031 C 486.5625 821.09375 499.949219 835.273438 516.320312 850.441406 C 517.511719 851.644531 519.507812 849.644531 518.113281 848.648438 C 510.328125 841.261719 502.539062 833.46875 496.546875 824.6875 C 492.757812 818.902344 490.558594 812.910156 488.761719 806.515625 C 495.953125 815.101562 504.339844 823.292969 514.515625 826.683594 C 523.703125 829.679688 534.289062 828.476562 543.875 828.285156 C 555.449219 828.082031 567.03125 828.082031 578.410156 827.683594 C 580.007812 827.683594 580.007812 825.289062 578.410156 825.289062 C 559.644531 825.085938 538.28125 827.886719 519.914062 823.6875 C 505.53125 820.492188 498.144531 809.511719 488.964844 799.730469 C 489.363281 799.730469 489.964844 799.730469 490.363281 799.527344 C 491.757812 798.730469 492.960938 798.128906 494.355469 797.53125 C 502.140625 809.710938 518.714844 813.308594 532.292969 813.105469 C 533.890625 813.105469 533.890625 810.710938 532.292969 810.710938 C 518.714844 810.507812 506.335938 806.117188 497.75 795.9375 C 500.539062 794.535156 503.136719 793.339844 505.9375 792.34375 C 506.53125 792.539062 507.132812 792.539062 507.933594 792.34375 C 533.484375 786.546875 563.839844 784.753906 585.398438 802.328125 C 592.988281 808.511719 599.375 816.304688 606.769531 822.894531 C 617.148438 832.277344 628.925781 840.660156 625.136719 854.238281 C 624.738281 853.640625 623.539062 853.242188 622.742188 854.039062 C 613.554688 861.226562 598.78125 861.226562 587.800781 862.226562 C 578.613281 863.023438 569.230469 863.621094 560.042969 863.621094 C 558.847656 863.621094 558.847656 865.621094 560.042969 865.621094 C 574.019531 865.820312 587.800781 865.820312 601.574219 864.222656 C 609.5625 863.226562 618.34375 863.023438 624.136719 857.234375 C 623.539062 858.832031 622.742188 860.230469 621.746094 861.828125 C 620.941406 863.226562 622.9375 864.824219 623.9375 863.621094 C 631.128906 855.433594 632.320312 844.65625 626.136719 835.464844 C 622.335938 829.679688 616.152344 825.890625 611.160156 821.488281 C 604.773438 815.90625 599.375 809.316406 593.386719 803.324219 C 583.402344 793.140625 571.828125 787.148438 559.644531 784.152344 C 563.839844 783.359375 567.835938 782.15625 572.023438 779.964844 C 582.402344 774.769531 593.191406 767.78125 599.375 757.597656 C 604.367188 749.414062 605.769531 740.226562 606.363281 730.84375 C 606.964844 730.445312 607.363281 730.242188 607.960938 729.847656 C 609.765625 728.644531 608.359375 726.054688 606.566406 726.648438 C 606.566406 724.855469 606.769531 723.253906 606.769531 721.460938 C 606.769531 719.464844 603.96875 719.660156 603.773438 721.460938 C 603.570312 723.855469 603.367188 726.453125 602.972656 728.847656 C 593.589844 734.636719 584.207031 740.429688 574.019531 744.617188 C 573.222656 745.023438 573.824219 746.421875 574.621094 746.21875 C 584.207031 742.425781 593.386719 738.433594 602.175781 733.441406 C 599.578125 747.613281 593.984375 759.796875 580.210938 768.382812 C 567.234375 776.566406 555.253906 778.5625 540.277344 778.765625 C 524.703125 779.164062 504.136719 780.160156 491.554688 791.140625 C 491.359375 790.144531 490.761719 789.347656 489.964844 788.949219 C 487.5625 787.953125 484.769531 788.148438 482.976562 789.949219 C 477.984375 786.75 472.789062 783.757812 467.59375 780.964844 C 476.785156 781.160156 485.972656 780.363281 493.550781 778.765625 C 495.152344 780.761719 498.347656 781.363281 500.34375 779.164062 C 500.945312 778.367188 501.34375 777.5625 501.539062 776.769531 C 501.742188 776.371094 501.742188 776.167969 501.742188 775.769531 C 501.945312 774.769531 501.539062 773.773438 500.945312 772.976562 C 512.519531 769.78125 525.101562 762.992188 535.289062 765.785156 C 536.683594 766.183594 537.285156 763.992188 535.886719 763.585938 C 518.917969 759.195312 503.136719 771.980469 486.96875 769.179688 C 489.160156 767.78125 490.960938 766.183594 492.359375 764.789062 C 493.15625 763.992188 493.957031 763.1875 494.753906 762.394531 C 496.148438 763.390625 497.75 763.585938 499.347656 762.792969 C 501.742188 761.394531 502.34375 758.199219 500.945312 756.003906 C 500.742188 755.804688 500.539062 755.601562 500.34375 755.40625 C 508.332031 744.617188 515.515625 732.839844 529.898438 729.847656 C 531.089844 729.644531 530.691406 727.847656 529.296875 728.050781 C 519.710938 729.644531 512.722656 734.441406 506.335938 741.625 C 504.738281 743.425781 500.945312 749.015625 496.546875 754.40625 C 496.351562 754.40625 496.351562 754.40625 496.148438 754.40625 C 494.957031 754.601562 493.753906 755.601562 493.355469 756.597656 C 492.960938 756.402344 492.359375 756.402344 491.960938 756.597656 C 490.363281 757.199219 488.964844 757.800781 487.367188 758.398438 C 492.359375 751.210938 496.148438 742.824219 500.144531 735.632812 C 513.519531 711.277344 536.480469 695.503906 564.238281 692.707031 C 566.03125 692.511719 566.03125 689.914062 564.238281 689.914062 C 543.875 691.511719 524.703125 699.894531 510.328125 714.667969 C 504.339844 720.859375 499.949219 727.847656 495.75 734.839844 C 495.550781 734.441406 495.355469 734.042969 494.957031 733.839844 C 494.152344 732.839844 492.960938 732.636719 491.757812 733.042969 C 488.761719 732.242188 485.769531 734.636719 485.972656 738.035156 C 485.972656 739.433594 486.765625 740.828125 487.765625 741.625 C 486.96875 741.625 486.367188 741.828125 485.769531 742.621094 C 480.980469 749.414062 475.386719 755.40625 468 759.195312 C 467.796875 759.195312 467.796875 759.398438 467.59375 759.398438 C 466.800781 756.402344 464.40625 753.207031 462.011719 751.808594 C 461.808594 751.808594 461.808594 751.605469 461.605469 751.605469 C 466.402344 743.621094 469.996094 734.238281 472.585938 724.253906 C 482.375 713.273438 489.160156 699.695312 499.347656 688.710938 C 509.726562 677.535156 522.503906 668.347656 537.285156 664.355469 C 553.859375 659.761719 565.433594 665.15625 581.007812 669.152344 C 588.996094 671.148438 598.976562 670.945312 604.96875 677.933594 C 611.558594 685.71875 606.363281 700.097656 604.570312 708.484375 C 604.171875 710.878906 607.363281 711.671875 608.164062 709.480469 C 613.15625 696.699219 615.753906 678.730469 603.570312 668.949219 C 596.183594 663.160156 585.804688 664.160156 577.21875 661.164062 C 569.027344 658.363281 561.640625 655.765625 552.859375 655.765625 C 521.707031 655.570312 492.15625 679.929688 475.988281 707.28125 C 477.984375 694.703125 478.578125 681.925781 478.382812 670.742188 C 477.984375 650.582031 470.996094 627.019531 452.027344 617.035156 C 466.800781 603.058594 475.988281 583.886719 472.585938 562.726562 C 473.585938 561.730469 473.1875 559.730469 471.394531 559.53125 L 471.191406 559.53125 C 470.996094 559.53125 470.589844 559.53125 470.394531 559.53125 C 462.011719 559.53125 454.023438 561.332031 446.4375 565.324219 C 445.234375 565.917969 446.234375 567.515625 447.433594 566.914062 C 454.421875 563.921875 461.808594 562.523438 469.398438 562.726562 C 471.394531 596.46875 443.636719 628.21875 409.097656 630.011719 C 392.921875 630.808594 377.347656 622.027344 362.179688 617.832031 C 349.199219 614.242188 335.222656 611.441406 321.839844 611.839844 C 320.839844 611.839844 320.25 612.246094 319.648438 612.839844 C 319.648438 609.84375 318.84375 606.847656 317.449219 604.257812 C 318.648438 603.855469 319.84375 603.261719 320.644531 602.261719 C 321.839844 600.859375 322.640625 599.269531 322.835938 597.464844 C 332.625 599.664062 341.011719 605.453125 350.992188 606.652344 C 358.582031 607.652344 365.765625 606.054688 372.558594 602.660156 C 373.753906 602.058594 372.957031 600.0625 371.753906 600.460938 C 358.582031 605.453125 348.597656 603.261719 336.019531 597.667969 C 331.425781 595.671875 327.238281 593.871094 322.640625 593.675781 C 322.640625 593.277344 322.441406 593.074219 322.441406 592.675781 C 322.246094 592.28125 322.042969 591.875 321.839844 591.476562 C 344.605469 582.296875 365.96875 589.878906 389.53125 588.683594 C 404.304688 587.878906 421.875 585.484375 432.257812 573.902344 C 433.253906 572.90625 431.65625 571.3125 430.65625 572.3125 C 414.089844 589.285156 384.335938 586.882812 362.769531 584.292969 C 349.996094 582.695312 336.222656 580.890625 324.4375 586.289062 C 333.226562 578.496094 343.210938 568.117188 354.785156 571.710938 C 355.984375 572.109375 356.382812 570.316406 355.191406 569.910156 C 341.804688 565.324219 328.03125 578.496094 318.445312 586.6875 C 317.847656 586.085938 317.050781 585.484375 316.449219 584.886719 C 317.847656 583.691406 319.046875 581.890625 320.046875 580.300781 C 323.640625 574.902344 327.035156 569.316406 333.625 567.320312 C 335.019531 566.914062 334.417969 565.121094 333.023438 565.324219 C 328.632812 565.917969 325.035156 568.515625 322.246094 571.90625 C 319.445312 575.308594 317.050781 580.890625 312.855469 582.890625 C 311.855469 582.492188 310.859375 582.296875 310.0625 582.09375 C 329.824219 555.136719 350.394531 525.984375 380.546875 510.609375 C 380.945312 510.609375 381.339844 510.417969 381.738281 510.011719 C 385.933594 508.015625 390.132812 506.21875 394.523438 504.621094 C 403.703125 501.625 411.890625 500.433594 419.277344 501.625 C 407.296875 505.820312 396.316406 511.8125 386.136719 519.402344 C 385.335938 519.992188 386.136719 521.195312 386.933594 520.59375 C 398.914062 512.609375 411.890625 507.015625 425.664062 503.226562 C 428.066406 504.222656 430.460938 505.425781 432.652344 507.015625 C 427.46875 507.421875 422.078125 510.214844 417.882812 512.609375 C 416.882812 513.207031 417.679688 514.410156 418.675781 514.003906 C 421.476562 512.609375 424.472656 511.414062 427.46875 510.609375 C 430.066406 510.011719 432.855469 510.011719 435.453125 509.417969 C 438.847656 512.414062 441.839844 516.40625 444.4375 521.398438 C 449.625 530.976562 453.617188 541.957031 462.605469 548.75 C 463.804688 549.75 464.804688 547.753906 464.007812 546.753906 C 453.425781 533.574219 449.03125 516 437.449219 503.824219 C 426.070312 492.039062 409.292969 493.4375 394.71875 497.632812 C 392.324219 498.234375 389.929688 499.027344 387.535156 500.027344 C 394.921875 486.050781 398.3125 472.074219 398.710938 455.304688 C 399.3125 433.140625 401.113281 410.574219 400.308594 388.417969 C 400.707031 387.019531 401.113281 385.421875 401.511719 383.824219 C 401.910156 381.828125 398.914062 380.828125 398.3125 383.027344 C 398.117188 383.425781 397.914062 384.027344 397.914062 384.421875 C 397.710938 384.617188 397.515625 385.023438 397.316406 385.421875 C 397.316406 385.617188 397.316406 385.820312 397.316406 386.023438 C 388.726562 407.582031 358.378906 418.164062 352.195312 440.929688 C 351.390625 426.953125 348.394531 412.570312 338.8125 401.996094 C 325.238281 387.214844 307.667969 392.808594 291.492188 384.222656 C 290.09375 383.425781 288.699219 385.617188 290.09375 386.421875 C 303.675781 395.007812 321.042969 390.015625 333.023438 402.191406 C 346.398438 415.769531 347.796875 436.734375 346.796875 454.90625 C 344.800781 490.644531 328.429688 517.203125 307.464844 544.953125 C 305.46875 547.753906 309.664062 550.347656 312.058594 548.351562 C 337.8125 525.984375 350.992188 486.855469 352.195312 453.105469 C 352.988281 453.503906 354.191406 453.503906 354.589844 452.503906 C 361.773438 436.132812 368.566406 423.757812 381.941406 411.574219 C 387.136719 406.785156 392.527344 401.996094 396.316406 396.402344 C 395.121094 412.570312 395.316406 429.144531 394.523438 445.320312 C 394.125 456.5 394.125 467.886719 390.722656 478.664062 C 388.132812 487.445312 383.339844 495.433594 378.945312 503.621094 C 368.167969 508.816406 358.378906 515.601562 349.394531 523.589844 C 364.96875 497.03125 377.550781 468.476562 385.335938 439.730469 C 385.730469 438.332031 383.734375 437.734375 383.144531 439.128906 C 375.15625 464.890625 363.769531 488.851562 350.199219 512.007812 C 343.800781 522.792969 336.8125 533.378906 329.628906 543.757812 C 322.042969 552.542969 315.257812 561.921875 308.664062 571.3125 C 308.066406 571.3125 307.464844 571.3125 306.863281 571.710938 C 306.667969 571.710938 306.667969 571.90625 306.464844 572.109375 L 306.269531 572.109375 C 305.671875 572.3125 304.867188 572.710938 304.46875 573.3125 C 304.070312 573.507812 303.675781 573.707031 303.472656 574.105469 C 300.875 577.5 298.082031 580.890625 295.484375 584.089844 C 295.882812 581.890625 296.289062 579.699219 297.285156 577.304688 C 299.679688 571.90625 303.277344 567.117188 306.863281 562.726562 C 308.664062 563.328125 310.859375 562.726562 312.261719 561.128906 C 314.453125 558.734375 314.054688 554.742188 311.058594 553.140625 C 307.863281 551.347656 304.070312 553.9375 304.070312 557.335938 C 304.070312 557.734375 304.070312 557.929688 304.273438 558.335938 C 300.078125 562.328125 294.6875 568.117188 291.09375 574.308594 C 290.695312 571.710938 290.492188 569.113281 290.296875 566.519531 C 292.691406 544.554688 314.65625 531.574219 317.050781 509.417969 C 317.253906 508.015625 314.65625 507.617188 314.453125 509.011719 C 312.261719 524.984375 297.285156 537.371094 290.296875 552.144531 C 290.695312 544.757812 292.09375 537.566406 294.089844 530.78125 C 296.484375 530.578125 298.878906 528.785156 298.683594 525.984375 C 298.480469 522.191406 294.488281 519.402344 290.890625 520.398438 C 289.699219 520.796875 288.894531 521.59375 288.300781 522.589844 C 288.300781 522.191406 288.496094 521.992188 288.496094 521.59375 C 291.890625 509.214844 302.871094 500.832031 308.066406 489.449219 C 316.652344 470.679688 316.253906 449.710938 313.261719 429.746094 C 313.058594 428.148438 310.664062 428.949219 310.859375 430.347656 C 312.855469 445.117188 313.65625 460.296875 310.0625 474.875 C 307.066406 487.648438 300.476562 496.035156 292.691406 506.21875 C 283.707031 518.199219 281.90625 532.972656 283.902344 547.550781 C 283.105469 553.742188 282.902344 559.925781 282.902344 566.519531 C 282.902344 567.117188 282.902344 567.515625 282.902344 568.117188 C 280.710938 564.519531 278.316406 560.925781 275.914062 557.53125 C 276.71875 557.53125 277.320312 556.738281 277.117188 555.933594 C 274.722656 548.546875 271.921875 541.558594 273.917969 533.574219 C 275.121094 528.582031 278.117188 524.191406 279.910156 519.402344 C 282.710938 511.8125 283.308594 504.621094 281.3125 496.835938 C 280.90625 495.238281 278.714844 496.035156 278.910156 497.4375 C 281.90625 512.210938 273.125 520.992188 270.128906 534.171875 C 269.128906 538.167969 269.332031 541.957031 270.332031 545.753906 C 269.730469 545.753906 269.332031 545.753906 268.734375 545.949219 C 265.933594 546.949219 264.933594 549.75 265.339844 552.347656 C 265.535156 553.742188 266.929688 554.539062 268.132812 554.742188 C 272.328125 563.921875 276.914062 572.507812 280.710938 581.695312 C 274.324219 574.308594 266.734375 567.71875 258.351562 563.523438 C 258.546875 563.125 258.546875 562.726562 258.351562 562.125 C 249.164062 546.152344 235.585938 535.96875 221.007812 525.390625 C 220.007812 524.789062 219.011719 526.1875 219.8125 526.980469 C 226 532.175781 232.394531 537.371094 238.578125 542.761719 C 243.171875 546.753906 246.769531 551.542969 250.160156 556.339844 C 249.960938 556.339844 249.5625 556.339844 249.367188 556.535156 C 247.769531 556.933594 246.566406 558.132812 245.964844 559.53125 C 239.78125 555.933594 233.394531 552.542969 226.996094 548.75 C 212.824219 540.367188 203.441406 520.59375 185.269531 520.59375 C 184.273438 520.59375 184.273438 522.191406 185.269531 522.191406 C 199.042969 522.589844 204.441406 533.777344 213.019531 541.957031 C 217.816406 546.550781 223.410156 550.347656 229.195312 553.742188 C 234.984375 557.136719 240.578125 560.527344 246.167969 564.125 C 246.769531 564.917969 247.566406 565.519531 248.5625 565.722656 L 248.765625 565.722656 C 257.152344 571.3125 265.136719 577.101562 272.921875 584.089844 C 273.125 584.292969 273.328125 584.691406 273.519531 584.886719 C 271.921875 583.886719 270.128906 582.890625 268.734375 582.09375 C 264.738281 579.894531 260.941406 578.101562 256.753906 576.898438 C 257.546875 576.898438 258.546875 576.703125 259.351562 576.703125 C 261.144531 576.5 261.347656 573.707031 259.351562 573.707031 C 242.175781 574.105469 230.796875 565.917969 215.820312 560.128906 C 209.628906 557.734375 204.441406 557.734375 198.648438 561.128906 C 197.648438 561.730469 198.648438 563.125 199.449219 562.523438 C 211.226562 556.136719 223.605469 568.320312 233.984375 572.507812 C 237.183594 573.707031 240.179688 574.902344 243.375 575.707031 C 243.171875 576.101562 242.972656 576.5 242.972656 576.898438 C 242.175781 580.695312 245.964844 583.089844 249.164062 581.296875 C 249.960938 580.890625 250.363281 580.097656 250.558594 579.300781 C 253.15625 580.496094 255.949219 581.890625 258.546875 583.292969 C 256.753906 583.886719 254.949219 584.691406 253.554688 585.6875 C 253.359375 584.691406 252.757812 583.691406 251.363281 583.488281 C 226 579.300781 198.453125 580.097656 175.488281 589.878906 C 172.089844 582.890625 166.503906 577.703125 160.515625 572.3125 C 148.535156 561.921875 142.34375 554.34375 143.136719 537.566406 C 143.542969 527.980469 143.542969 519.199219 137.351562 511.414062 C 133.957031 507.015625 129.363281 503.824219 125.371094 500.230469 C 133.15625 501.226562 140.34375 503.023438 147.535156 506.617188 C 148.535156 507.21875 149.535156 505.621094 148.535156 505.019531 C 140.546875 500.433594 131.15625 497.234375 121.976562 497.03125 C 118.78125 493.84375 116.183594 490.246094 114.988281 485.457031 C 114.390625 483.460938 111.597656 484.257812 111.996094 486.253906 C 113.390625 495.636719 120.175781 500.628906 126.96875 506.820312 C 132.960938 512.414062 137.554688 517.597656 138.144531 526.390625 C 138.746094 533.777344 136.148438 540.957031 136.953125 548.351562 C 138.949219 568.910156 160.914062 576.101562 170.09375 592.472656 C 169.898438 592.675781 169.695312 592.675781 169.5 592.675781 C 169.09375 592.078125 168.300781 591.679688 167.503906 591.679688 C 143.339844 591.679688 129.160156 573.507812 118.179688 554.34375 C 106.800781 534.375 101.613281 511.210938 110.394531 489.25 C 110.996094 487.648438 108.601562 486.652344 107.796875 488.046875 C 95.023438 512.414062 101.410156 538.765625 114.988281 561.527344 C 125.371094 578.699219 140.34375 596.867188 161.3125 597.863281 C 158.917969 599.460938 156.714844 601.265625 154.523438 603.261719 C 133.753906 590.679688 111.394531 580.496094 88.230469 573.109375 C 83.238281 569.113281 78.847656 565.121094 76.054688 559.335938 C 73.253906 553.539062 72.660156 547.152344 68.667969 541.957031 C 67.671875 540.5625 65.671875 541.761719 66.46875 543.160156 C 69.863281 550.148438 70.664062 557.929688 74.660156 564.519531 C 75.851562 566.519531 77.246094 568.515625 78.847656 570.316406 C 54.691406 563.523438 29.53125 559.53125 4.371094 558.734375 C 2.972656 558.734375 3.175781 560.730469 4.371094 560.730469 C 22.941406 562.328125 40.910156 565.121094 58.683594 569.511719 C 47.296875 573.109375 35.519531 579.894531 29.132812 589.683594 C 29.132812 589.878906 28.929688 589.878906 28.929688 590.078125 C 26.738281 589.683594 24.742188 589.480469 22.941406 589.683594 C 14.359375 590.875 4.773438 599.859375 1.578125 607.652344 C 0.976562 609.25 3.371094 610.445312 4.371094 609.25 C 8.566406 604.054688 13.558594 597.464844 19.546875 594.472656 C 21.746094 593.277344 24.335938 593.074219 26.738281 593.472656 L 26.535156 593.675781 C 20.945312 599.859375 20.34375 610.445312 20.75 618.429688 C 20.75 619.828125 22.941406 619.828125 22.941406 618.429688 C 22.941406 614.039062 23.539062 609.84375 24.9375 605.851562 C 26.136719 602.261719 28.132812 598.863281 29.132812 595.273438 C 29.335938 594.671875 29.132812 594.277344 28.734375 593.871094 C 29.328125 594.074219 30.132812 594.277344 30.730469 594.472656 C 30.527344 597.066406 32.527344 599.664062 32.921875 602.058594 C 33.523438 605.257812 33.328125 608.253906 32.921875 611.441406 C 32.730469 612.441406 34.328125 612.839844 34.921875 612.042969 C 36.722656 608.84375 37.121094 605.257812 36.519531 601.660156 C 36.316406 600.0625 35.917969 598.066406 35.121094 596.273438 C 39.71875 598.464844 43.90625 601.660156 46.898438 604.257812 C 47.101562 604.453125 47.5 604.453125 47.703125 604.65625 C 47.5 604.851562 47.5 604.851562 47.296875 605.054688 C 38.515625 615.039062 33.921875 625.621094 36.121094 638.601562 C 33.921875 637.601562 31.128906 637 28.929688 637.398438 C 27.332031 637.601562 25.933594 638.398438 24.742188 639.394531 C 23.144531 640.792969 21.339844 644.191406 18.550781 643.59375 C 17.949219 641.59375 16.753906 643.988281 18.347656 644.589844 Z M 1.179688 630.214844 C 1.78125 625.417969 2.574219 620.425781 3.574219 615.640625 C 3.777344 614.4375 5.96875 614.640625 5.96875 616.035156 C 5.570312 621.628906 4.96875 627.222656 4.574219 632.804688 C 4.175781 636.402344 4.574219 640.394531 8.769531 641.59375 C 9.960938 641.992188 10.960938 641.992188 11.957031 642.390625 C 11.164062 639 11.5625 635.402344 11.957031 632.011719 C 12.355469 628.8125 12.761719 625.621094 14.15625 622.628906 C 14.554688 621.628906 15.953125 622.230469 15.953125 623.023438 C 16.351562 626.417969 15.554688 629.808594 15.554688 633.40625 C 15.351562 636.605469 15.757812 639.597656 15.15625 642.789062 C 14.953125 643.59375 14.351562 643.785156 13.761719 643.988281 C 13.761719 644.589844 13.558594 644.988281 12.957031 645.191406 C 8.566406 646.78125 2.777344 643.988281 1.179688 639.597656 C -0.0195312 636.605469 0.78125 633.210938 1.179688 630.214844 Z M 305.867188 319.328125 C 313.65625 317.933594 319.25 314.539062 325.035156 309.742188 C 320.644531 323.523438 318.648438 338.101562 310.664062 350.480469 C 301.871094 364.253906 288.300781 371.046875 272.921875 374.636719 C 272.921875 370.640625 272.328125 366.851562 270.925781 363.253906 C 287.894531 356.46875 301.675781 343.6875 311.660156 328.515625 C 312.660156 326.917969 310.265625 325.523438 309.265625 327.121094 C 298.683594 341.496094 284.902344 351.277344 269.128906 359.066406 C 267.53125 356.074219 265.535156 353.273438 263.34375 350.878906 C 263.34375 350.675781 263.34375 350.480469 263.34375 350.277344 C 263.140625 348.679688 263.140625 347.28125 262.9375 345.683594 C 263.742188 345.488281 264.339844 344.886719 264.738281 343.890625 C 271.328125 323.921875 288.300781 322.324219 305.867188 319.328125 Z M 270.332031 375.835938 C 270.128906 376.039062 270.128906 376.039062 269.925781 376.234375 C 260.542969 375.039062 251.761719 377.039062 242.574219 384.617188 C 232.988281 392.605469 224.804688 402.589844 220.609375 414.171875 C 206.4375 413.570312 200.644531 405.1875 189.863281 398.199219 C 183.671875 394.007812 176.285156 392.011719 168.898438 391.605469 C 169.296875 389.609375 169.09375 387.417969 168.695312 386.023438 C 177.488281 390.414062 188.265625 392.207031 197.648438 392.808594 C 198.847656 392.808594 199.042969 391.015625 197.851562 390.8125 C 192.054688 389.609375 186.269531 388.214844 180.675781 386.421875 C 176.285156 385.023438 172.292969 382.824219 168.097656 381.226562 C 168.097656 380.625 168.097656 380.03125 168.097656 379.433594 C 168.097656 379.433594 168.097656 379.433594 168.097656 379.230469 C 168.300781 379.828125 168.5 380.226562 169.296875 380.226562 C 178.28125 381.828125 185.871094 379.433594 194.457031 376.4375 C 209.027344 371.445312 221.609375 370.050781 236.582031 374.636719 C 237.980469 375.039062 238.578125 372.839844 237.183594 372.445312 C 227.996094 369.246094 218.816406 367.851562 209.027344 369.246094 C 195.253906 371.046875 183.671875 377.832031 169.5 377.039062 C 168.898438 377.039062 168.300781 377.433594 168.097656 377.832031 C 168.097656 377.628906 168.097656 377.628906 168.097656 377.433594 C 168.5 374.441406 168.898438 371.445312 168.695312 368.449219 C 183.476562 370.242188 198.046875 357.070312 210.027344 350.082031 C 237.582031 334.109375 264.339844 344.683594 270.332031 375.835938 Z M 167.097656 356.46875 C 185.472656 347.882812 201.445312 333.703125 216.015625 319.132812 C 212.226562 323.128906 208.433594 327.316406 204.636719 331.308594 C 193.65625 342.6875 182.875 354.269531 167.097656 356.46875 Z M 205.636719 322.128906 C 208.832031 319.929688 211.828125 317.535156 215.019531 315.335938 C 199.644531 328.914062 184.273438 342.097656 166.300781 352.875 C 175.289062 340.292969 194.457031 330.3125 205.636719 322.128906 Z M 155.117188 356.074219 C 155.117188 356.46875 155.117188 357.070312 155.117188 357.46875 C 155.117188 359.464844 156.917969 360.464844 158.714844 360.464844 C 158.917969 361.0625 159.515625 361.65625 160.3125 361.65625 C 161.109375 361.859375 161.707031 361.859375 162.511719 361.859375 C 162.511719 362.0625 162.511719 362.257812 162.707031 362.65625 C 165.101562 366.851562 164.90625 370.242188 164.101562 374.238281 C 163.105469 374.042969 162.105469 374.042969 161.109375 374.238281 C 158.917969 374.636719 156.917969 375.039062 155.117188 375.4375 C 156.523438 373.839844 157.113281 371.84375 156.917969 369.449219 C 156.714844 367.648438 155.921875 366.054688 154.921875 364.457031 C 155.117188 363.457031 154.523438 362.65625 153.722656 362.257812 L 153.722656 362.0625 C 151.929688 358.660156 151.929688 355.269531 151.929688 351.875 C 152.324219 352.273438 152.722656 352.875 153.324219 353.476562 C 153.527344 354.269531 154.320312 355.269531 155.117188 356.074219 Z M 134.355469 246.847656 C 134.558594 244.257812 134.558594 241.664062 134.753906 239.066406 L 134.957031 238.863281 C 140.34375 232.675781 143.339844 224.886719 148.933594 218.699219 C 155.320312 211.710938 162.308594 208.515625 170.691406 204.519531 C 172.292969 203.726562 171.089844 201.527344 169.5 201.925781 C 160.710938 203.726562 152.722656 208.515625 146.539062 214.707031 C 142.546875 218.699219 138.144531 223.886719 134.957031 229.480469 C 134.957031 226.289062 135.152344 223.089844 135.152344 219.894531 C 153.722656 203.125 168.695312 183.160156 195.652344 186.355469 C 180.074219 194.34375 183.070312 219.699219 164.507812 225.089844 C 163.511719 225.292969 163.105469 226.085938 162.910156 226.882812 C 152.324219 223.089844 141.34375 235.46875 134.355469 246.847656 Z M 137.351562 182.160156 C 137.148438 182.160156 137.148438 182.160156 136.953125 182.160156 C 137.148438 181.957031 137.351562 181.761719 137.554688 181.558594 C 141.140625 175.171875 145.9375 172.175781 151.53125 167.785156 C 156.714844 163.792969 161.3125 159.402344 165.703125 154.410156 C 166.902344 153.207031 165.101562 151.210938 163.90625 152.609375 C 157.714844 158.597656 150.929688 163.988281 143.339844 168.582031 C 142.34375 169.183594 141.34375 169.78125 140.34375 170.578125 C 153.925781 153.207031 172.496094 130.644531 194.054688 129.046875 C 185.667969 133.242188 181.480469 142.625 177.082031 151.007812 C 168.097656 168.582031 159.109375 182.761719 137.351562 182.160156 Z M 143.136719 113.875 C 142.941406 113.875 142.941406 113.875 143.136719 113.875 C 147.332031 110.28125 151.125 106.085938 155.523438 102.691406 C 161.109375 98.503906 167.300781 95.101562 173.492188 91.914062 C 175.488281 90.914062 174.085938 87.519531 171.894531 88.316406 C 164.90625 91.109375 158.316406 94.90625 152.121094 99.5 C 148.933594 101.894531 145.335938 104.492188 142.34375 107.285156 C 142.34375 107.082031 142.34375 106.886719 142.546875 106.683594 C 153.722656 87.117188 173.890625 76.132812 195.457031 72.546875 C 191.058594 75.9375 188.46875 80.929688 185.066406 86.921875 C 176.488281 102.894531 163.703125 119.265625 143.136719 113.875 Z M 155.117188 63.757812 C 155.117188 63.5625 155.117188 63.5625 155.117188 63.359375 C 162.105469 54.578125 166.699219 43.59375 168.5 32.410156 C 168.695312 30.617188 166.097656 29.8125 165.703125 31.613281 C 163.90625 41.792969 160.3125 50.582031 154.71875 58.96875 C 154.121094 46.988281 157.113281 35.609375 162.511719 24.625 C 165.304688 19.035156 168.5 13.839844 171.089844 8.246094 C 171.691406 17.433594 172.496094 26.625 171.691406 35.804688 C 170.691406 48.585938 163.308594 55.769531 155.117188 63.757812 Z M 133.558594 107.285156 C 131.757812 103.691406 129.964844 99.898438 127.96875 96.507812 C 124.769531 91.109375 120.175781 85.71875 119.179688 79.332031 C 118.984375 77.9375 116.785156 78.332031 116.785156 79.730469 C 117.179688 85.117188 120.175781 89.316406 122.773438 93.910156 C 126.570312 100.5 129.761719 107.285156 132.5625 114.273438 C 132.960938 115.070312 133.558594 115.472656 133.957031 115.472656 C 133.957031 115.472656 133.957031 115.472656 133.957031 115.667969 C 133.957031 116.667969 134.558594 117.269531 135.152344 117.472656 C 134.957031 118.0625 134.957031 118.46875 134.753906 119.0625 C 123.773438 110.878906 114.1875 102.691406 108 90.109375 C 101.207031 76.335938 100.808594 61.363281 99.414062 46.589844 C 108 54.171875 117.382812 59.566406 123.773438 69.746094 C 131.15625 81.328125 132.5625 94.308594 133.558594 107.285156 Z M 128.570312 178.371094 C 128.570312 179.164062 128.570312 179.960938 128.367188 180.765625 C 126.167969 177.769531 123.375 174.96875 121.378906 172.574219 C 114.785156 164.789062 107.402344 158.402344 99.210938 152.414062 C 98.214844 151.609375 97.019531 153.207031 98.019531 154.003906 C 104.007812 159.402344 109.796875 165.1875 115.183594 171.179688 C 120.378906 176.964844 123.972656 183.359375 128.164062 189.546875 C 128.164062 190.941406 128.164062 192.347656 127.96875 193.742188 C 112.390625 183.953125 98.8125 174.375 92.628906 156 C 89.226562 146.015625 88.636719 135.238281 81.046875 128.648438 C 93.625 131.246094 102.410156 143.023438 110.792969 152.414062 C 117.78125 160.796875 123.578125 169.183594 128.570312 178.371094 Z M 132.960938 341.097656 C 126.96875 330.3125 118.179688 321.132812 111.394531 310.742188 C 105.203125 301.164062 99.015625 291.578125 92.628906 281.992188 C 109.601562 299.761719 127.765625 316.535156 132.960938 341.097656 Z M 100.808594 307.949219 C 95.023438 296.367188 90.429688 284.386719 84.042969 273.007812 C 92.027344 286.1875 100.414062 299.363281 108.796875 312.339844 C 116.386719 324.125 126.765625 335.109375 132.757812 347.679688 C 133.15625 348.484375 133.753906 348.679688 134.355469 348.484375 C 134.753906 349.480469 135.558594 350.082031 136.554688 350.277344 C 135.75 350.480469 135.152344 351.082031 135.558594 352.078125 C 137.351562 360.464844 127.164062 365.851562 129.964844 374.441406 C 132.15625 381.828125 140.34375 385.617188 143.136719 392.605469 C 141.742188 393.011719 140.144531 393.410156 138.746094 393.410156 C 135.558594 393.410156 133.15625 391.410156 130.160156 391.210938 L 129.964844 391.210938 C 129.964844 391.015625 129.964844 390.8125 130.160156 390.609375 C 130.363281 389.8125 129.566406 389.015625 128.964844 388.613281 C 129.160156 388.214844 129.566406 387.816406 129.761719 387.417969 C 130.363281 386.421875 128.964844 385.421875 128.164062 386.21875 C 116.785156 399.195312 104.609375 405.785156 88.636719 411.777344 C 78.652344 415.371094 74.457031 421.160156 67.863281 427.546875 C 80.242188 403.789062 101.011719 392.605469 126.765625 384.617188 C 128.761719 384.027344 128.570312 380.625 126.167969 380.828125 C 125.972656 380.828125 125.769531 380.828125 125.769531 380.828125 C 125.574219 380.03125 124.972656 379.230469 123.773438 378.832031 C 122.773438 378.433594 121.976562 378.230469 120.980469 378.035156 C 120.980469 376.234375 121.378906 374.839844 122.171875 373.636719 C 123.375 373.441406 124.371094 373.238281 125.574219 372.839844 C 126.765625 372.445312 126.765625 370.445312 125.167969 370.445312 C 124.972656 370.445312 124.769531 370.445312 124.371094 370.445312 C 124.769531 370.050781 124.972656 369.449219 125.167969 369.050781 C 126.570312 368.847656 127.164062 367.054688 126.167969 366.054688 C 126.96875 362.257812 126.167969 358.46875 128.964844 355.269531 C 130.363281 355.074219 131.359375 354.074219 131.359375 352.875 C 132.757812 352.078125 133.558594 349.878906 132.359375 348.484375 C 119.777344 335.699219 108.601562 323.921875 100.808594 307.949219 Z M 63.871094 434.738281 C 64.074219 434.136719 64.472656 433.339844 64.871094 432.742188 C 64.871094 432.742188 65.074219 432.742188 65.074219 432.539062 C 65.671875 432.140625 66.070312 431.742188 66.46875 431.34375 C 65.472656 432.539062 64.675781 433.535156 63.871094 434.738281 Z M 89.03125 418.367188 C 82.839844 420.964844 75.054688 424.355469 69.261719 428.949219 C 72.660156 425.355469 75.25 421.160156 79.449219 418.367188 C 86.234375 413.976562 94.820312 412.773438 102.207031 409.382812 C 111.191406 405.386719 119.179688 399.59375 125.371094 392.207031 C 121.582031 400.996094 118.984375 408.179688 108.398438 412.375 C 102.207031 414.769531 95.421875 415.769531 89.03125 418.367188 Z M 117.382812 433.738281 C 121.976562 421.558594 126.570312 409.382812 130.566406 397.003906 C 132.757812 398.398438 135.75 399 138.144531 399 C 138.144531 399 138.144531 399 138.347656 399 C 136.351562 404.1875 136.554688 410.175781 136.554688 415.769531 C 136.554688 426.351562 136.554688 436.9375 136.75 447.320312 C 136.75 448.714844 138.949219 448.714844 138.949219 447.320312 C 139.550781 430.949219 138.144531 414.171875 141.945312 398.398438 C 143.941406 397.800781 145.9375 397.003906 147.933594 396.199219 C 145.9375 405.582031 147.132812 415.769531 148.332031 425.152344 C 148.535156 426.351562 150.328125 426.351562 150.328125 425.152344 C 149.332031 415.167969 150.53125 405.386719 151.125 395.601562 C 152.925781 395.40625 154.921875 395.804688 156.917969 397.003906 L 156.917969 397.199219 C 160.3125 408.78125 163.105469 422.15625 169.898438 432.34375 C 174.492188 439.128906 180.675781 443.722656 182.671875 452.105469 C 184.070312 458.496094 183.671875 465.085938 182.875 471.675781 C 174.289062 468.285156 164.90625 465.484375 155.71875 464.6875 C 155.117188 458.902344 154.921875 453.308594 154.71875 447.511719 C 154.71875 446.320312 152.925781 446.117188 152.722656 447.320312 C 151.726562 452.910156 151.726562 458.902344 152.324219 464.484375 C 139.144531 463.890625 126.570312 466.886719 116.785156 476.066406 C 106.003906 462.691406 112.191406 447.714844 117.382812 433.738281 Z M 151.125 367.851562 C 152.121094 370.445312 152.121094 373.042969 149.128906 374.441406 L 148.933594 374.636719 C 143.738281 372.839844 139.144531 372.839844 135.355469 377.039062 C 132.359375 372.445312 133.558594 368.644531 135.355469 364.652344 C 135.75 364.652344 135.953125 364.652344 136.351562 364.457031 C 139.550781 362.859375 142.34375 363.253906 144.941406 365.457031 C 146.132812 366.25 147.132812 367.25 148.535156 367.851562 C 149.332031 368.050781 150.328125 368.050781 151.125 367.851562 Z M 145.132812 348.882812 C 145.734375 349.480469 146.734375 349.878906 147.535156 349.480469 C 146.335938 352.671875 146.539062 356.265625 147.332031 359.660156 C 147.535156 360.660156 148.128906 361.65625 148.535156 362.65625 C 146.539062 362.0625 143.738281 360.660156 142.546875 360.464844 C 140.546875 360.066406 138.746094 360.464844 136.953125 361.0625 C 138.144531 358.265625 139.144531 355.269531 138.550781 352.078125 C 138.949219 352.078125 139.347656 351.875 139.746094 351.671875 C 141.546875 349.878906 143.339844 349.085938 145.132812 348.882812 Z M 165.703125 404.1875 C 165.507812 403.390625 164.703125 403.1875 164.101562 403.1875 C 163.105469 400.59375 162.105469 397.800781 160.914062 395.203125 C 160.515625 394.40625 159.710938 394.007812 158.917969 394.203125 C 156.523438 391.015625 152.527344 390.609375 148.535156 391.210938 C 148.332031 391.210938 148.332031 391.210938 148.128906 391.210938 C 145.539062 385.617188 140.742188 383.425781 136.953125 379.230469 C 142.546875 373.839844 146.132812 378.832031 151.53125 380.226562 C 155.320312 381.03125 158.917969 378.832031 162.707031 379.230469 C 162.707031 379.433594 162.707031 379.625 162.707031 379.828125 C 162.308594 380.429688 162.308594 381.429688 162.910156 381.828125 C 163.511719 385.023438 165.507812 388.613281 164.304688 391.210938 C 164.101562 391.210938 163.90625 391.410156 163.90625 391.410156 C 163.703125 391.410156 163.511719 391.210938 163.308594 391.210938 C 160.515625 390.609375 159.3125 394.804688 162.105469 395.601562 C 163.703125 396.003906 165.101562 396.402344 166.503906 396.800781 C 177.683594 405.1875 183.875 419.164062 191.464844 430.746094 C 197.25 439.730469 203.242188 449.113281 209.832031 457.496094 C 210.429688 459.09375 211.226562 460.695312 212.023438 462.089844 C 193.65625 445.117188 173.492188 429.949219 165.703125 404.1875 Z M 204.238281 443.519531 C 198.648438 435.734375 192.859375 427.75 187.664062 419.761719 C 183.070312 412.773438 178.882812 405.988281 173.289062 400.195312 C 188.46875 408.578125 197.453125 425.152344 203.636719 441.523438 C 203.636719 442.328125 204.035156 442.925781 204.238281 443.519531 Z M 269.730469 378.832031 L 269.925781 378.832031 C 269.925781 379.035156 270.128906 379.035156 270.128906 379.230469 C 270.128906 379.035156 269.925781 379.035156 269.730469 378.832031 Z M 296.484375 265.816406 C 301.476562 256.035156 303.675781 244.257812 304.867188 233.871094 C 305.070312 232.472656 302.871094 232.28125 302.472656 233.472656 C 300.28125 242.660156 297.878906 252.839844 293.691406 261.230469 C 289.097656 270.410156 282.109375 274.402344 273.917969 279 C 273.125 259.429688 275.914062 241.855469 290.296875 227.289062 C 297.285156 220.097656 305.671875 215.308594 311.261719 207.515625 C 309.664062 221.890625 308.664062 237.066406 304.867188 250.648438 C 303.277344 257.238281 300.28125 262.027344 296.484375 265.816406 Z M 106.800781 235.46875 C 108.195312 238.667969 109.601562 242.261719 111.191406 245.65625 C 100.210938 236.46875 91.425781 226.484375 86.4375 212.710938 C 86.039062 211.3125 83.839844 211.90625 84.234375 213.3125 C 88.433594 226.484375 96.019531 239.269531 107.003906 247.847656 C 96.417969 243.058594 86.832031 236.671875 78.847656 227.484375 C 70.460938 217.703125 66.671875 204.722656 57.882812 195.535156 C 70.859375 194.539062 79.648438 197.929688 88.433594 208.515625 C 95.820312 216.898438 102.207031 225.484375 106.800781 235.46875 Z M 112.59375 248.84375 C 112.789062 249.445312 113.1875 250.046875 113.390625 250.445312 C 112.789062 250.25 112.191406 250.046875 111.792969 249.84375 C 111.996094 249.648438 112.390625 249.25 112.59375 248.84375 Z M 329.824219 305.953125 C 330.230469 304.160156 328.03125 303.355469 327.035156 304.558594 C 326.832031 304.558594 326.433594 304.558594 326.238281 304.753906 C 312.261719 314.734375 296.882812 312.144531 281.710938 318.136719 C 274.121094 321.132812 267.53125 326.121094 263.539062 332.707031 C 264.535156 316.730469 268.53125 300.757812 271.523438 285.386719 C 272.125 285.988281 273.125 286.382812 274.121094 286.1875 C 313.65625 278.398438 312.261719 234.277344 314.453125 202.921875 C 314.851562 202.328125 315.054688 201.527344 315.453125 200.730469 C 316.253906 198.734375 313.058594 197.53125 312.058594 199.335938 C 305.070312 214.902344 285.5 221.492188 276.71875 236.671875 C 269.332031 249.445312 265.339844 266.222656 269.527344 280.597656 C 269.730469 281.199219 270.128906 281.59375 270.527344 281.992188 C 270.527344 282.195312 270.527344 282.390625 270.527344 282.59375 C 270.527344 282.789062 270.527344 282.992188 270.527344 283.195312 C 270.128906 283.195312 269.925781 283.390625 269.730469 283.988281 C 265.933594 296.570312 263.34375 309.742188 260.941406 322.722656 C 259.542969 330.117188 257.351562 338.296875 258.148438 345.886719 C 251.761719 341.097656 244.171875 338.101562 236.183594 337.503906 C 224.601562 336.699219 214.222656 341.496094 204.441406 347.085938 C 198.847656 350.277344 193.460938 353.871094 187.867188 356.867188 C 181.480469 360.261719 174.6875 361.460938 168.300781 364.058594 C 167.902344 363.457031 167.699219 362.859375 167.300781 362.257812 C 179.28125 361.65625 189.0625 354.871094 197.648438 346.089844 C 213.621094 330.117188 229.398438 312.941406 243.570312 295.371094 C 244.570312 294.175781 242.972656 292.578125 241.972656 293.769531 L 241.777344 293.972656 C 241.378906 293.769531 240.972656 293.769531 240.382812 293.972656 C 222.410156 304.160156 205.636719 316.730469 189.265625 328.914062 C 180.878906 335.300781 170.296875 341.292969 163.90625 349.878906 C 172.894531 323.523438 204.035156 306.554688 213.621094 279.996094 C 217.015625 270.613281 217.21875 259.03125 211.625 250.25 C 204.441406 239.066406 191.464844 240.265625 180.878906 234.671875 C 179.484375 233.871094 178.078125 236.070312 179.484375 236.867188 C 180.878906 237.863281 182.277344 238.464844 183.875 239.269531 C 172.691406 251.042969 165.703125 266.019531 163.308594 282.195312 C 163.105469 283.988281 165.90625 284.785156 166.097656 282.992188 C 168.300781 267.019531 175.289062 253.246094 186.472656 241.855469 C 186.871094 241.460938 187.0625 241.0625 187.0625 240.664062 C 189.464844 241.460938 192.054688 242.058594 194.855469 242.855469 C 205.238281 245.851562 212.429688 253.4375 213.019531 264.625 C 213.824219 281.394531 201.445312 293.972656 191.261719 305.351562 C 180.277344 317.535156 161.109375 332.90625 156.714844 350.277344 C 156.523438 350.082031 156.320312 349.878906 156.117188 349.675781 C 154.320312 347.882812 152.527344 346.285156 150.125 345.683594 C 149.929688 345.683594 149.726562 345.683594 149.332031 345.488281 C 150.726562 335.109375 151.726562 324.71875 153.121094 314.335938 C 153.324219 312.941406 150.726562 312.542969 150.53125 313.941406 C 148.933594 324.320312 147.132812 334.703125 145.539062 345.285156 C 144.542969 345.488281 143.542969 345.683594 142.738281 345.886719 C 141.546875 326.316406 131.960938 307.746094 131.359375 287.585938 C 130.960938 272.609375 143.136719 214.308594 169.5 234.277344 C 170.691406 235.070312 171.691406 233.472656 170.894531 232.472656 C 170.09375 231.476562 169.296875 230.679688 168.300781 229.878906 C 188.0625 225.6875 184.871094 195.535156 202.445312 187.550781 C 202.84375 187.355469 203.046875 187.152344 203.046875 186.949219 C 204.238281 186.152344 204.238281 183.953125 202.640625 183.554688 C 174.289062 176.769531 153.925781 191.542969 136.15625 210.714844 C 136.351562 201.925781 136.351562 193.34375 136.554688 184.554688 C 136.75 184.953125 136.953125 185.15625 137.15625 185.359375 C 147.140625 191.347656 159.117188 185.949219 166.902344 178.566406 C 180.480469 165.585938 181.878906 135.839844 201.242188 130.042969 C 202.640625 129.644531 202.640625 128.25 201.84375 127.453125 C 201.84375 127.453125 201.84375 127.25 201.640625 127.25 C 190.261719 119.46875 174.890625 131.449219 165.90625 138.234375 C 154.921875 146.617188 145.335938 156.601562 136.75 167.183594 C 137.351562 150.214844 138.746094 133.445312 141.34375 116.871094 C 141.546875 117.066406 141.742188 117.269531 141.945312 117.472656 C 151.929688 122.464844 163.105469 120.0625 171.894531 113.476562 C 186.066406 102.691406 189.0625 77.539062 205.835938 71.34375 L 206.03125 71.34375 C 209.230469 71.140625 209.230469 66.152344 206.03125 66.355469 C 180.675781 68.351562 158.316406 80.332031 144.339844 101.296875 C 146.9375 89.714844 150.53125 78.128906 155.117188 66.75 C 162.511719 61.363281 169.898438 54.769531 173.085938 46.183594 C 178.078125 33.207031 174.6875 16.234375 174.289062 2.664062 C 174.289062 2.257812 174.085938 1.859375 173.890625 1.664062 C 174.085938 0.464844 172.496094 0.0664062 172.089844 1.257812 C 171.496094 1.460938 171.089844 1.859375 171.089844 2.664062 C 171.089844 2.859375 171.089844 3.257812 171.089844 3.457031 C 167.300781 13.238281 160.109375 21.632812 155.921875 31.410156 C 151.53125 41.996094 149.929688 52.175781 151.328125 63.5625 C 151.328125 64.152344 151.726562 64.355469 151.929688 64.753906 C 146.335938 77.335938 141.945312 90.3125 138.746094 103.496094 C 137.75 92.308594 134.355469 81.328125 128.964844 71.546875 C 121.582031 57.96875 110.191406 52.375 99.210938 42.394531 C 98.617188 41.191406 96.417969 41.394531 96.214844 42.996094 C 93.625 74.339844 103.007812 110.679688 133.957031 124.855469 C 131.5625 139.230469 129.964844 153.808594 128.964844 168.582031 C 123.171875 159.597656 115.785156 151.609375 108.398438 143.824219 C 99.8125 135.035156 89.429688 122.65625 76.054688 125.652344 C 75.851562 125.652344 75.65625 125.457031 75.453125 125.457031 C 74.253906 124.855469 73.058594 126.050781 73.058594 127.050781 C 72.855469 127.851562 73.058594 128.648438 74.058594 128.648438 C 74.253906 128.648438 74.253906 128.648438 74.457031 128.648438 C 85.835938 135.238281 84.640625 148.613281 88.230469 159.597656 C 90.226562 165.789062 93.222656 171.574219 97.019531 176.964844 C 104.203125 186.753906 114.988281 196.339844 126.96875 199.132812 C 127.164062 199.132812 127.367188 199.132812 127.570312 199.132812 C 126.96875 219.496094 126.96875 239.859375 126.367188 260.03125 C 105.800781 233.871094 96.417969 184.359375 54.488281 193.140625 C 52.890625 193.539062 53.289062 196.136719 54.886719 195.933594 C 61.476562 202.726562 63.675781 211.90625 68.464844 219.894531 C 71.859375 225.6875 76.054688 230.875 80.648438 235.671875 C 90.429688 245.65625 102.808594 253.640625 116.183594 257.238281 C 116.386719 257.238281 116.589844 257.238281 116.785156 257.238281 C 119.179688 261.027344 122.171875 264.226562 126.167969 266.417969 C 126.167969 266.816406 126.167969 267.222656 126.167969 267.617188 C 123.773438 278.796875 123.773438 290.582031 125.167969 301.960938 C 125.574219 305.75 126.167969 309.945312 126.96875 314.140625 C 113.789062 294.972656 93.425781 279.792969 78.449219 262.425781 C 77.449219 261.230469 75.65625 263.023438 76.65625 264.226562 C 77.054688 264.820312 77.449219 265.222656 78.050781 265.816406 C 78.050781 266.019531 78.050781 266.222656 78.050781 266.621094 C 90.632812 290.378906 97.214844 318.929688 114.785156 339.5 C 108.398438 334.109375 102.011719 328.710938 94.820312 324.320312 C 82.839844 316.933594 67.265625 315.9375 53.492188 316.933594 C 28.734375 318.730469 19.148438 344.683594 27.535156 366.054688 C 27.933594 367.25 29.734375 366.648438 29.328125 365.457031 C 24.335938 351.082031 28.53125 328.710938 44.902344 323.71875 C 54.886719 320.53125 71.859375 322.324219 81.445312 325.125 C 98.214844 330.117188 107.796875 347.679688 123.578125 353.476562 C 121.773438 356.074219 121.175781 359.261719 120.582031 362.859375 C 120.582031 363.0625 120.582031 363.0625 120.378906 363.253906 C 110.996094 358.863281 104.203125 350.480469 94.820312 345.683594 C 86.636719 341.496094 78.050781 339.894531 68.863281 340.097656 C 67.671875 340.097656 67.671875 341.691406 68.863281 341.894531 C 82.441406 342.492188 94.21875 347.28125 104.40625 356.265625 C 109.398438 360.660156 113.390625 364.253906 118.984375 366.453125 C 118.382812 367.453125 117.585938 368.246094 116.785156 369.246094 C 102.410156 366.453125 89.429688 355.472656 74.253906 359.863281 C 73.058594 360.261719 73.660156 361.859375 74.660156 361.65625 C 89.429688 358.070312 101.207031 371.242188 114.785156 373.238281 C 114.390625 374.441406 114.390625 375.835938 114.390625 377.234375 C 104.40625 377.433594 94.820312 382.621094 84.835938 384.222656 C 67.070312 387.214844 44.304688 385.617188 32.730469 370.242188 C 31.730469 368.847656 29.328125 370.050781 30.328125 371.640625 C 37.71875 383.621094 51.292969 388.019531 64.472656 390.015625 C 71.664062 391.015625 78.847656 391.410156 86.039062 390.414062 C 94.023438 389.210938 101.207031 386.023438 108.796875 384.421875 C 87.230469 393.011719 69.464844 413.570312 61.476562 434.136719 C 61.078125 435.339844 62.679688 435.734375 63.269531 434.941406 C 63.078125 435.734375 64.269531 436.335938 64.871094 435.734375 C 77.847656 421.558594 97.019531 421.757812 113.1875 414.171875 C 116.386719 412.773438 118.984375 410.574219 121.175781 408.179688 C 115.988281 421.558594 110.792969 435.339844 108 448.917969 C 105.800781 459.296875 106.605469 469.679688 114.785156 477.066406 C 113.789062 478.0625 112.789062 479.265625 111.792969 480.457031 C 110.996094 481.457031 112.789062 482.65625 113.59375 481.863281 C 136.953125 454.5 179.679688 472.472656 203.441406 490.644531 C 215.617188 500.027344 225.203125 511.210938 233.589844 523.792969 C 239.578125 532.777344 245.375 542.363281 253.953125 548.945312 C 256.355469 550.746094 259.941406 547.152344 258.148438 544.757812 C 237.980469 517.597656 221.007812 489.441406 189.464844 474.070312 C 188.0625 473.46875 186.667969 472.675781 185.066406 472.074219 C 186.871094 461.09375 188.265625 450.109375 182.476562 440.523438 C 194.652344 453.308594 208.230469 466.285156 222.410156 476.667969 C 222.808594 477.066406 223.410156 476.871094 223.605469 476.464844 C 224.601562 476.269531 225.203125 475.070312 224.410156 474.070312 C 221.414062 470.878906 218.816406 467.285156 216.421875 463.488281 C 216.820312 463.089844 217.015625 462.488281 216.617188 461.894531 C 214.824219 459.09375 213.019531 456.5 211.226562 453.707031 C 201.84375 433.738281 195.855469 410.175781 178.484375 398.003906 C 181.074219 398.59375 183.476562 399.398438 185.871094 400.792969 C 189.863281 402.992188 193.257812 405.988281 196.851562 408.578125 C 203.839844 413.773438 210.828125 416.769531 219.417969 416.566406 C 218.613281 418.96875 218.011719 421.558594 217.816406 423.960938 C 215.21875 442.925781 220.414062 463.488281 227.800781 480.863281 C 235.390625 498.832031 251.160156 514.003906 254.757812 533.574219 C 255.355469 536.566406 260.542969 535.96875 260.144531 532.777344 C 258.75 520.195312 251.761719 510.8125 244.96875 500.433594 C 235.984375 486.652344 229.195312 471.675781 225.40625 455.5 C 220.8125 435.339844 220.609375 415.972656 234.1875 399 C 238.976562 393.011719 244.96875 386.21875 251.363281 382.222656 C 257.152344 378.628906 262.9375 377.628906 268.53125 378.230469 C 268.132812 378.230469 267.734375 378.628906 267.53125 379.230469 C 262.9375 391.210938 262.9375 403.992188 263.140625 416.566406 C 263.140625 417.96875 265.136719 417.96875 265.136719 416.566406 C 265.535156 403.992188 266.136719 392.011719 270.128906 380.03125 C 270.332031 379.625 270.128906 379.230469 270.128906 379.035156 C 270.527344 379.625 271.128906 379.828125 271.921875 379.828125 C 272.921875 379.828125 273.722656 379.625 274.722656 379.625 C 275.519531 379.828125 276.515625 380.03125 277.320312 380.429688 C 275.519531 384.222656 275.722656 389.414062 275.914062 393.011719 C 276.117188 394.203125 277.71875 394.203125 277.71875 393.011719 C 277.71875 390.210938 278.117188 387.417969 278.910156 384.820312 C 279.316406 383.621094 279.714844 382.621094 280.316406 381.429688 C 281.710938 382.027344 283.308594 382.425781 284.707031 383.027344 C 286.5 383.621094 287.101562 381.03125 285.5 380.226562 C 284.105469 379.625 282.507812 379.230469 281.109375 378.628906 L 281.109375 378.433594 C 313.058594 371.046875 324.4375 335.699219 329.824219 305.953125 Z M 510.929688 915.933594 C 516.117188 909.546875 519.3125 901.957031 518.113281 893.175781 C 517.714844 890.179688 516.917969 886.980469 516.117188 883.988281 C 527.699219 902.355469 538.882812 920.925781 541.675781 943.488281 C 541.878906 944.886719 544.070312 945.089844 544.070312 943.488281 C 544.46875 927.914062 538.078125 913.539062 530.492188 900.164062 C 524.101562 888.582031 517.511719 876.804688 510.328125 865.222656 C 520.109375 875.601562 531.089844 885.1875 541.878906 893.371094 C 541.675781 893.777344 541.675781 894.367188 541.878906 894.773438 C 546.667969 903.953125 552.453125 911.144531 555.855469 921.324219 C 558.847656 930.308594 560.644531 939.894531 560.847656 949.277344 C 561.039062 962.253906 556.851562 975.039062 560.847656 987.214844 C 538.882812 966.847656 513.925781 947.878906 510.929688 915.933594 Z M 612.554688 936.703125 C 619.34375 943.089844 624.535156 950.679688 631.320312 957.261719 C 640.308594 966.054688 650.695312 973.238281 661.078125 980.226562 C 662.074219 980.824219 663.269531 979.226562 662.472656 978.429688 C 650.890625 969.242188 639.308594 959.859375 629.730469 948.480469 C 624.933594 942.695312 620.746094 936.101562 614.949219 931.113281 C 634.917969 935.105469 650.09375 945.28125 663.269531 962.660156 C 673.65625 976.230469 685.832031 985.019531 700.613281 992.609375 C 680.238281 994.007812 660.875 989.617188 643.707031 977.035156 C 628.328125 966.054688 620.941406 951.875 612.554688 936.703125 Z M 609.5625 899.359375 C 614.949219 899.960938 620.542969 899.765625 626.136719 899.164062 C 642.710938 897.167969 659.273438 893.574219 675.847656 890.78125 C 677.449219 890.578125 677.050781 887.785156 675.453125 887.980469 C 651.09375 890.578125 622.539062 897.964844 598.78125 889.976562 C 611.355469 889.78125 622.742188 885.585938 634.917969 880.59375 C 657.277344 871.210938 676.652344 877 695.019531 890.179688 C 677.449219 894.773438 666.261719 911.339844 646.5 911.542969 C 632.320312 911.746094 620.542969 906.347656 609.5625 899.359375 Z M 595.382812 889.976562 C 595.585938 889.976562 595.789062 889.976562 595.984375 889.976562 L 595.789062 890.179688 C 595.585938 890.179688 595.382812 889.976562 595.382812 889.976562 Z M 484.371094 934.902344 C 491.554688 931.710938 499.746094 927.117188 506.132812 920.925781 C 508.332031 952.078125 541.675781 976.035156 563.433594 994.007812 C 564.839844 995.199219 566.835938 993.40625 565.835938 992.007812 C 566.03125 991.613281 566.234375 991.011719 565.835938 990.410156 C 557.648438 973.640625 566.429688 950.476562 563.839844 932.109375 C 562.4375 922.320312 559.246094 910.941406 553.453125 901.957031 C 568.628906 912.539062 585.203125 921.921875 602.175781 928.3125 C 602.175781 928.910156 602.574219 929.511719 603.367188 929.511719 C 603.570312 929.714844 603.773438 930.113281 604.171875 930.308594 C 604.367188 930.308594 604.367188 930.511719 604.367188 930.511719 C 612.160156 974.640625 666.667969 1008.980469 709.394531 996.199219 C 712.1875 995.402344 710.992188 991.410156 708.195312 991.808594 C 708 991.808594 707.796875 991.808594 707.398438 991.808594 C 707.195312 991.613281 707 991.207031 706.601562 991.011719 C 695.214844 985.019531 683.640625 979.226562 674.25 970.046875 C 666.261719 962.253906 660.679688 952.269531 652.09375 944.886719 C 640.113281 934.707031 624.933594 928.117188 609.359375 927.117188 C 608.359375 926.519531 607.167969 925.917969 605.964844 925.519531 C 604.96875 925.121094 604.171875 925.519531 603.773438 925.917969 C 582.808594 915.332031 563.242188 904.351562 544.871094 889.578125 C 553.453125 892.972656 562.4375 894.773438 571.023438 893.175781 C 576.015625 892.371094 581.007812 890.976562 585.804688 888.980469 C 585.804688 889.179688 586 889.179688 586 889.375 C 601.777344 902.761719 620.746094 915.332031 641.90625 916.332031 C 651.695312 916.933594 660.875 914.539062 669.0625 909.34375 C 678.84375 903.15625 687.632812 897.363281 698.015625 891.972656 C 698.8125 892.175781 699.613281 890.976562 699.207031 890.179688 C 692.023438 876.203125 672.058594 870.011719 657.480469 869.011719 C 648.097656 868.410156 639.910156 871.007812 631.523438 874.808594 C 619.542969 879.992188 609.164062 882.988281 596.980469 883.792969 C 605.367188 879.199219 612.757812 873.207031 618.34375 866.21875 C 619.34375 865.019531 617.75 863.417969 616.550781 864.417969 C 603.773438 876 583.003906 887.378906 565.238281 887.378906 C 549.0625 887.378906 528.097656 875.804688 519.507812 862.226562 C 513.722656 853.039062 510.125 844.855469 501.34375 838.0625 C 487.164062 826.683594 484.371094 814.703125 478.78125 798.332031 C 477.984375 795.9375 474.1875 796.335938 474.1875 798.933594 C 474.785156 812.105469 478.78125 824.6875 487.164062 834.46875 C 492.554688 848.445312 501.34375 860.628906 507.527344 874.402344 C 512.925781 886.585938 515.71875 898.167969 508.128906 909.148438 C 507.332031 909.34375 506.335938 909.945312 506.335938 911.144531 C 506.335938 911.339844 506.335938 911.542969 506.335938 911.746094 C 506.132812 911.941406 505.9375 912.339844 505.734375 912.539062 C 499.144531 919.730469 489.761719 924.722656 480.777344 928.515625 C 476.785156 930.511719 480.175781 936.703125 484.371094 934.902344 Z M 327.429688 624.226562 C 340.613281 631.214844 355.191406 633.804688 367.566406 642.789062 C 381.542969 652.773438 393.320312 667.746094 397.515625 684.523438 C 397.515625 684.921875 398.117188 684.71875 397.914062 684.320312 C 394.125 667.347656 386.933594 653.574219 373.558594 642.195312 C 361.773438 632.011719 344.207031 621.230469 328.234375 620.425781 C 326.433594 620.234375 325.636719 623.226562 327.429688 624.226562 " fill-opacity="1" fill-rule="nonzero"/></g></g></g></g><g clip-path="url(#c89aad8c31)"><g transform="matrix(1, 0, 0, 1, -0.000000000000028422, 0.000000000000113687)"><g clip-path="url(#46ac724b1a)"><g fill="#ffffff" fill-opacity="1"><g transform="translate(4.31173, 928.796785)"><g><path d="M 788.421875 -865.03125 L 788.421875 -857.625 C 762.054688 -857.625 737.75 -850.828125 715.5 -837.234375 C 693.257812 -823.640625 675.753906 -805.71875 662.984375 -783.46875 C 650.210938 -761.226562 643.828125 -736.515625 643.828125 -709.328125 L 643.828125 -284.21875 C 643.828125 -232.320312 633.117188 -184.75 611.703125 -141.5 C 590.285156 -98.25 560.007812 -63.851562 520.875 -38.3125 C 481.738281 -12.769531 435.8125 0 383.09375 0 C 331.1875 0 283.609375 -12.769531 240.359375 -38.3125 C 197.109375 -63.851562 162.710938 -98.25 137.171875 -141.5 C 111.628906 -184.75 98.859375 -232.320312 98.859375 -284.21875 L 98.859375 -783.46875 C 98.859375 -804.070312 91.648438 -821.582031 77.234375 -836 C 62.816406 -850.414062 45.3125 -857.625 24.71875 -857.625 L 24.71875 -865.03125 L 391.734375 -865.03125 L 391.734375 -857.625 C 371.140625 -857.625 353.425781 -850.414062 338.59375 -836 C 323.769531 -821.582031 316.359375 -804.070312 316.359375 -783.46875 L 316.359375 -75.375 C 316.359375 -51.488281 322.945312 -34.191406 336.125 -23.484375 C 349.3125 -12.773438 364.96875 -7.421875 383.09375 -7.421875 C 434.164062 -7.421875 478.648438 -19.984375 516.546875 -45.109375 C 554.441406 -70.234375 583.894531 -103.800781 604.90625 -145.8125 C 625.914062 -187.832031 636.421875 -233.96875 636.421875 -284.21875 L 636.421875 -709.328125 C 636.421875 -736.515625 629.828125 -761.226562 616.640625 -783.46875 C 603.460938 -805.71875 585.957031 -823.640625 564.125 -837.234375 C 542.289062 -850.828125 517.78125 -857.625 490.59375 -857.625 L 490.59375 -865.03125 Z M 788.421875 -865.03125 "/></g></g></g></g></g></g></g></g></svg>